{"glyphs":{"0":{"ha":2697,"x_min":0,"x_max":0,"o":"m 1500 1014 b 1565 1064 1533 1014 1557 1028 b 1568 1119 1568 1079 1568 1099 b 1561 1225 1568 1153 1574 1194 b 1497 1260 1553 1251 1522 1260 b 1439 1217 1471 1258 1446 1249 b 1435 1110 1432 1186 1435 1146 b 1438 1065 1435 1096 1435 1081 b 1500 1014 1443 1031 1464 1014 z m 417 197 l 463 197 l 465 321 l 490 197 l 526 197 l 547 324 l 553 197 l 596 197 l 594 501 l 543 501 l 507 310 l 471 501 l 421 501 z m 635 197 l 683 197 l 683 346 l 736 197 l 775 197 l 775 501 l 726 501 l 726 356 l 675 501 l 635 501 z m 794 -36 b 831 -124 794 -67 785 -124 b 860 -76 857 -124 860 -97 l 844 -76 b 843 -100 844 -85 844 -93 b 818 -104 839 -111 822 -112 b 811 -60 810 -93 811 -69 b 815 -15 811 -49 810 -25 b 843 -18 822 -7 839 -7 b 844 -40 844 -25 844 -35 l 860 -40 b 835 0 860 -21 860 0 b 794 -36 806 6 794 -15 z m 808 197 l 861 197 l 861 251 l 808 251 z m 875 -58 b 910 -124 875 -83 868 -124 b 944 -60 944 -124 944 -86 b 910 0 944 -35 946 0 b 875 -58 875 6 875 -25 z m 876 1015 l 910 1015 l 910 1128 b 975 1142 931 1128 960 1125 b 988 1232 1003 1161 1003 1203 b 929 1258 975 1256 953 1258 l 876 1258 z m 879 304 b 893 229 879 278 883 251 b 965 193 906 201 936 189 b 1019 254 1000 201 1018 228 b 983 356 1024 294 1011 328 l 960 383 b 931 419 949 394 936 401 b 951 458 926 431 928 460 b 971 399 972 456 967 419 l 1018 401 b 978 499 1018 439 1014 482 b 883 446 935 519 885 490 b 896 375 878 421 883 394 b 924 343 900 364 914 356 b 971 268 940 324 971 299 b 958 242 971 254 967 244 b 939 251 949 239 943 244 b 928 307 928 269 928 289 z m 879 831 b 885 771 879 806 879 788 b 968 740 897 739 939 726 b 1010 871 1019 756 1010 829 l 1010 982 l 975 982 l 975 892 l 975 815 b 931 761 975 786 967 750 b 910 819 910 772 910 799 l 910 982 l 879 982 z m 890 -49 l 890 -32 b 917 -14 890 -18 899 -6 b 925 -65 929 -18 925 -51 b 899 -107 925 -82 928 -122 b 890 -49 885 -101 890 -61 z m 910 1154 l 910 1233 b 944 1232 921 1233 932 1236 b 965 1189 965 1226 965 1206 b 944 1156 965 1174 963 1160 b 910 1154 932 1153 921 1154 z m 921 33 l 939 33 l 939 90 l 963 90 l 963 101 l 939 101 l 939 144 l 968 144 l 968 156 l 921 156 z m 960 -122 l 975 -122 l 975 -32 l 994 -122 l 1008 -122 l 1028 -32 l 1028 -122 l 1039 -122 l 1039 0 l 1021 0 l 1001 -97 l 979 0 l 960 0 z m 979 99 b 1014 32 979 69 975 32 b 1047 94 1047 32 1047 67 b 1015 158 1047 118 1050 154 b 979 99 979 158 979 128 z m 996 101 l 996 121 b 1021 143 996 138 1008 151 b 1029 89 1035 138 1029 101 b 1008 44 1029 69 1029 39 b 996 101 989 51 996 90 z m 1021 1015 l 1115 1015 l 1115 1039 l 1054 1039 l 1054 1128 l 1104 1128 l 1104 1154 l 1054 1154 l 1054 1233 l 1114 1233 l 1114 1258 l 1021 1258 z m 1035 806 b 1101 736 1039 767 1061 736 b 1157 810 1140 736 1165 772 b 1108 875 1153 840 1129 856 b 1071 936 1089 892 1061 910 b 1101 954 1074 950 1085 960 b 1128 910 1121 950 1126 929 l 1153 919 b 1133 972 1153 940 1149 960 b 1074 982 1115 982 1092 985 b 1046 890 1035 969 1028 919 b 1093 843 1057 871 1079 856 b 1121 815 1108 836 1114 825 b 1118 768 1129 803 1133 779 b 1081 771 1108 757 1090 761 b 1069 815 1071 781 1071 799 z m 1043 350 b 1044 265 1043 321 1040 294 b 1075 203 1047 242 1054 213 b 1151 207 1096 189 1132 189 l 1153 197 l 1193 197 l 1193 356 l 1114 356 l 1114 310 l 1144 310 b 1114 242 1144 294 1150 228 b 1096 307 1090 249 1096 290 l 1096 417 b 1125 458 1096 440 1101 461 b 1140 394 1138 451 1140 447 l 1190 394 b 1157 496 1190 428 1193 474 b 1089 501 1138 508 1111 508 b 1044 439 1063 490 1049 464 b 1043 350 1040 410 1043 379 z m 1061 -122 l 1074 -122 l 1078 -32 l 1093 -122 l 1108 -122 l 1128 -32 l 1129 -122 l 1140 -122 l 1139 0 l 1122 0 l 1101 -97 l 1079 0 l 1061 0 z m 1065 33 l 1081 33 l 1081 90 l 1093 90 l 1111 33 l 1129 33 l 1111 94 b 1111 153 1133 101 1129 143 b 1065 156 1099 158 1079 156 z m 1078 551 l 1093 551 l 1093 611 b 1129 619 1108 611 1118 610 b 1133 667 1139 628 1139 651 b 1078 681 1124 685 1093 681 z m 1081 101 l 1081 144 b 1111 124 1099 144 1111 143 b 1081 101 1111 104 1097 101 z m 1093 622 l 1093 671 b 1121 650 1111 671 1121 671 b 1111 625 1121 639 1121 631 b 1093 622 1108 622 1099 622 z m 1140 1015 l 1178 1015 l 1178 1129 l 1203 1129 l 1238 1015 l 1267 1015 l 1238 1138 b 1238 1249 1275 1153 1272 1228 b 1140 1258 1210 1263 1174 1258 z m 1153 551 l 1199 551 l 1199 567 l 1167 567 l 1167 681 l 1153 681 z m 1161 -122 l 1210 -122 l 1210 -111 l 1179 -111 l 1179 -61 l 1204 -61 l 1204 -49 l 1179 -49 l 1179 -11 l 1210 -11 l 1210 0 l 1161 0 z m 1168 144 l 1192 144 l 1192 33 l 1210 33 l 1210 144 l 1233 144 l 1233 156 l 1168 156 z m 1178 1154 l 1178 1233 b 1211 1229 1188 1233 1199 1236 b 1231 1197 1228 1225 1231 1208 b 1211 1156 1233 1179 1228 1164 b 1178 1154 1199 1154 1188 1154 z m 1188 740 l 1281 740 l 1281 761 l 1218 761 l 1218 850 l 1268 850 l 1268 875 l 1218 875 l 1218 954 l 1281 954 l 1281 982 l 1188 982 z m 1203 158 l 1246 158 l 1333 540 l 1285 540 z m 1211 551 l 1258 551 l 1258 567 l 1228 567 l 1228 611 l 1253 611 l 1253 625 l 1228 625 l 1228 671 l 1258 671 l 1258 681 l 1211 681 z m 1222 -122 l 1242 -122 l 1242 -61 l 1256 -61 l 1269 -122 l 1286 -122 l 1268 -60 b 1269 -1 1289 -51 1288 -14 b 1222 0 1257 6 1240 0 z m 1242 -49 l 1242 -11 b 1268 -32 1257 -11 1268 -14 b 1242 -49 1268 -49 1257 -49 z m 1242 33 l 1257 33 l 1257 90 l 1292 90 l 1292 33 l 1308 33 l 1308 156 l 1292 156 l 1292 101 l 1257 101 l 1257 156 l 1242 156 z m 1267 551 l 1283 551 l 1286 586 l 1313 586 l 1319 551 l 1338 551 l 1313 681 l 1293 681 z m 1288 597 l 1301 657 l 1313 597 z m 1288 1083 b 1356 1014 1289 1044 1313 1014 b 1413 1088 1396 1014 1419 1049 b 1363 1154 1406 1114 1382 1133 b 1322 1214 1343 1168 1318 1186 b 1356 1236 1325 1228 1340 1236 b 1382 1189 1374 1229 1378 1206 l 1408 1199 b 1388 1249 1407 1217 1403 1239 b 1329 1256 1371 1260 1344 1263 b 1300 1164 1288 1249 1281 1199 b 1347 1119 1313 1149 1333 1133 b 1374 1093 1361 1108 1367 1099 b 1374 1046 1383 1079 1388 1054 b 1333 1049 1363 1036 1344 1038 b 1321 1093 1325 1058 1322 1074 z m 1301 -36 b 1333 -124 1301 -67 1289 -124 b 1365 -76 1363 -124 1365 -97 l 1347 -76 b 1347 -100 1347 -85 1353 -93 b 1322 -104 1344 -111 1329 -112 b 1318 -60 1313 -93 1318 -69 b 1322 -15 1318 -49 1313 -25 b 1347 -18 1329 -7 1344 -7 b 1347 -40 1353 -25 1347 -35 l 1365 -40 b 1340 0 1365 -21 1363 0 b 1301 -36 1313 6 1301 -15 z m 1326 33 l 1374 33 l 1374 42 l 1344 42 l 1344 90 l 1368 90 l 1368 101 l 1344 101 l 1344 144 l 1374 144 l 1374 156 l 1326 156 z m 1343 194 l 1397 194 l 1397 324 l 1443 324 l 1443 194 l 1492 194 l 1492 500 l 1443 500 l 1443 378 l 1397 378 l 1397 500 l 1343 500 z m 1344 588 b 1378 551 1347 569 1358 551 b 1407 594 1401 551 1413 572 b 1378 625 1406 608 1389 615 b 1363 658 1368 632 1358 644 b 1392 644 1365 672 1382 678 l 1407 646 b 1389 678 1407 658 1401 672 b 1356 674 1378 682 1363 681 b 1363 621 1338 658 1347 633 b 1392 582 1371 610 1392 597 b 1371 567 1392 569 1383 565 b 1363 594 1363 569 1363 585 z m 1371 836 b 1374 786 1371 819 1371 803 b 1439 736 1378 754 1406 736 b 1500 785 1472 736 1496 753 b 1501 843 1507 803 1501 821 b 1497 947 1501 874 1511 917 b 1433 982 1489 974 1464 982 b 1374 940 1407 982 1383 969 b 1371 836 1367 910 1371 871 z m 1383 -122 l 1401 -122 l 1401 0 l 1383 0 z m 1407 815 l 1407 856 b 1407 935 1407 881 1403 910 b 1432 954 1413 947 1417 954 b 1461 947 1439 960 1451 954 b 1471 910 1472 938 1471 924 l 1471 821 b 1471 796 1471 815 1472 803 b 1451 765 1469 785 1464 771 b 1421 765 1443 761 1432 761 b 1407 815 1406 772 1407 796 z m 1413 -122 l 1432 -122 l 1438 -90 l 1464 -90 l 1469 -122 l 1486 -122 l 1457 0 l 1439 0 z m 1421 551 l 1472 551 l 1472 567 l 1439 567 l 1439 611 l 1464 611 l 1464 625 l 1439 625 l 1439 671 l 1471 671 l 1471 681 l 1421 681 z m 1426 33 l 1439 33 l 1439 90 l 1464 90 l 1464 101 l 1439 101 l 1439 144 l 1474 144 l 1474 156 l 1426 156 z m 1439 -81 l 1451 -21 l 1461 -81 z m 1471 1089 l 1471 1133 b 1472 1208 1471 1157 1464 1189 b 1496 1233 1476 1225 1483 1232 b 1522 1225 1507 1236 1515 1236 b 1533 1183 1533 1214 1533 1199 l 1533 1074 b 1517 1040 1533 1063 1532 1049 b 1489 1040 1510 1038 1496 1038 b 1471 1089 1469 1050 1471 1074 z m 1486 63 b 1526 33 1489 39 1503 26 b 1549 100 1551 42 1549 79 l 1549 156 l 1533 156 l 1533 101 b 1515 42 1533 86 1539 42 b 1499 101 1493 42 1499 86 l 1499 156 l 1486 156 l 1486 90 b 1486 63 1486 82 1483 69 z m 1497 -122 l 1546 -122 l 1546 -111 l 1513 -111 l 1513 0 l 1497 0 z m 1513 681 l 1540 551 l 1557 551 l 1583 681 l 1568 681 l 1549 588 l 1532 681 z m 1518 304 b 1519 258 1518 290 1518 275 b 1564 197 1522 233 1536 207 b 1632 204 1585 190 1613 190 b 1663 304 1665 224 1663 269 l 1663 392 b 1632 493 1663 425 1665 472 b 1564 500 1613 506 1585 506 b 1519 435 1536 489 1522 463 b 1518 389 1518 419 1518 404 z m 1539 740 l 1565 740 l 1565 904 l 1636 740 l 1661 740 l 1661 982 l 1631 982 l 1631 819 l 1561 982 l 1539 982 z m 1568 33 l 1615 33 l 1615 42 l 1586 42 l 1586 156 l 1568 156 z m 1568 311 l 1568 383 b 1574 446 1568 400 1567 425 b 1597 457 1576 450 1586 457 b 1613 438 1606 453 1613 449 b 1614 392 1617 422 1614 408 l 1614 304 b 1613 258 1614 289 1617 274 b 1597 240 1613 246 1606 244 b 1574 251 1586 239 1576 244 b 1568 311 1567 269 1568 294 z m 1588 0 l 1615 -122 l 1628 -122 l 1656 0 l 1640 0 l 1621 -90 l 1603 0 z m 1596 551 l 1615 551 l 1615 681 l 1596 681 z m 1603 1015 l 1631 1015 l 1631 1179 l 1699 1015 l 1721 1015 l 1721 1258 l 1690 1258 l 1690 1096 l 1622 1258 l 1603 1258 z m 1628 33 l 1675 33 l 1675 42 l 1646 42 l 1646 156 l 1628 156 z m 1631 588 b 1665 551 1633 569 1640 551 b 1690 594 1686 551 1697 572 b 1665 625 1690 608 1675 618 b 1650 658 1658 633 1643 643 b 1675 644 1656 672 1672 678 l 1690 646 b 1675 678 1690 658 1686 672 b 1640 674 1665 682 1651 681 b 1647 621 1621 658 1633 633 b 1675 582 1661 610 1679 597 b 1661 567 1675 569 1669 565 b 1647 594 1651 569 1647 585 z m 1669 -122 l 1719 -122 l 1719 -111 l 1686 -111 l 1686 -61 l 1714 -61 l 1714 -49 l 1686 -49 l 1686 -11 l 1719 -11 l 1719 0 l 1669 0 z m 1689 194 l 1806 194 l 1806 246 l 1742 246 l 1742 500 l 1689 500 z m 1697 740 l 1789 740 l 1789 761 l 1731 761 l 1731 982 l 1697 982 z m 1707 551 l 1725 551 l 1725 681 l 1707 681 z m 1719 33 l 1733 33 l 1742 64 l 1765 64 l 1769 33 l 1789 33 l 1761 156 l 1742 156 z m 1732 -122 l 1750 -122 l 1750 -61 l 1761 -61 l 1778 -122 l 1794 -122 l 1775 -60 b 1781 -1 1797 -53 1797 -14 b 1732 0 1765 6 1747 0 z m 1736 671 l 1760 671 l 1760 551 l 1775 551 l 1775 671 l 1794 671 l 1794 681 l 1736 681 z m 1742 75 l 1751 132 l 1763 75 z m 1746 1015 l 1775 1015 l 1789 1074 l 1839 1074 l 1850 1015 l 1882 1015 l 1831 1258 l 1797 1258 z m 1750 -49 l 1750 -11 b 1775 -32 1765 -11 1775 -14 b 1750 -49 1775 -49 1765 -49 z m 1794 1099 l 1815 1208 l 1835 1099 z m 1800 33 l 1818 33 l 1818 117 l 1850 33 l 1863 33 l 1863 156 l 1846 156 l 1846 75 l 1811 156 l 1800 156 z m 1800 982 l 1835 871 b 1851 825 1843 856 1846 843 b 1851 788 1853 815 1851 799 l 1851 740 l 1885 740 l 1885 797 b 1888 831 1885 806 1882 819 l 1904 878 b 1938 982 1914 914 1926 947 l 1904 982 l 1867 864 l 1831 982 z m 1808 -86 b 1843 -124 1810 -107 1819 -124 b 1867 -85 1865 -124 1875 -104 b 1844 -49 1867 -67 1853 -60 b 1826 -18 1835 -40 1819 -32 b 1844 -11 1831 -11 1836 -7 b 1854 -35 1853 -15 1853 -25 l 1867 -28 b 1853 0 1867 -15 1865 -6 b 1819 -6 1844 6 1831 4 b 1825 -58 1800 -15 1810 -43 b 1854 -94 1835 -65 1854 -81 b 1835 -107 1854 -104 1846 -112 b 1825 -83 1826 -104 1825 -90 z m 1831 194 l 1886 194 b 1965 290 1942 194 1965 224 l 1965 404 b 1879 500 1965 468 1942 500 l 1831 500 z m 1879 242 l 1879 449 l 1897 449 b 1911 429 1906 449 1911 438 b 1914 386 1914 418 1914 400 l 1914 304 b 1911 258 1914 289 1914 274 b 1897 242 1911 251 1906 246 z m 1882 33 b 1931 40 1894 33 1919 29 b 1944 94 1949 50 1944 75 b 1938 147 1944 111 1949 138 b 1882 156 1919 158 1896 156 z m 1885 -122 l 1900 -122 l 1900 0 l 1885 0 z m 1900 42 l 1900 144 b 1928 125 1914 144 1926 144 l 1928 63 b 1900 42 1922 42 1913 42 z m 1907 1015 l 2003 1015 l 2003 1039 l 1942 1039 l 1942 1258 l 1907 1258 z m 1919 -58 b 1954 -124 1919 -83 1915 -124 b 1989 -60 1990 -124 1989 -86 b 1958 0 1989 -35 1993 0 b 1919 -58 1919 6 1919 -25 z m 1940 -49 l 1940 -32 b 1964 -14 1940 -18 1944 -6 b 1972 -65 1976 -18 1972 -51 b 1944 -107 1972 -82 1974 -122 b 1940 -49 1931 -101 1940 -61 z m 1954 740 l 1989 740 l 1989 772 l 1954 772 z m 1954 982 l 1965 790 l 1976 790 l 1989 982 z m 1992 194 l 2110 194 l 2110 246 l 2042 246 l 2042 328 l 2097 328 l 2097 382 l 2042 382 l 2042 449 l 2110 449 l 2110 500 l 1992 500 z m 2007 -122 l 2017 -122 l 2017 -36 l 2056 -122 l 2068 -122 l 2068 0 l 2054 0 l 2054 -82 l 2017 0 l 2007 0 z m 2136 194 l 2186 194 l 2186 328 l 2200 328 l 2228 194 l 2278 194 l 2244 336 b 2281 421 2271 356 2281 392 b 2225 500 2281 478 2249 500 l 2136 500 z m 2186 371 l 2186 457 l 2203 457 b 2214 371 2233 457 2231 379 z "}," ":{"ha":361,"x_min":0,"x_max":0,"o":""},"A":{"ha":1115,"x_min":0,"x_max":0,"o":"m 126 1015 l 126 0 l 358 0 l 358 407 l 757 407 l 757 1 l 989 1 l 989 1015 l 747 1264 l 368 1264 z m 358 615 l 358 1051 l 360 1060 l 756 1060 l 757 1051 l 757 615 z "},"Á":{"ha":1115,"x_min":0,"x_max":0,"o":"m 126 1015 l 126 0 l 358 0 l 358 407 l 757 407 l 757 1 l 989 1 l 989 1015 l 747 1264 l 368 1264 z m 358 615 l 358 1051 l 360 1060 l 756 1060 l 757 1051 l 757 615 z m 378 1296 l 846 1394 l 846 1521 l 378 1422 z "},"Ă":{"ha":1115,"x_min":0,"x_max":0,"o":"m 126 1015 l 126 0 l 358 0 l 358 407 l 757 407 l 757 1 l 989 1 l 989 1015 l 747 1264 l 368 1264 z m 358 615 l 358 1051 l 360 1060 l 756 1060 l 757 1051 l 757 615 z m 369 1297 l 743 1297 l 743 1494 l 635 1494 l 635 1406 l 478 1406 l 478 1494 l 369 1494 z "},"Ắ":{"ha":1115,"x_min":0,"x_max":0,"o":"m 126 1015 l 126 0 l 358 0 l 358 407 l 757 407 l 757 1 l 989 1 l 989 1015 l 747 1264 l 368 1264 z m 358 615 l 358 1051 l 360 1060 l 756 1060 l 757 1051 l 757 615 z m 369 1297 l 743 1297 l 743 1494 l 635 1494 l 635 1406 l 478 1406 l 478 1494 l 369 1494 z m 378 1526 l 846 1625 l 846 1751 l 378 1653 z "},"Ặ":{"ha":1115,"x_min":0,"x_max":0,"o":"m 126 1015 l 126 0 l 358 0 l 358 407 l 757 407 l 757 1 l 989 1 l 989 1015 l 747 1264 l 368 1264 z m 358 615 l 358 1051 l 360 1060 l 756 1060 l 757 1051 l 757 615 z m 369 1297 l 743 1297 l 743 1494 l 635 1494 l 635 1406 l 478 1406 l 478 1494 l 369 1494 z m 454 -287 l 660 -287 l 660 -86 l 454 -86 z "},"Ằ":{"ha":1115,"x_min":0,"x_max":0,"o":"m 126 1015 l 126 0 l 358 0 l 358 407 l 757 407 l 757 1 l 989 1 l 989 1015 l 747 1264 l 368 1264 z m 268 1625 l 736 1526 l 736 1653 l 268 1751 z m 358 615 l 358 1051 l 360 1060 l 756 1060 l 757 1051 l 757 615 z m 369 1297 l 743 1297 l 743 1494 l 635 1494 l 635 1406 l 478 1406 l 478 1494 l 369 1494 z "},"Ẳ":{"ha":1115,"x_min":0,"x_max":0,"o":"m 126 1015 l 126 0 l 358 0 l 358 407 l 757 407 l 757 1 l 989 1 l 989 1015 l 747 1264 l 368 1264 z m 358 615 l 358 1051 l 360 1060 l 756 1060 l 757 1051 l 757 615 z m 369 1297 l 743 1297 l 743 1494 l 635 1494 l 635 1406 l 478 1406 l 478 1494 l 369 1494 z m 489 1561 l 626 1561 l 626 1807 l 489 1807 z "},"Ẵ":{"ha":1115,"x_min":0,"x_max":0,"o":"m 126 1015 l 126 0 l 358 0 l 358 407 l 757 407 l 757 1 l 989 1 l 989 1015 l 747 1264 l 368 1264 z m 268 1583 l 843 1583 l 843 1747 l 268 1747 z m 358 615 l 358 1051 l 360 1060 l 756 1060 l 757 1051 l 757 615 z m 369 1297 l 743 1297 l 743 1494 l 635 1494 l 635 1406 l 478 1406 l 478 1494 l 369 1494 z "},"Ǎ":{"ha":1115,"x_min":0,"x_max":0,"o":"m 126 1015 l 126 0 l 358 0 l 358 407 l 757 407 l 757 1 l 989 1 l 989 1015 l 747 1264 l 368 1264 z m 331 1406 l 554 1310 l 554 1307 l 558 1308 l 561 1307 l 561 1310 l 785 1406 l 785 1532 l 558 1435 l 331 1532 z m 358 615 l 358 1051 l 360 1060 l 756 1060 l 757 1051 l 757 615 z "},"Â":{"ha":1115,"x_min":0,"x_max":0,"o":"m 126 1015 l 126 0 l 358 0 l 358 407 l 757 407 l 757 1 l 989 1 l 989 1015 l 747 1264 l 368 1264 z m 331 1310 l 558 1407 l 785 1310 l 785 1436 l 561 1532 l 561 1535 l 558 1533 l 554 1535 l 554 1532 l 331 1436 z m 358 615 l 358 1051 l 360 1060 l 756 1060 l 757 1051 l 757 615 z "},"Ấ":{"ha":1115,"x_min":0,"x_max":0,"o":"m 126 1015 l 126 0 l 358 0 l 358 407 l 757 407 l 757 1 l 989 1 l 989 1015 l 747 1264 l 368 1264 z m 331 1310 l 558 1407 l 785 1310 l 785 1436 l 561 1532 l 561 1535 l 558 1533 l 554 1535 l 554 1532 l 331 1436 z m 358 615 l 358 1051 l 360 1060 l 756 1060 l 757 1051 l 757 615 z m 378 1567 l 846 1665 l 846 1792 l 378 1693 z "},"Ậ":{"ha":1115,"x_min":0,"x_max":0,"o":"m 126 1015 l 126 0 l 358 0 l 358 407 l 757 407 l 757 1 l 989 1 l 989 1015 l 747 1264 l 368 1264 z m 331 1310 l 558 1407 l 785 1310 l 785 1436 l 561 1532 l 561 1535 l 558 1533 l 554 1535 l 554 1532 l 331 1436 z m 358 615 l 358 1051 l 360 1060 l 756 1060 l 757 1051 l 757 615 z m 454 -287 l 660 -287 l 660 -86 l 454 -86 z "},"Ầ":{"ha":1115,"x_min":0,"x_max":0,"o":"m 126 1015 l 126 0 l 358 0 l 358 407 l 757 407 l 757 1 l 989 1 l 989 1015 l 747 1264 l 368 1264 z m 269 1665 l 738 1567 l 738 1693 l 269 1792 z m 331 1310 l 558 1407 l 785 1310 l 785 1436 l 561 1532 l 561 1535 l 558 1533 l 554 1535 l 554 1532 l 331 1436 z m 358 615 l 358 1051 l 360 1060 l 756 1060 l 757 1051 l 757 615 z "},"Ẩ":{"ha":1115,"x_min":0,"x_max":0,"o":"m 126 1015 l 126 0 l 358 0 l 358 407 l 757 407 l 757 1 l 989 1 l 989 1015 l 747 1264 l 368 1264 z m 331 1310 l 558 1407 l 785 1310 l 785 1436 l 561 1532 l 561 1535 l 558 1533 l 554 1535 l 554 1532 l 331 1436 z m 358 615 l 358 1051 l 360 1060 l 756 1060 l 757 1051 l 757 615 z m 490 1603 l 628 1603 l 628 1847 l 490 1847 z "},"Ẫ":{"ha":1115,"x_min":0,"x_max":0,"o":"m 126 1015 l 126 0 l 358 0 l 358 407 l 757 407 l 757 1 l 989 1 l 989 1015 l 747 1264 l 368 1264 z m 268 1624 l 844 1624 l 844 1788 l 268 1788 z m 331 1310 l 558 1407 l 785 1310 l 785 1436 l 561 1532 l 561 1535 l 558 1533 l 554 1535 l 554 1532 l 331 1436 z m 358 615 l 358 1051 l 360 1060 l 756 1060 l 757 1051 l 757 615 z "},"Ä":{"ha":1115,"x_min":0,"x_max":0,"o":"m 126 1015 l 126 0 l 358 0 l 358 407 l 757 407 l 757 1 l 989 1 l 989 1015 l 747 1264 l 368 1264 z m 294 1350 l 500 1350 l 500 1551 l 294 1551 z m 358 615 l 358 1051 l 360 1060 l 756 1060 l 757 1051 l 757 615 z m 611 1350 l 817 1350 l 817 1551 l 611 1551 z "},"Ǟ":{"ha":1115,"x_min":0,"x_max":0,"o":"m 126 1015 l 126 0 l 358 0 l 358 407 l 757 407 l 757 1 l 989 1 l 989 1015 l 747 1264 l 368 1264 z m 268 1640 l 843 1640 l 843 1804 l 268 1804 z m 294 1350 l 500 1350 l 500 1551 l 294 1551 z m 358 615 l 358 1051 l 360 1060 l 756 1060 l 757 1051 l 757 615 z m 611 1350 l 817 1350 l 817 1551 l 611 1551 z "},"Ạ":{"ha":1115,"x_min":0,"x_max":0,"o":"m 126 1015 l 126 0 l 358 0 l 358 407 l 757 407 l 757 1 l 989 1 l 989 1015 l 747 1264 l 368 1264 z m 358 615 l 358 1051 l 360 1060 l 756 1060 l 757 1051 l 757 615 z m 454 -287 l 660 -287 l 660 -86 l 454 -86 z "},"À":{"ha":1115,"x_min":0,"x_max":0,"o":"m 126 1015 l 126 0 l 358 0 l 358 407 l 757 407 l 757 1 l 989 1 l 989 1015 l 747 1264 l 368 1264 z m 268 1394 l 736 1296 l 736 1422 l 268 1521 z m 358 615 l 358 1051 l 360 1060 l 756 1060 l 757 1051 l 757 615 z "},"Ả":{"ha":1115,"x_min":0,"x_max":0,"o":"m 126 1015 l 126 0 l 358 0 l 358 407 l 757 407 l 757 1 l 989 1 l 989 1015 l 747 1264 l 368 1264 z m 358 615 l 358 1051 l 360 1060 l 756 1060 l 757 1051 l 757 615 z m 489 1332 l 626 1332 l 626 1576 l 489 1576 z "},"Ɑ":{"ha":1043,"x_min":0,"x_max":0,"o":"m 917 1264 l 368 1264 l 126 1015 l 126 249 l 368 0 l 917 0 z m 358 213 l 358 1051 l 360 1060 l 685 1060 l 685 204 l 360 204 z "},"Ā":{"ha":1115,"x_min":0,"x_max":0,"o":"m 126 1015 l 126 0 l 358 0 l 358 407 l 757 407 l 757 1 l 989 1 l 989 1015 l 747 1264 l 368 1264 z m 268 1353 l 843 1353 l 843 1517 l 268 1517 z m 358 615 l 358 1051 l 360 1060 l 756 1060 l 757 1051 l 757 615 z "},"Ą":{"ha":1115,"x_min":0,"x_max":0,"o":"m 126 1015 l 126 0 l 358 0 l 358 407 l 757 407 l 757 1 l 989 1 l 989 1015 l 747 1264 l 368 1264 z m 358 615 l 358 1051 l 360 1060 l 756 1060 l 757 1051 l 757 615 z m 471 -258 l 643 -258 l 643 49 l 471 49 z "},"Å":{"ha":1115,"x_min":0,"x_max":0,"o":"m 126 1015 l 126 0 l 358 0 l 358 407 l 757 407 l 757 1 l 989 1 l 989 1015 l 747 1264 l 368 1264 z m 358 615 l 358 1051 l 360 1060 l 756 1060 l 757 1051 l 757 615 z m 454 1350 l 660 1350 l 660 1551 l 454 1551 z "},"Ã":{"ha":1115,"x_min":0,"x_max":0,"o":"m 126 1015 l 126 0 l 358 0 l 358 407 l 757 407 l 757 1 l 989 1 l 989 1015 l 747 1264 l 368 1264 z m 268 1353 l 843 1353 l 843 1517 l 268 1517 z m 358 615 l 358 1051 l 360 1060 l 756 1060 l 757 1051 l 757 615 z "},"Æ":{"ha":1493,"x_min":0,"x_max":0,"o":"m 126 1015 l 126 0 l 358 0 l 358 397 l 664 397 l 664 0 l 1367 0 l 1367 203 l 874 203 l 874 563 l 1274 563 l 1274 733 l 874 733 l 874 1061 l 1367 1061 l 1367 1264 l 368 1264 z m 358 617 l 358 1051 l 360 1060 l 664 1060 l 664 617 z "},"Ǣ":{"ha":1493,"x_min":0,"x_max":0,"o":"m 126 1015 l 126 0 l 358 0 l 358 397 l 664 397 l 664 0 l 1367 0 l 1367 203 l 874 203 l 874 563 l 1274 563 l 1274 733 l 874 733 l 874 1061 l 1367 1061 l 1367 1264 l 368 1264 z m 358 617 l 358 1051 l 360 1060 l 664 1060 l 664 617 z m 542 1353 l 1117 1353 l 1117 1517 l 542 1517 z "},"B":{"ha":1051,"x_min":0,"x_max":0,"o":"m 126 1264 l 126 0 l 728 0 l 915 194 l 915 521 l 765 642 l 915 758 l 915 1076 l 728 1264 z m 358 200 l 358 556 l 682 556 l 683 549 l 683 213 l 681 200 z m 358 725 l 358 1071 l 681 1071 l 683 1057 l 683 732 l 682 725 z "},"Ḅ":{"ha":1051,"x_min":0,"x_max":0,"o":"m 126 1264 l 126 0 l 728 0 l 915 194 l 915 521 l 765 642 l 915 758 l 915 1076 l 728 1264 z m 358 200 l 358 556 l 682 556 l 683 549 l 683 213 l 681 200 z m 358 725 l 358 1071 l 681 1071 l 683 1057 l 683 732 l 682 725 z m 422 -287 l 628 -287 l 628 -86 l 422 -86 z "},"Ƀ":{"ha":1051,"x_min":0,"x_max":0,"o":"m 126 1264 l 126 449 l 21 449 l 21 308 l 126 308 l 126 0 l 728 0 l 915 194 l 915 521 l 765 642 l 915 758 l 915 1076 l 728 1264 z m 358 200 l 358 308 l 575 308 l 575 449 l 358 449 l 358 556 l 682 556 l 683 549 l 683 213 l 681 200 z m 358 725 l 358 1071 l 681 1071 l 683 1057 l 683 732 l 682 725 z "},"C":{"ha":1047,"x_min":0,"x_max":0,"o":"m 358 213 l 358 1051 l 360 1060 l 694 1060 l 721 1024 l 721 726 l 921 726 l 921 1053 l 721 1264 l 368 1264 l 126 1015 l 126 249 l 368 0 l 721 0 l 921 211 l 921 538 l 721 538 l 721 236 l 694 204 l 360 204 z "},"Ć":{"ha":1047,"x_min":0,"x_max":0,"o":"m 358 213 l 358 1051 l 360 1060 l 694 1060 l 721 1024 l 721 726 l 921 726 l 921 1053 l 721 1264 l 368 1264 l 126 1015 l 126 249 l 368 0 l 721 0 l 921 211 l 921 538 l 721 538 l 721 236 l 694 204 l 360 204 z m 365 1296 l 833 1394 l 833 1521 l 365 1422 z "},"Č":{"ha":1047,"x_min":0,"x_max":0,"o":"m 358 213 l 358 1051 l 360 1060 l 694 1060 l 721 1024 l 721 726 l 921 726 l 921 1053 l 721 1264 l 368 1264 l 126 1015 l 126 249 l 368 0 l 721 0 l 921 211 l 921 538 l 721 538 l 721 236 l 694 204 l 360 204 z m 318 1406 l 542 1310 l 542 1307 l 546 1308 l 549 1307 l 549 1310 l 772 1406 l 772 1532 l 546 1435 l 318 1532 z "},"Ç":{"ha":1047,"x_min":0,"x_max":0,"o":"m 358 213 l 358 1051 l 360 1060 l 694 1060 l 721 1024 l 721 726 l 921 726 l 921 1053 l 721 1264 l 368 1264 l 126 1015 l 126 249 l 368 0 l 458 0 l 458 -258 l 631 -258 l 631 0 l 721 0 l 921 211 l 921 538 l 721 538 l 721 236 l 694 204 l 360 204 z "},"Ĉ":{"ha":1047,"x_min":0,"x_max":0,"o":"m 358 213 l 358 1051 l 360 1060 l 694 1060 l 721 1024 l 721 726 l 921 726 l 921 1053 l 721 1264 l 368 1264 l 126 1015 l 126 249 l 368 0 l 721 0 l 921 211 l 921 538 l 721 538 l 721 236 l 694 204 l 360 204 z m 318 1310 l 546 1407 l 772 1310 l 772 1436 l 549 1532 l 549 1535 l 546 1533 l 542 1535 l 542 1532 l 318 1436 z "},"Ċ":{"ha":1047,"x_min":0,"x_max":0,"o":"m 358 213 l 358 1051 l 360 1060 l 694 1060 l 721 1024 l 721 726 l 921 726 l 921 1053 l 721 1264 l 368 1264 l 126 1015 l 126 249 l 368 0 l 721 0 l 921 211 l 921 538 l 721 538 l 721 236 l 694 204 l 360 204 z m 442 1350 l 647 1350 l 647 1551 l 442 1551 z "},"D":{"ha":1043,"x_min":0,"x_max":0,"o":"m 126 1264 l 126 0 l 675 0 l 917 249 l 917 1015 l 675 1264 z m 358 204 l 358 1060 l 683 1060 l 685 1051 l 685 213 l 683 204 z "},"Ð":{"ha":1043,"x_min":0,"x_max":0,"o":"m 126 1264 l 126 710 l 10 710 l 10 531 l 126 531 l 126 0 l 675 0 l 917 249 l 917 1015 l 675 1264 z m 358 204 l 358 531 l 551 531 l 551 710 l 358 710 l 358 1060 l 683 1060 l 685 1051 l 685 213 l 683 204 z "},"Ď":{"ha":1043,"x_min":0,"x_max":0,"o":"m 126 1264 l 126 0 l 675 0 l 917 249 l 917 1015 l 675 1264 z m 296 1406 l 519 1310 l 519 1307 l 524 1308 l 526 1307 l 526 1310 l 750 1406 l 750 1532 l 524 1435 l 296 1532 z m 358 204 l 358 1060 l 683 1060 l 685 1051 l 685 213 l 683 204 z "},"Ḓ":{"ha":1043,"x_min":0,"x_max":0,"o":"m 126 1264 l 126 0 l 675 0 l 917 249 l 917 1015 l 675 1264 z m 294 -268 l 522 -171 l 749 -268 l 749 -142 l 525 -46 l 525 -43 l 522 -44 l 518 -43 l 518 -46 l 294 -142 z m 358 204 l 358 1060 l 683 1060 l 685 1051 l 685 213 l 683 204 z "},"Đ":{"ha":1043,"x_min":0,"x_max":0,"o":"m 126 1264 l 126 710 l 10 710 l 10 531 l 126 531 l 126 0 l 675 0 l 917 249 l 917 1015 l 675 1264 z m 358 204 l 358 531 l 551 531 l 551 710 l 358 710 l 358 1060 l 683 1060 l 685 1051 l 685 213 l 683 204 z "},"Ḍ":{"ha":1043,"x_min":0,"x_max":0,"o":"m 126 1264 l 126 0 l 675 0 l 917 249 l 917 1015 l 675 1264 z m 358 204 l 358 1060 l 683 1060 l 685 1051 l 685 213 l 683 204 z m 419 -287 l 625 -287 l 625 -86 l 419 -86 z "},"Ḏ":{"ha":1043,"x_min":0,"x_max":0,"o":"m 126 1264 l 126 0 l 675 0 l 917 249 l 917 1015 l 675 1264 z m 236 -253 l 811 -253 l 811 -89 l 236 -89 z m 358 204 l 358 1060 l 683 1060 l 685 1051 l 685 213 l 683 204 z "},"Ɖ":{"ha":1043,"x_min":0,"x_max":0,"o":"m 126 1264 l 126 710 l 10 710 l 10 531 l 126 531 l 126 0 l 675 0 l 917 249 l 917 1015 l 675 1264 z m 358 204 l 358 531 l 551 531 l 551 710 l 358 710 l 358 1060 l 683 1060 l 685 1051 l 685 213 l 683 204 z "},"E":{"ha":1029,"x_min":0,"x_max":0,"o":"m 801 733 l 358 733 l 358 1061 l 903 1061 l 903 1264 l 126 1264 l 126 0 l 903 0 l 903 203 l 358 203 l 358 563 l 801 563 z "},"É":{"ha":1029,"x_min":0,"x_max":0,"o":"m 801 733 l 358 733 l 358 1061 l 903 1061 l 903 1264 l 126 1264 l 126 0 l 903 0 l 903 203 l 358 203 l 358 563 l 801 563 z m 336 1296 l 804 1394 l 804 1521 l 336 1422 z "},"Ě":{"ha":1029,"x_min":0,"x_max":0,"o":"m 801 733 l 358 733 l 358 1061 l 903 1061 l 903 1264 l 126 1264 l 126 0 l 903 0 l 903 203 l 358 203 l 358 563 l 801 563 z m 289 1406 l 513 1310 l 513 1307 l 517 1308 l 519 1307 l 519 1310 l 743 1406 l 743 1532 l 517 1435 l 289 1532 z "},"Ȩ":{"ha":1029,"x_min":0,"x_max":0,"o":"m 801 733 l 358 733 l 358 1061 l 903 1061 l 903 1264 l 126 1264 l 126 0 l 429 0 l 429 -258 l 601 -258 l 601 0 l 903 0 l 903 203 l 358 203 l 358 563 l 801 563 z "},"Ê":{"ha":1029,"x_min":0,"x_max":0,"o":"m 801 733 l 358 733 l 358 1061 l 903 1061 l 903 1264 l 126 1264 l 126 0 l 903 0 l 903 203 l 358 203 l 358 563 l 801 563 z m 289 1310 l 517 1407 l 743 1310 l 743 1436 l 519 1532 l 519 1535 l 517 1533 l 513 1535 l 513 1532 l 289 1436 z "},"Ế":{"ha":1029,"x_min":0,"x_max":0,"o":"m 801 733 l 358 733 l 358 1061 l 903 1061 l 903 1264 l 126 1264 l 126 0 l 903 0 l 903 203 l 358 203 l 358 563 l 801 563 z m 289 1310 l 517 1407 l 743 1310 l 743 1436 l 519 1532 l 519 1535 l 517 1533 l 513 1535 l 513 1532 l 289 1436 z m 336 1567 l 804 1665 l 804 1792 l 336 1693 z "},"Ệ":{"ha":1029,"x_min":0,"x_max":0,"o":"m 801 733 l 358 733 l 358 1061 l 903 1061 l 903 1264 l 126 1264 l 126 0 l 903 0 l 903 203 l 358 203 l 358 563 l 801 563 z m 289 1310 l 517 1407 l 743 1310 l 743 1436 l 519 1532 l 519 1535 l 517 1533 l 513 1535 l 513 1532 l 289 1436 z m 413 -287 l 618 -287 l 618 -86 l 413 -86 z "},"Ề":{"ha":1029,"x_min":0,"x_max":0,"o":"m 801 733 l 358 733 l 358 1061 l 903 1061 l 903 1264 l 126 1264 l 126 0 l 903 0 l 903 203 l 358 203 l 358 563 l 801 563 z m 228 1665 l 696 1567 l 696 1693 l 228 1792 z m 289 1310 l 517 1407 l 743 1310 l 743 1436 l 519 1532 l 519 1535 l 517 1533 l 513 1535 l 513 1532 l 289 1436 z "},"Ể":{"ha":1029,"x_min":0,"x_max":0,"o":"m 801 733 l 358 733 l 358 1061 l 903 1061 l 903 1264 l 126 1264 l 126 0 l 903 0 l 903 203 l 358 203 l 358 563 l 801 563 z m 289 1310 l 517 1407 l 743 1310 l 743 1436 l 519 1532 l 519 1535 l 517 1533 l 513 1535 l 513 1532 l 289 1436 z m 449 1603 l 586 1603 l 586 1847 l 449 1847 z "},"Ễ":{"ha":1029,"x_min":0,"x_max":0,"o":"m 801 733 l 358 733 l 358 1061 l 903 1061 l 903 1264 l 126 1264 l 126 0 l 903 0 l 903 203 l 358 203 l 358 563 l 801 563 z m 226 1624 l 803 1624 l 803 1788 l 226 1788 z m 289 1310 l 517 1407 l 743 1310 l 743 1436 l 519 1532 l 519 1535 l 517 1533 l 513 1535 l 513 1532 l 289 1436 z "},"Ë":{"ha":1029,"x_min":0,"x_max":0,"o":"m 801 733 l 358 733 l 358 1061 l 903 1061 l 903 1264 l 126 1264 l 126 0 l 903 0 l 903 203 l 358 203 l 358 563 l 801 563 z m 253 1350 l 458 1350 l 458 1551 l 253 1551 z m 569 1350 l 775 1350 l 775 1551 l 569 1551 z "},"Ė":{"ha":1029,"x_min":0,"x_max":0,"o":"m 801 733 l 358 733 l 358 1061 l 903 1061 l 903 1264 l 126 1264 l 126 0 l 903 0 l 903 203 l 358 203 l 358 563 l 801 563 z m 413 1350 l 618 1350 l 618 1551 l 413 1551 z "},"Ẹ":{"ha":1029,"x_min":0,"x_max":0,"o":"m 801 733 l 358 733 l 358 1061 l 903 1061 l 903 1264 l 126 1264 l 126 0 l 903 0 l 903 203 l 358 203 l 358 563 l 801 563 z m 413 -287 l 618 -287 l 618 -86 l 413 -86 z "},"È":{"ha":1029,"x_min":0,"x_max":0,"o":"m 801 733 l 358 733 l 358 1061 l 903 1061 l 903 1264 l 126 1264 l 126 0 l 903 0 l 903 203 l 358 203 l 358 563 l 801 563 z m 226 1394 l 694 1296 l 694 1422 l 226 1521 z "},"Ẻ":{"ha":1029,"x_min":0,"x_max":0,"o":"m 801 733 l 358 733 l 358 1061 l 903 1061 l 903 1264 l 126 1264 l 126 0 l 903 0 l 903 203 l 358 203 l 358 563 l 801 563 z m 447 1332 l 585 1332 l 585 1576 l 447 1576 z "},"Ē":{"ha":1029,"x_min":0,"x_max":0,"o":"m 801 733 l 358 733 l 358 1061 l 903 1061 l 903 1264 l 126 1264 l 126 0 l 903 0 l 903 203 l 358 203 l 358 563 l 801 563 z m 226 1353 l 801 1353 l 801 1517 l 226 1517 z "},"Ę":{"ha":1029,"x_min":0,"x_max":0,"o":"m 801 733 l 358 733 l 358 1061 l 903 1061 l 903 1264 l 126 1264 l 126 0 l 429 0 l 429 -258 l 601 -258 l 601 0 l 903 0 l 903 203 l 358 203 l 358 563 l 801 563 z "},"Ɛ":{"ha":908,"x_min":0,"x_max":0,"o":"m 279 0 l 828 0 l 828 204 l 328 204 l 324 214 l 324 549 l 325 551 l 757 551 l 757 732 l 324 732 l 324 1057 l 328 1061 l 829 1061 l 829 1264 l 279 1264 l 92 1075 l 92 761 l 243 642 l 92 519 l 92 194 z "},"Ǝ":{"ha":1029,"x_min":0,"x_max":0,"o":"m 228 733 l 228 563 l 671 563 l 671 203 l 126 203 l 126 0 l 903 0 l 903 1264 l 126 1264 l 126 1061 l 671 1061 l 671 733 z "},"Ʃ":{"ha":1047,"x_min":0,"x_max":0,"o":"m 99 1264 l 99 1158 l 97 1158 l 97 775 l 240 629 l 97 482 l 97 99 l 99 99 l 99 0 l 975 0 l 975 203 l 329 203 l 329 518 l 331 526 l 667 526 l 667 731 l 331 731 l 329 739 l 329 1061 l 975 1061 l 975 1264 z "},"Ẽ":{"ha":1029,"x_min":0,"x_max":0,"o":"m 801 733 l 358 733 l 358 1061 l 903 1061 l 903 1264 l 126 1264 l 126 0 l 903 0 l 903 203 l 358 203 l 358 563 l 801 563 z m 226 1353 l 801 1353 l 801 1517 l 226 1517 z "},"Ʒ":{"ha":1047,"x_min":0,"x_max":0,"o":"m 949 1264 l 72 1264 l 72 1061 l 718 1061 l 718 739 l 717 731 l 381 731 l 381 526 l 717 526 l 718 518 l 718 203 l 72 203 l 72 0 l 949 0 l 949 99 l 950 99 l 950 482 l 807 629 l 950 775 l 950 1158 l 949 1158 z "},"Ǯ":{"ha":1047,"x_min":0,"x_max":0,"o":"m 949 1264 l 72 1264 l 72 1061 l 718 1061 l 718 739 l 717 731 l 381 731 l 381 526 l 717 526 l 718 518 l 718 203 l 72 203 l 72 0 l 949 0 l 949 99 l 950 99 l 950 482 l 807 629 l 950 775 l 950 1158 l 949 1158 z m 288 1406 l 511 1310 l 511 1307 l 515 1308 l 518 1307 l 518 1310 l 742 1406 l 742 1532 l 515 1435 l 288 1532 z "},"F":{"ha":975,"x_min":0,"x_max":0,"o":"m 126 1264 l 126 0 l 358 0 l 358 496 l 804 496 l 804 699 l 358 699 l 358 1061 l 903 1061 l 903 1264 z "},"G":{"ha":1047,"x_min":0,"x_max":0,"o":"m 358 213 l 358 1051 l 360 1060 l 694 1060 l 721 1024 l 721 726 l 921 726 l 921 1053 l 721 1264 l 368 1264 l 126 1015 l 126 249 l 368 0 l 721 0 l 921 211 l 921 625 l 532 625 l 532 469 l 721 469 l 721 236 l 694 204 l 360 204 z "},"Ğ":{"ha":1047,"x_min":0,"x_max":0,"o":"m 358 213 l 358 1051 l 360 1060 l 694 1060 l 721 1024 l 721 726 l 921 726 l 921 1053 l 721 1264 l 368 1264 l 126 1015 l 126 249 l 368 0 l 721 0 l 921 211 l 921 625 l 532 625 l 532 469 l 721 469 l 721 236 l 694 204 l 360 204 z m 360 1297 l 733 1297 l 733 1494 l 625 1494 l 625 1406 l 468 1406 l 468 1494 l 360 1494 z "},"Ǧ":{"ha":1047,"x_min":0,"x_max":0,"o":"m 358 213 l 358 1051 l 360 1060 l 694 1060 l 721 1024 l 721 726 l 921 726 l 921 1053 l 721 1264 l 368 1264 l 126 1015 l 126 249 l 368 0 l 721 0 l 921 211 l 921 625 l 532 625 l 532 469 l 721 469 l 721 236 l 694 204 l 360 204 z m 321 1406 l 544 1310 l 544 1307 l 549 1308 l 551 1307 l 551 1310 l 775 1406 l 775 1532 l 549 1435 l 321 1532 z "},"Ĝ":{"ha":1047,"x_min":0,"x_max":0,"o":"m 358 213 l 358 1051 l 360 1060 l 694 1060 l 721 1024 l 721 726 l 921 726 l 921 1053 l 721 1264 l 368 1264 l 126 1015 l 126 249 l 368 0 l 721 0 l 921 211 l 921 625 l 532 625 l 532 469 l 721 469 l 721 236 l 694 204 l 360 204 z m 321 1310 l 549 1407 l 775 1310 l 775 1436 l 551 1532 l 551 1535 l 549 1533 l 544 1535 l 544 1532 l 321 1436 z "},"Ģ":{"ha":1047,"x_min":0,"x_max":0,"o":"m 358 213 l 358 1051 l 360 1060 l 694 1060 l 721 1024 l 721 726 l 921 726 l 921 1053 l 721 1264 l 368 1264 l 126 1015 l 126 249 l 368 0 l 461 0 l 461 -258 l 633 -258 l 633 0 l 721 0 l 921 211 l 921 625 l 532 625 l 532 469 l 721 469 l 721 236 l 694 204 l 360 204 z "},"Ġ":{"ha":1047,"x_min":0,"x_max":0,"o":"m 358 213 l 358 1051 l 360 1060 l 694 1060 l 721 1024 l 721 726 l 921 726 l 921 1053 l 721 1264 l 368 1264 l 126 1015 l 126 249 l 368 0 l 721 0 l 921 211 l 921 625 l 532 625 l 532 469 l 721 469 l 721 236 l 694 204 l 360 204 z m 444 1350 l 650 1350 l 650 1551 l 444 1551 z "},"Ḡ":{"ha":1047,"x_min":0,"x_max":0,"o":"m 358 213 l 358 1051 l 360 1060 l 694 1060 l 721 1024 l 721 726 l 921 726 l 921 1053 l 721 1264 l 368 1264 l 126 1015 l 126 249 l 368 0 l 721 0 l 921 211 l 921 625 l 532 625 l 532 469 l 721 469 l 721 236 l 694 204 l 360 204 z m 258 1353 l 833 1353 l 833 1517 l 258 1517 z "},"Ǥ":{"ha":1047,"x_min":0,"x_max":0,"o":"m 358 213 l 358 1051 l 360 1060 l 694 1060 l 721 1024 l 721 726 l 921 726 l 921 1053 l 721 1264 l 368 1264 l 126 1015 l 126 249 l 368 0 l 721 0 l 921 211 l 921 286 l 1039 286 l 1039 419 l 921 419 l 921 625 l 532 625 l 532 469 l 721 469 l 721 419 l 526 419 l 526 286 l 721 286 l 721 236 l 694 204 l 360 204 z "},"H":{"ha":1078,"x_min":0,"x_max":0,"o":"m 719 1264 l 719 735 l 358 735 l 358 1264 l 126 1264 l 126 0 l 358 0 l 358 532 l 719 532 l 719 0 l 951 0 l 951 1264 z "},"Ħ":{"ha":1078,"x_min":0,"x_max":0,"o":"m 719 1264 l 719 1072 l 358 1072 l 358 1264 l 126 1264 l 126 0 l 358 0 l 358 532 l 719 532 l 719 0 l 951 0 l 951 1264 z m 358 735 l 358 893 l 719 893 l 719 735 z "},"Ḫ":{"ha":1078,"x_min":0,"x_max":0,"o":"m 719 1264 l 719 735 l 358 735 l 358 1264 l 126 1264 l 126 0 l 358 0 l 358 532 l 719 532 l 719 0 l 951 0 l 951 1264 z m 353 -225 l 726 -225 l 726 -28 l 618 -28 l 618 -117 l 461 -117 l 461 -28 l 353 -28 z "},"Ĥ":{"ha":1078,"x_min":0,"x_max":0,"o":"m 719 1264 l 719 735 l 358 735 l 358 1264 l 126 1264 l 126 0 l 358 0 l 358 532 l 719 532 l 719 0 l 951 0 l 951 1264 z m 314 1310 l 542 1407 l 768 1310 l 768 1436 l 544 1532 l 544 1535 l 542 1533 l 538 1535 l 538 1532 l 314 1436 z "},"Ḥ":{"ha":1078,"x_min":0,"x_max":0,"o":"m 719 1264 l 719 735 l 358 735 l 358 1264 l 126 1264 l 126 0 l 358 0 l 358 532 l 719 532 l 719 0 l 951 0 l 951 1264 z m 438 -287 l 643 -287 l 643 -86 l 438 -86 z "},"I":{"ha":485,"x_min":0,"x_max":0,"o":"m 126 1264 l 126 0 l 358 0 l 358 1264 z "},"Ĳ":{"ha":1600,"x_min":0,"x_max":0,"o":"m 126 1264 l 126 0 l 358 0 l 358 1264 z m 611 249 l 853 0 l 1232 0 l 1474 249 l 1474 1264 l 1242 1264 l 1242 213 l 1240 204 l 844 204 l 843 213 l 843 632 l 611 632 z "},"Í":{"ha":485,"x_min":0,"x_max":0,"o":"m 126 1264 l 126 0 l 358 0 l 358 1264 z m 64 1296 l 532 1394 l 532 1521 l 64 1422 z "},"Ǐ":{"ha":485,"x_min":0,"x_max":0,"o":"m 126 1264 l 126 0 l 358 0 l 358 1264 z m 17 1406 l 240 1310 l 240 1307 l 244 1308 l 247 1307 l 247 1310 l 471 1406 l 471 1532 l 244 1435 l 17 1532 z "},"Î":{"ha":485,"x_min":0,"x_max":0,"o":"m 126 1264 l 126 0 l 358 0 l 358 1264 z m 17 1310 l 244 1407 l 471 1310 l 471 1436 l 247 1532 l 247 1535 l 244 1533 l 240 1535 l 240 1532 l 17 1436 z "},"Ï":{"ha":485,"x_min":0,"x_max":0,"o":"m 126 1264 l 126 0 l 358 0 l 358 1264 z m -19 1350 l 186 1350 l 186 1551 l -19 1551 z m 297 1350 l 503 1350 l 503 1551 l 297 1551 z "},"Ḯ":{"ha":485,"x_min":0,"x_max":0,"o":"m 126 1264 l 126 0 l 358 0 l 358 1264 z m -19 1350 l 186 1350 l 186 1551 l -19 1551 z m 64 1583 l 532 1682 l 532 1808 l 64 1710 z m 297 1350 l 503 1350 l 503 1551 l 297 1551 z "},"İ":{"ha":485,"x_min":0,"x_max":0,"o":"m 126 1264 l 126 0 l 358 0 l 358 1264 z m 140 1350 l 346 1350 l 346 1551 l 140 1551 z "},"Ị":{"ha":485,"x_min":0,"x_max":0,"o":"m 126 1264 l 126 0 l 358 0 l 358 1264 z m 140 -287 l 346 -287 l 346 -86 l 140 -86 z "},"Ì":{"ha":485,"x_min":0,"x_max":0,"o":"m 126 1264 l 126 0 l 358 0 l 358 1264 z m -46 1394 l 422 1296 l 422 1422 l -46 1521 z "},"Ỉ":{"ha":485,"x_min":0,"x_max":0,"o":"m 126 1264 l 126 0 l 358 0 l 358 1264 z m 175 1332 l 313 1332 l 313 1576 l 175 1576 z "},"Ī":{"ha":485,"x_min":0,"x_max":0,"o":"m 126 1264 l 126 0 l 358 0 l 358 1264 z m -46 1353 l 529 1353 l 529 1517 l -46 1517 z "},"Į":{"ha":485,"x_min":0,"x_max":0,"o":"m 126 1264 l 126 0 l 157 0 l 157 -258 l 329 -258 l 329 0 l 358 0 l 358 1264 z "},"Ĩ":{"ha":485,"x_min":0,"x_max":0,"o":"m 126 1264 l 126 0 l 358 0 l 358 1264 z m -46 1353 l 529 1353 l 529 1517 l -46 1517 z "},"J":{"ha":1115,"x_min":0,"x_max":0,"o":"m 358 632 l 126 632 l 126 249 l 368 0 l 747 0 l 989 249 l 989 1264 l 757 1264 l 757 213 l 756 204 l 360 204 l 358 213 z "},"Ĵ":{"ha":1115,"x_min":0,"x_max":0,"o":"m 358 632 l 126 632 l 126 249 l 368 0 l 747 0 l 989 249 l 989 1264 l 757 1264 l 757 213 l 756 204 l 360 204 l 358 213 z m 644 1310 l 872 1407 l 1099 1310 l 1099 1436 l 875 1532 l 875 1535 l 872 1533 l 868 1535 l 868 1532 l 644 1436 z "},"K":{"ha":1043,"x_min":0,"x_max":0,"o":"m 126 1264 l 126 0 l 358 0 l 358 553 l 682 553 l 683 547 l 683 0 l 915 0 l 915 519 l 768 635 l 915 749 l 915 1264 l 683 1264 l 683 722 l 682 715 l 358 715 l 358 1264 z "},"Ǩ":{"ha":1043,"x_min":0,"x_max":0,"o":"m 126 1264 l 126 0 l 358 0 l 358 553 l 682 553 l 683 547 l 683 0 l 915 0 l 915 519 l 768 635 l 915 749 l 915 1264 l 683 1264 l 683 722 l 682 715 l 358 715 l 358 1264 z m 296 1406 l 519 1310 l 519 1307 l 524 1308 l 526 1307 l 526 1310 l 750 1406 l 750 1532 l 524 1435 l 296 1532 z "},"Ķ":{"ha":1043,"x_min":0,"x_max":0,"o":"m 126 1264 l 126 0 l 358 0 l 358 553 l 682 553 l 683 547 l 683 0 l 915 0 l 915 519 l 768 635 l 915 749 l 915 1264 l 683 1264 l 683 722 l 682 715 l 358 715 l 358 1264 z m 436 -258 l 608 -258 l 608 49 l 436 49 z "},"Ḵ":{"ha":1043,"x_min":0,"x_max":0,"o":"m 126 1264 l 126 0 l 358 0 l 358 553 l 682 553 l 683 547 l 683 0 l 915 0 l 915 519 l 768 635 l 915 749 l 915 1264 l 683 1264 l 683 722 l 682 715 l 358 715 l 358 1264 z m 236 -253 l 811 -253 l 811 -89 l 236 -89 z "},"L":{"ha":975,"x_min":0,"x_max":0,"o":"m 126 1264 l 126 0 l 903 0 l 903 203 l 358 203 l 358 1264 z "},"Ĺ":{"ha":975,"x_min":0,"x_max":0,"o":"m 126 1264 l 126 0 l 903 0 l 903 203 l 358 203 l 358 1264 z m 275 1296 l 743 1394 l 743 1521 l 275 1422 z "},"Ľ":{"ha":975,"x_min":0,"x_max":0,"o":"m 126 1264 l 126 0 l 903 0 l 903 203 l 358 203 l 358 1264 z m 658 974 l 831 974 l 831 1281 l 658 1281 z "},"Ḽ":{"ha":975,"x_min":0,"x_max":0,"o":"m 126 1264 l 126 0 l 903 0 l 903 203 l 358 203 l 358 1264 z m 260 -268 l 488 -171 l 714 -268 l 714 -142 l 490 -46 l 490 -43 l 488 -44 l 483 -43 l 483 -46 l 260 -142 z "},"Ļ":{"ha":975,"x_min":0,"x_max":0,"o":"m 126 1264 l 126 0 l 401 0 l 401 -258 l 574 -258 l 574 0 l 903 0 l 903 203 l 358 203 l 358 1264 z "},"Ḷ":{"ha":975,"x_min":0,"x_max":0,"o":"m 126 1264 l 126 0 l 903 0 l 903 203 l 358 203 l 358 1264 z m 385 -287 l 590 -287 l 590 -86 l 385 -86 z "},"Ḹ":{"ha":975,"x_min":0,"x_max":0,"o":"m 126 1264 l 126 0 l 903 0 l 903 203 l 358 203 l 358 1264 z m 165 1353 l 740 1353 l 740 1517 l 165 1517 z m 385 -287 l 590 -287 l 590 -86 l 385 -86 z "},"Ḻ":{"ha":975,"x_min":0,"x_max":0,"o":"m 126 1264 l 126 0 l 903 0 l 903 203 l 358 203 l 358 1264 z m 201 -253 l 776 -253 l 776 -89 l 201 -89 z "},"Ł":{"ha":975,"x_min":0,"x_max":0,"o":"m 126 1264 l 126 740 l 32 718 l 32 540 l 126 563 l 126 0 l 903 0 l 903 203 l 358 203 l 358 615 l 639 679 l 639 857 l 358 793 l 358 1264 z "},"M":{"ha":1536,"x_min":0,"x_max":0,"o":"m 132 1029 l 132 14 l 329 14 l 329 1065 l 331 1074 l 668 1074 l 669 1065 l 669 15 l 678 15 l 678 14 l 875 14 l 875 1065 l 876 1074 l 1214 1074 l 1215 1065 l 1215 15 l 1413 15 l 1413 1029 l 1207 1278 l 883 1278 l 772 1143 l 661 1278 l 338 1278 z "},"Ḿ":{"ha":1536,"x_min":0,"x_max":0,"o":"m 132 1029 l 132 14 l 329 14 l 329 1065 l 331 1074 l 668 1074 l 669 1065 l 669 15 l 678 15 l 678 14 l 875 14 l 875 1065 l 876 1074 l 1214 1074 l 1215 1065 l 1215 15 l 1413 15 l 1413 1029 l 1207 1278 l 883 1278 l 772 1143 l 661 1278 l 338 1278 z m 622 1296 l 1090 1394 l 1090 1521 l 622 1422 z "},"Ṁ":{"ha":1536,"x_min":0,"x_max":0,"o":"m 132 1029 l 132 14 l 329 14 l 329 1065 l 331 1074 l 668 1074 l 669 1065 l 669 15 l 678 15 l 678 14 l 875 14 l 875 1065 l 876 1074 l 1214 1074 l 1215 1065 l 1215 15 l 1413 15 l 1413 1029 l 1207 1278 l 883 1278 l 772 1143 l 661 1278 l 338 1278 z m 699 1350 l 904 1350 l 904 1551 l 699 1551 z "},"Ṃ":{"ha":1536,"x_min":0,"x_max":0,"o":"m 132 1029 l 132 14 l 329 14 l 329 1065 l 331 1074 l 668 1074 l 669 1065 l 669 15 l 678 15 l 678 14 l 875 14 l 875 1065 l 876 1074 l 1214 1074 l 1215 1065 l 1215 15 l 1413 15 l 1413 1029 l 1207 1278 l 883 1278 l 772 1143 l 661 1278 l 338 1278 z m 699 -287 l 904 -287 l 904 -86 l 699 -86 z "},"N":{"ha":1078,"x_min":0,"x_max":0,"o":"m 126 1264 l 126 0 l 358 0 l 358 725 l 718 294 l 718 0 l 950 0 l 950 1264 l 718 1264 l 718 575 l 358 1003 l 358 1264 z "},"Ń":{"ha":1078,"x_min":0,"x_max":0,"o":"m 126 1264 l 126 0 l 358 0 l 358 725 l 718 294 l 718 0 l 950 0 l 950 1264 l 718 1264 l 718 575 l 358 1003 l 358 1264 z m 360 1296 l 828 1394 l 828 1521 l 360 1422 z "},"Ň":{"ha":1078,"x_min":0,"x_max":0,"o":"m 126 1264 l 126 0 l 358 0 l 358 725 l 718 294 l 718 0 l 950 0 l 950 1264 l 718 1264 l 718 575 l 358 1003 l 358 1264 z m 313 1406 l 536 1310 l 536 1307 l 540 1308 l 543 1307 l 543 1310 l 767 1406 l 767 1532 l 540 1435 l 313 1532 z "},"Ṋ":{"ha":1078,"x_min":0,"x_max":0,"o":"m 126 1264 l 126 0 l 358 0 l 358 725 l 718 294 l 718 0 l 950 0 l 950 1264 l 718 1264 l 718 575 l 358 1003 l 358 1264 z m 311 -268 l 539 -171 l 765 -268 l 765 -142 l 542 -46 l 542 -43 l 539 -44 l 535 -43 l 535 -46 l 311 -142 z "},"Ņ":{"ha":1078,"x_min":0,"x_max":0,"o":"m 126 1264 l 126 0 l 358 0 l 358 725 l 718 294 l 718 0 l 950 0 l 950 1264 l 718 1264 l 718 575 l 358 1003 l 358 1264 z m 453 -258 l 625 -258 l 625 49 l 453 49 z "},"Ṅ":{"ha":1078,"x_min":0,"x_max":0,"o":"m 126 1264 l 126 0 l 358 0 l 358 725 l 718 294 l 718 0 l 950 0 l 950 1264 l 718 1264 l 718 575 l 358 1003 l 358 1264 z m 436 1350 l 642 1350 l 642 1551 l 436 1551 z "},"Ṇ":{"ha":1078,"x_min":0,"x_max":0,"o":"m 126 1264 l 126 0 l 358 0 l 358 725 l 718 294 l 718 0 l 950 0 l 950 1264 l 718 1264 l 718 575 l 358 1003 l 358 1264 z m 436 -287 l 642 -287 l 642 -86 l 436 -86 z "},"Ṉ":{"ha":1078,"x_min":0,"x_max":0,"o":"m 126 1264 l 126 0 l 358 0 l 358 725 l 718 294 l 718 0 l 950 0 l 950 1264 l 718 1264 l 718 575 l 358 1003 l 358 1264 z m 253 -253 l 828 -253 l 828 -89 l 253 -89 z "},"Ñ":{"ha":1078,"x_min":0,"x_max":0,"o":"m 126 1264 l 126 0 l 358 0 l 358 725 l 718 294 l 718 0 l 950 0 l 950 1264 l 718 1264 l 718 575 l 358 1003 l 358 1264 z m 250 1353 l 825 1353 l 825 1517 l 250 1517 z "},"Ŋ":{"ha":1078,"x_min":0,"x_max":0,"o":"m 126 1264 l 126 0 l 358 0 l 358 725 l 718 294 l 718 0 l 950 0 l 950 1264 l 718 1264 l 718 575 l 358 1003 l 358 1264 z "},"O":{"ha":1115,"x_min":0,"x_max":0,"o":"m 358 213 l 358 1051 l 360 1060 l 756 1060 l 757 1051 l 757 213 l 756 204 l 360 204 z m 126 249 l 368 0 l 747 0 l 989 249 l 989 1015 l 747 1264 l 368 1264 l 126 1015 z "},"Ó":{"ha":1115,"x_min":0,"x_max":0,"o":"m 358 213 l 358 1051 l 360 1060 l 756 1060 l 757 1051 l 757 213 l 756 204 l 360 204 z m 126 249 l 368 0 l 747 0 l 989 249 l 989 1015 l 747 1264 l 368 1264 l 126 1015 z m 378 1296 l 846 1394 l 846 1521 l 378 1422 z "},"Ǒ":{"ha":1115,"x_min":0,"x_max":0,"o":"m 358 213 l 358 1051 l 360 1060 l 756 1060 l 757 1051 l 757 213 l 756 204 l 360 204 z m 126 249 l 368 0 l 747 0 l 989 249 l 989 1015 l 747 1264 l 368 1264 l 126 1015 z m 331 1406 l 554 1310 l 554 1307 l 558 1308 l 561 1307 l 561 1310 l 785 1406 l 785 1532 l 558 1435 l 331 1532 z "},"Ô":{"ha":1115,"x_min":0,"x_max":0,"o":"m 358 213 l 358 1051 l 360 1060 l 756 1060 l 757 1051 l 757 213 l 756 204 l 360 204 z m 126 249 l 368 0 l 747 0 l 989 249 l 989 1015 l 747 1264 l 368 1264 l 126 1015 z m 331 1310 l 558 1407 l 785 1310 l 785 1436 l 561 1532 l 561 1535 l 558 1533 l 554 1535 l 554 1532 l 331 1436 z "},"Ố":{"ha":1115,"x_min":0,"x_max":0,"o":"m 358 213 l 358 1051 l 360 1060 l 756 1060 l 757 1051 l 757 213 l 756 204 l 360 204 z m 126 249 l 368 0 l 747 0 l 989 249 l 989 1015 l 747 1264 l 368 1264 l 126 1015 z m 331 1310 l 558 1407 l 785 1310 l 785 1436 l 561 1532 l 561 1535 l 558 1533 l 554 1535 l 554 1532 l 331 1436 z m 378 1567 l 846 1665 l 846 1792 l 378 1693 z "},"Ộ":{"ha":1115,"x_min":0,"x_max":0,"o":"m 358 213 l 358 1051 l 360 1060 l 756 1060 l 757 1051 l 757 213 l 756 204 l 360 204 z m 126 249 l 368 0 l 747 0 l 989 249 l 989 1015 l 747 1264 l 368 1264 l 126 1015 z m 331 1310 l 558 1407 l 785 1310 l 785 1436 l 561 1532 l 561 1535 l 558 1533 l 554 1535 l 554 1532 l 331 1436 z m 454 -287 l 660 -287 l 660 -86 l 454 -86 z "},"Ồ":{"ha":1115,"x_min":0,"x_max":0,"o":"m 358 213 l 358 1051 l 360 1060 l 756 1060 l 757 1051 l 757 213 l 756 204 l 360 204 z m 126 249 l 368 0 l 747 0 l 989 249 l 989 1015 l 747 1264 l 368 1264 l 126 1015 z m 269 1665 l 738 1567 l 738 1693 l 269 1792 z m 331 1310 l 558 1407 l 785 1310 l 785 1436 l 561 1532 l 561 1535 l 558 1533 l 554 1535 l 554 1532 l 331 1436 z "},"Ổ":{"ha":1115,"x_min":0,"x_max":0,"o":"m 358 213 l 358 1051 l 360 1060 l 756 1060 l 757 1051 l 757 213 l 756 204 l 360 204 z m 126 249 l 368 0 l 747 0 l 989 249 l 989 1015 l 747 1264 l 368 1264 l 126 1015 z m 331 1310 l 558 1407 l 785 1310 l 785 1436 l 561 1532 l 561 1535 l 558 1533 l 554 1535 l 554 1532 l 331 1436 z m 490 1603 l 628 1603 l 628 1847 l 490 1847 z "},"Ỗ":{"ha":1115,"x_min":0,"x_max":0,"o":"m 358 213 l 358 1051 l 360 1060 l 756 1060 l 757 1051 l 757 213 l 756 204 l 360 204 z m 126 249 l 368 0 l 747 0 l 989 249 l 989 1015 l 747 1264 l 368 1264 l 126 1015 z m 268 1624 l 844 1624 l 844 1788 l 268 1788 z m 331 1310 l 558 1407 l 785 1310 l 785 1436 l 561 1532 l 561 1535 l 558 1533 l 554 1535 l 554 1532 l 331 1436 z "},"Ö":{"ha":1115,"x_min":0,"x_max":0,"o":"m 358 213 l 358 1051 l 360 1060 l 756 1060 l 757 1051 l 757 213 l 756 204 l 360 204 z m 126 249 l 368 0 l 747 0 l 989 249 l 989 1015 l 747 1264 l 368 1264 l 126 1015 z m 294 1350 l 500 1350 l 500 1551 l 294 1551 z m 611 1350 l 817 1350 l 817 1551 l 611 1551 z "},"Ȫ":{"ha":1115,"x_min":0,"x_max":0,"o":"m 358 213 l 358 1051 l 360 1060 l 756 1060 l 757 1051 l 757 213 l 756 204 l 360 204 z m 126 249 l 368 0 l 747 0 l 989 249 l 989 1015 l 747 1264 l 368 1264 l 126 1015 z m 268 1640 l 843 1640 l 843 1804 l 268 1804 z m 294 1350 l 500 1350 l 500 1551 l 294 1551 z m 611 1350 l 817 1350 l 817 1551 l 611 1551 z "},"Ọ":{"ha":1115,"x_min":0,"x_max":0,"o":"m 358 213 l 358 1051 l 360 1060 l 756 1060 l 757 1051 l 757 213 l 756 204 l 360 204 z m 126 249 l 368 0 l 747 0 l 989 249 l 989 1015 l 747 1264 l 368 1264 l 126 1015 z m 454 -287 l 660 -287 l 660 -86 l 454 -86 z "},"Ò":{"ha":1115,"x_min":0,"x_max":0,"o":"m 358 213 l 358 1051 l 360 1060 l 756 1060 l 757 1051 l 757 213 l 756 204 l 360 204 z m 126 249 l 368 0 l 747 0 l 989 249 l 989 1015 l 747 1264 l 368 1264 l 126 1015 z m 268 1394 l 736 1296 l 736 1422 l 268 1521 z "},"Ỏ":{"ha":1115,"x_min":0,"x_max":0,"o":"m 358 213 l 358 1051 l 360 1060 l 756 1060 l 757 1051 l 757 213 l 756 204 l 360 204 z m 126 249 l 368 0 l 747 0 l 989 249 l 989 1015 l 747 1264 l 368 1264 l 126 1015 z m 489 1332 l 626 1332 l 626 1576 l 489 1576 z "},"Ơ":{"ha":1115,"x_min":0,"x_max":0,"o":"m 358 213 l 358 1051 l 360 1060 l 756 1060 l 757 1051 l 757 213 l 756 204 l 360 204 z m 126 249 l 368 0 l 747 0 l 989 249 l 989 1015 l 1169 1399 l 1031 1399 l 894 1113 l 747 1264 l 368 1264 l 126 1015 z "},"Ớ":{"ha":1115,"x_min":0,"x_max":0,"o":"m 358 213 l 358 1051 l 360 1060 l 756 1060 l 757 1051 l 757 213 l 756 204 l 360 204 z m 126 249 l 368 0 l 747 0 l 989 249 l 989 1015 l 1169 1399 l 1031 1399 l 894 1113 l 747 1264 l 368 1264 l 126 1015 z m 378 1296 l 846 1394 l 846 1521 l 378 1422 z "},"Ợ":{"ha":1115,"x_min":0,"x_max":0,"o":"m 358 213 l 358 1051 l 360 1060 l 756 1060 l 757 1051 l 757 213 l 756 204 l 360 204 z m 126 249 l 368 0 l 747 0 l 989 249 l 989 1015 l 1169 1399 l 1031 1399 l 894 1113 l 747 1264 l 368 1264 l 126 1015 z m 454 -287 l 660 -287 l 660 -86 l 454 -86 z "},"Ờ":{"ha":1115,"x_min":0,"x_max":0,"o":"m 358 213 l 358 1051 l 360 1060 l 756 1060 l 757 1051 l 757 213 l 756 204 l 360 204 z m 126 249 l 368 0 l 747 0 l 989 249 l 989 1015 l 1169 1399 l 1031 1399 l 894 1113 l 747 1264 l 368 1264 l 126 1015 z m 268 1394 l 736 1296 l 736 1422 l 268 1521 z "},"Ở":{"ha":1115,"x_min":0,"x_max":0,"o":"m 358 213 l 358 1051 l 360 1060 l 756 1060 l 757 1051 l 757 213 l 756 204 l 360 204 z m 126 249 l 368 0 l 747 0 l 989 249 l 989 1015 l 1169 1399 l 1031 1399 l 894 1113 l 747 1264 l 368 1264 l 126 1015 z m 489 1332 l 626 1332 l 626 1576 l 489 1576 z "},"Ỡ":{"ha":1115,"x_min":0,"x_max":0,"o":"m 358 213 l 358 1051 l 360 1060 l 756 1060 l 757 1051 l 757 213 l 756 204 l 360 204 z m 126 249 l 368 0 l 747 0 l 989 249 l 989 1015 l 1169 1399 l 1031 1399 l 894 1113 l 747 1264 l 368 1264 l 126 1015 z m 268 1353 l 843 1353 l 843 1517 l 268 1517 z "},"Ő":{"ha":1115,"x_min":0,"x_max":0,"o":"m 358 213 l 358 1051 l 360 1060 l 756 1060 l 757 1051 l 757 213 l 756 204 l 360 204 z m 126 249 l 368 0 l 747 0 l 989 249 l 989 1015 l 747 1264 l 368 1264 l 126 1015 z m 289 1296 l 549 1394 l 549 1521 l 289 1422 z m 567 1296 l 825 1394 l 825 1521 l 567 1422 z "},"Ō":{"ha":1115,"x_min":0,"x_max":0,"o":"m 358 213 l 358 1051 l 360 1060 l 756 1060 l 757 1051 l 757 213 l 756 204 l 360 204 z m 126 249 l 368 0 l 747 0 l 989 249 l 989 1015 l 747 1264 l 368 1264 l 126 1015 z m 268 1353 l 843 1353 l 843 1517 l 268 1517 z "},"Ṓ":{"ha":1115,"x_min":0,"x_max":0,"o":"m 358 213 l 358 1051 l 360 1060 l 756 1060 l 757 1051 l 757 213 l 756 204 l 360 204 z m 126 249 l 368 0 l 747 0 l 989 249 l 989 1015 l 747 1264 l 368 1264 l 126 1015 z m 268 1353 l 843 1353 l 843 1517 l 268 1517 z m 378 1531 l 846 1629 l 846 1756 l 378 1657 z "},"Ṑ":{"ha":1115,"x_min":0,"x_max":0,"o":"m 358 213 l 358 1051 l 360 1060 l 756 1060 l 757 1051 l 757 213 l 756 204 l 360 204 z m 126 249 l 368 0 l 747 0 l 989 249 l 989 1015 l 747 1264 l 368 1264 l 126 1015 z m 268 1353 l 843 1353 l 843 1517 l 268 1517 z m 268 1629 l 736 1531 l 736 1657 l 268 1756 z "},"Ɔ":{"ha":1047,"x_min":0,"x_max":0,"o":"m 689 1051 l 689 213 l 688 204 l 353 204 l 326 236 l 326 538 l 126 538 l 126 211 l 326 0 l 679 0 l 921 249 l 921 1015 l 679 1264 l 326 1264 l 126 1053 l 126 726 l 326 726 l 326 1024 l 353 1060 l 688 1060 z "},"Ø":{"ha":1115,"x_min":0,"x_max":0,"o":"m 358 443 l 358 1051 l 360 1060 l 628 1060 z m 126 249 l 228 144 l 165 0 l 747 0 l 989 249 l 989 1015 l 886 1121 l 949 1264 l 368 1264 l 126 1015 z m 486 204 l 757 825 l 757 213 l 756 204 z "},"Ǿ":{"ha":1115,"x_min":0,"x_max":0,"o":"m 358 443 l 358 1051 l 360 1060 l 628 1060 z m 126 249 l 228 144 l 165 0 l 747 0 l 989 249 l 989 1015 l 886 1121 l 949 1264 l 368 1264 l 126 1015 z m 381 1296 l 849 1394 l 849 1521 l 381 1422 z m 486 204 l 757 825 l 757 213 l 756 204 z "},"Õ":{"ha":1115,"x_min":0,"x_max":0,"o":"m 358 213 l 358 1051 l 360 1060 l 756 1060 l 757 1051 l 757 213 l 756 204 l 360 204 z m 126 249 l 368 0 l 747 0 l 989 249 l 989 1015 l 747 1264 l 368 1264 l 126 1015 z m 268 1353 l 843 1353 l 843 1517 l 268 1517 z "},"Ṍ":{"ha":1115,"x_min":0,"x_max":0,"o":"m 358 213 l 358 1051 l 360 1060 l 756 1060 l 757 1051 l 757 213 l 756 204 l 360 204 z m 126 249 l 368 0 l 747 0 l 989 249 l 989 1015 l 747 1264 l 368 1264 l 126 1015 z m 268 1353 l 843 1353 l 843 1517 l 268 1517 z m 378 1531 l 846 1629 l 846 1756 l 378 1657 z "},"Œ":{"ha":1660,"x_min":0,"x_max":0,"o":"m 358 213 l 358 1051 l 360 1060 l 756 1060 l 756 204 l 360 204 z m 126 249 l 368 0 l 747 0 l 756 8 l 756 0 l 1532 0 l 1532 203 l 988 203 l 988 247 l 989 249 l 989 563 l 1431 563 l 1431 733 l 989 733 l 989 1015 l 988 1017 l 988 1061 l 1532 1061 l 1532 1264 l 756 1264 l 756 1256 l 747 1264 l 368 1264 l 126 1015 z "},"P":{"ha":1036,"x_min":0,"x_max":0,"o":"m 126 1264 l 126 0 l 358 0 l 358 342 l 668 342 l 910 590 l 910 1015 l 668 1264 z m 358 546 l 358 1060 l 676 1060 l 678 1051 l 678 554 l 676 546 z "},"Þ":{"ha":1050,"x_min":0,"x_max":0,"o":"m 126 1264 l 126 0 l 358 0 l 358 181 l 671 181 l 913 429 l 913 819 l 671 1068 l 358 1068 l 358 1264 z m 358 385 l 358 864 l 679 864 l 681 856 l 681 393 l 679 385 z "},"Q":{"ha":1115,"x_min":0,"x_max":0,"o":"m 358 213 l 358 1051 l 360 1060 l 756 1060 l 757 1051 l 757 213 l 756 204 l 360 204 z m 126 249 l 368 0 l 460 0 l 460 -126 l 656 -126 l 656 0 l 747 0 l 989 249 l 989 1015 l 747 1264 l 368 1264 l 126 1015 z "},"R":{"ha":1043,"x_min":0,"x_max":0,"o":"m 126 1264 l 126 0 l 358 0 l 358 553 l 682 553 l 683 547 l 683 0 l 915 0 l 915 519 l 767 636 l 915 753 l 915 1074 l 728 1264 z m 358 718 l 358 1068 l 681 1068 l 683 1054 l 683 725 l 682 718 z "},"Ŕ":{"ha":1043,"x_min":0,"x_max":0,"o":"m 126 1264 l 126 0 l 358 0 l 358 553 l 682 553 l 683 547 l 683 0 l 915 0 l 915 519 l 767 636 l 915 753 l 915 1074 l 728 1264 z m 343 1296 l 811 1394 l 811 1521 l 343 1422 z m 358 718 l 358 1068 l 681 1068 l 683 1054 l 683 725 l 682 718 z "},"Ř":{"ha":1043,"x_min":0,"x_max":0,"o":"m 126 1264 l 126 0 l 358 0 l 358 553 l 682 553 l 683 547 l 683 0 l 915 0 l 915 519 l 767 636 l 915 753 l 915 1074 l 728 1264 z m 296 1406 l 519 1310 l 519 1307 l 524 1308 l 526 1307 l 526 1310 l 750 1406 l 750 1532 l 524 1435 l 296 1532 z m 358 718 l 358 1068 l 681 1068 l 683 1054 l 683 725 l 682 718 z "},"Ŗ":{"ha":1043,"x_min":0,"x_max":0,"o":"m 126 1264 l 126 0 l 358 0 l 358 553 l 682 553 l 683 547 l 683 0 l 915 0 l 915 519 l 767 636 l 915 753 l 915 1074 l 728 1264 z m 358 718 l 358 1068 l 681 1068 l 683 1054 l 683 725 l 682 718 z m 436 -258 l 608 -258 l 608 49 l 436 49 z "},"Ṝ":{"ha":1043,"x_min":0,"x_max":0,"o":"m 126 1264 l 126 0 l 358 0 l 358 553 l 682 553 l 683 547 l 683 0 l 915 0 l 915 519 l 767 636 l 915 753 l 915 1074 l 728 1264 z m 233 1353 l 808 1353 l 808 1517 l 233 1517 z m 358 718 l 358 1068 l 681 1068 l 683 1054 l 683 725 l 682 718 z m 419 -287 l 625 -287 l 625 -86 l 419 -86 z "},"Ṟ":{"ha":1043,"x_min":0,"x_max":0,"o":"m 126 1264 l 126 0 l 358 0 l 358 553 l 682 553 l 683 547 l 683 0 l 915 0 l 915 519 l 767 636 l 915 753 l 915 1074 l 728 1264 z m 236 -253 l 811 -253 l 811 -89 l 236 -89 z m 358 718 l 358 1068 l 681 1068 l 683 1054 l 683 725 l 682 718 z "},"S":{"ha":1093,"x_min":0,"x_max":0,"o":"m 364 707 l 364 1113 l 365 1118 l 749 1118 l 750 1113 l 750 813 l 956 813 l 956 1086 l 742 1264 l 374 1264 l 139 1088 l 139 732 l 374 557 l 692 557 l 692 575 l 715 575 l 717 569 l 717 163 l 715 157 l 385 157 l 385 156 l 332 156 l 332 482 l 128 482 l 128 190 l 340 0 l 708 0 l 946 190 l 946 483 l 944 483 l 944 544 l 707 718 l 386 718 l 386 700 l 365 700 z "},"Ś":{"ha":1093,"x_min":0,"x_max":0,"o":"m 364 707 l 364 1113 l 365 1118 l 749 1118 l 750 1113 l 750 813 l 956 813 l 956 1086 l 742 1264 l 374 1264 l 139 1088 l 139 732 l 374 557 l 692 557 l 692 575 l 715 575 l 717 569 l 717 163 l 715 157 l 385 157 l 385 156 l 332 156 l 332 482 l 128 482 l 128 190 l 340 0 l 708 0 l 946 190 l 946 483 l 944 483 l 944 544 l 707 718 l 386 718 l 386 700 l 365 700 z m 364 1296 l 832 1394 l 832 1521 l 364 1422 z "},"Ꞌ":{"ha":485,"x_min":0,"x_max":0,"o":"m 126 296 l 358 296 l 358 1278 l 126 1278 z "},"Š":{"ha":1093,"x_min":0,"x_max":0,"o":"m 364 707 l 364 1113 l 365 1118 l 749 1118 l 750 1113 l 750 813 l 956 813 l 956 1086 l 742 1264 l 374 1264 l 139 1088 l 139 732 l 374 557 l 692 557 l 692 575 l 715 575 l 717 569 l 717 163 l 715 157 l 385 157 l 385 156 l 332 156 l 332 482 l 128 482 l 128 190 l 340 0 l 708 0 l 946 190 l 946 483 l 944 483 l 944 544 l 707 718 l 386 718 l 386 700 l 365 700 z m 317 1406 l 540 1310 l 540 1307 l 544 1308 l 547 1307 l 547 1310 l 771 1406 l 771 1532 l 544 1435 l 317 1532 z "},"Ş":{"ha":1093,"x_min":0,"x_max":0,"o":"m 364 707 l 364 1113 l 365 1118 l 749 1118 l 750 1113 l 750 813 l 956 813 l 956 1086 l 742 1264 l 374 1264 l 139 1088 l 139 732 l 374 557 l 692 557 l 692 575 l 715 575 l 717 569 l 717 163 l 715 157 l 385 157 l 385 156 l 332 156 l 332 482 l 128 482 l 128 190 l 340 0 l 457 0 l 457 -258 l 629 -258 l 629 0 l 708 0 l 946 190 l 946 483 l 944 483 l 944 544 l 707 718 l 386 718 l 386 700 l 365 700 z "},"Ŝ":{"ha":1093,"x_min":0,"x_max":0,"o":"m 364 707 l 364 1113 l 365 1118 l 749 1118 l 750 1113 l 750 813 l 956 813 l 956 1086 l 742 1264 l 374 1264 l 139 1088 l 139 732 l 374 557 l 692 557 l 692 575 l 715 575 l 717 569 l 717 163 l 715 157 l 385 157 l 385 156 l 332 156 l 332 482 l 128 482 l 128 190 l 340 0 l 708 0 l 946 190 l 946 483 l 944 483 l 944 544 l 707 718 l 386 718 l 386 700 l 365 700 z m 317 1310 l 544 1407 l 771 1310 l 771 1436 l 547 1532 l 547 1535 l 544 1533 l 540 1535 l 540 1532 l 317 1436 z "},"Ș":{"ha":1093,"x_min":0,"x_max":0,"o":"m 364 707 l 364 1113 l 365 1118 l 749 1118 l 750 1113 l 750 813 l 956 813 l 956 1086 l 742 1264 l 374 1264 l 139 1088 l 139 732 l 374 557 l 692 557 l 692 575 l 715 575 l 717 569 l 717 163 l 715 157 l 385 157 l 385 156 l 332 156 l 332 482 l 128 482 l 128 190 l 340 0 l 457 0 l 457 -258 l 629 -258 l 629 0 l 708 0 l 946 190 l 946 483 l 944 483 l 944 544 l 707 718 l 386 718 l 386 700 l 365 700 z "},"Ṣ":{"ha":1093,"x_min":0,"x_max":0,"o":"m 364 707 l 364 1113 l 365 1118 l 749 1118 l 750 1113 l 750 813 l 956 813 l 956 1086 l 742 1264 l 374 1264 l 139 1088 l 139 732 l 374 557 l 692 557 l 692 575 l 715 575 l 717 569 l 717 163 l 715 157 l 385 157 l 385 156 l 332 156 l 332 482 l 128 482 l 128 190 l 340 0 l 708 0 l 946 190 l 946 483 l 944 483 l 944 544 l 707 718 l 386 718 l 386 700 l 365 700 z m 440 -287 l 646 -287 l 646 -86 l 440 -86 z "},"ẞ":{"ha":1051,"x_min":0,"x_max":0,"o":"m 126 1264 l 126 0 l 358 0 l 358 1061 l 681 1061 l 683 1057 l 683 731 l 682 732 l 503 732 l 503 553 l 682 553 l 683 550 l 683 214 l 681 204 l 496 204 l 496 0 l 729 0 l 917 194 l 917 521 l 767 642 l 917 760 l 917 1075 l 729 1264 z "},"Ə":{"ha":1047,"x_min":0,"x_max":0,"o":"m 689 1051 l 689 213 l 688 204 l 353 204 l 326 236 l 326 469 l 515 469 l 515 625 l 126 625 l 126 211 l 326 0 l 679 0 l 921 249 l 921 1015 l 679 1264 l 326 1264 l 126 1053 l 126 726 l 326 726 l 326 1024 l 353 1060 l 688 1060 z "},"T":{"ha":989,"x_min":0,"x_max":0,"o":"m 915 1264 l 72 1264 l 72 1061 l 378 1061 l 378 0 l 610 0 l 610 1061 l 915 1061 z "},"Ŧ":{"ha":989,"x_min":0,"x_max":0,"o":"m 915 1264 l 72 1264 l 72 1061 l 378 1061 l 378 688 l 185 688 l 185 508 l 378 508 l 378 0 l 610 0 l 610 508 l 789 508 l 789 688 l 610 688 l 610 1061 l 915 1061 z "},"Ť":{"ha":989,"x_min":0,"x_max":0,"o":"m 915 1264 l 72 1264 l 72 1061 l 378 1061 l 378 0 l 610 0 l 610 1061 l 915 1061 z m 269 1406 l 493 1310 l 493 1307 l 497 1308 l 500 1307 l 500 1310 l 724 1406 l 724 1532 l 497 1435 l 269 1532 z "},"Ţ":{"ha":989,"x_min":0,"x_max":0,"o":"m 915 1264 l 72 1264 l 72 1061 l 378 1061 l 378 0 l 410 0 l 410 -258 l 582 -258 l 582 0 l 610 0 l 610 1061 l 915 1061 z "},"Ṱ":{"ha":989,"x_min":0,"x_max":0,"o":"m 915 1264 l 72 1264 l 72 1061 l 378 1061 l 378 0 l 610 0 l 610 1061 l 915 1061 z m 268 -268 l 496 -171 l 722 -268 l 722 -142 l 499 -46 l 499 -43 l 496 -44 l 492 -43 l 492 -46 l 268 -142 z "},"Ț":{"ha":989,"x_min":0,"x_max":0,"o":"m 915 1264 l 72 1264 l 72 1061 l 378 1061 l 378 0 l 410 0 l 410 -258 l 582 -258 l 582 0 l 610 0 l 610 1061 l 915 1061 z "},"Ṭ":{"ha":989,"x_min":0,"x_max":0,"o":"m 915 1264 l 72 1264 l 72 1061 l 378 1061 l 378 0 l 610 0 l 610 1061 l 915 1061 z m 393 -287 l 599 -287 l 599 -86 l 393 -86 z "},"Ṯ":{"ha":989,"x_min":0,"x_max":0,"o":"m 915 1264 l 72 1264 l 72 1061 l 378 1061 l 378 0 l 610 0 l 610 1061 l 915 1061 z m 210 -253 l 785 -253 l 785 -89 l 210 -89 z "},"U":{"ha":1115,"x_min":0,"x_max":0,"o":"m 126 1264 l 126 249 l 368 0 l 747 0 l 989 249 l 989 1263 l 757 1263 l 757 213 l 756 204 l 360 204 l 358 213 l 358 1264 z "},"Ú":{"ha":1115,"x_min":0,"x_max":0,"o":"m 126 1264 l 126 249 l 368 0 l 747 0 l 989 249 l 989 1263 l 757 1263 l 757 213 l 756 204 l 360 204 l 358 213 l 358 1264 z m 378 1296 l 846 1394 l 846 1521 l 378 1422 z "},"Ʉ":{"ha":1115,"x_min":0,"x_max":0,"o":"m 989 263 l 989 1278 l 757 1278 l 757 871 l 358 871 l 358 1276 l 126 1276 l 126 263 l 368 14 l 747 14 z m 358 226 l 358 663 l 757 663 l 757 226 l 756 218 l 360 218 z "},"Ŭ":{"ha":1115,"x_min":0,"x_max":0,"o":"m 126 1264 l 126 249 l 368 0 l 747 0 l 989 249 l 989 1263 l 757 1263 l 757 213 l 756 204 l 360 204 l 358 213 l 358 1264 z m 369 1297 l 743 1297 l 743 1494 l 635 1494 l 635 1406 l 478 1406 l 478 1494 l 369 1494 z "},"Ǔ":{"ha":1115,"x_min":0,"x_max":0,"o":"m 126 1264 l 126 249 l 368 0 l 747 0 l 989 249 l 989 1263 l 757 1263 l 757 213 l 756 204 l 360 204 l 358 213 l 358 1264 z m 331 1406 l 554 1310 l 554 1307 l 558 1308 l 561 1307 l 561 1310 l 785 1406 l 785 1532 l 558 1435 l 331 1532 z "},"Û":{"ha":1115,"x_min":0,"x_max":0,"o":"m 126 1264 l 126 249 l 368 0 l 747 0 l 989 249 l 989 1263 l 757 1263 l 757 213 l 756 204 l 360 204 l 358 213 l 358 1264 z m 331 1310 l 558 1407 l 785 1310 l 785 1436 l 561 1532 l 561 1535 l 558 1533 l 554 1535 l 554 1532 l 331 1436 z "},"Ü":{"ha":1115,"x_min":0,"x_max":0,"o":"m 126 1264 l 126 249 l 368 0 l 747 0 l 989 249 l 989 1263 l 757 1263 l 757 213 l 756 204 l 360 204 l 358 213 l 358 1264 z m 294 1350 l 500 1350 l 500 1551 l 294 1551 z m 611 1350 l 817 1350 l 817 1551 l 611 1551 z "},"Ǘ":{"ha":1115,"x_min":0,"x_max":0,"o":"m 126 1264 l 126 249 l 368 0 l 747 0 l 989 249 l 989 1263 l 757 1263 l 757 213 l 756 204 l 360 204 l 358 213 l 358 1264 z m 294 1350 l 500 1350 l 500 1551 l 294 1551 z m 378 1583 l 846 1682 l 846 1808 l 378 1710 z m 611 1350 l 817 1350 l 817 1551 l 611 1551 z "},"Ǚ":{"ha":1115,"x_min":0,"x_max":0,"o":"m 126 1264 l 126 249 l 368 0 l 747 0 l 989 249 l 989 1263 l 757 1263 l 757 213 l 756 204 l 360 204 l 358 213 l 358 1264 z m 294 1350 l 500 1350 l 500 1551 l 294 1551 z m 331 1693 l 554 1597 l 554 1594 l 558 1596 l 561 1594 l 561 1597 l 785 1693 l 785 1819 l 558 1722 l 331 1819 z m 611 1350 l 817 1350 l 817 1551 l 611 1551 z "},"Ǜ":{"ha":1115,"x_min":0,"x_max":0,"o":"m 126 1264 l 126 249 l 368 0 l 747 0 l 989 249 l 989 1263 l 757 1263 l 757 213 l 756 204 l 360 204 l 358 213 l 358 1264 z m 268 1682 l 736 1583 l 736 1710 l 268 1808 z m 294 1350 l 500 1350 l 500 1551 l 294 1551 z m 611 1350 l 817 1350 l 817 1551 l 611 1551 z "},"Ǖ":{"ha":1115,"x_min":0,"x_max":0,"o":"m 126 1264 l 126 249 l 368 0 l 747 0 l 989 249 l 989 1263 l 757 1263 l 757 213 l 756 204 l 360 204 l 358 213 l 358 1264 z m 268 1640 l 843 1640 l 843 1804 l 268 1804 z m 294 1350 l 500 1350 l 500 1551 l 294 1551 z m 611 1350 l 817 1350 l 817 1551 l 611 1551 z "},"Ụ":{"ha":1115,"x_min":0,"x_max":0,"o":"m 126 1264 l 126 249 l 368 0 l 747 0 l 989 249 l 989 1263 l 757 1263 l 757 213 l 756 204 l 360 204 l 358 213 l 358 1264 z m 454 -287 l 660 -287 l 660 -86 l 454 -86 z "},"Ù":{"ha":1115,"x_min":0,"x_max":0,"o":"m 126 1264 l 126 249 l 368 0 l 747 0 l 989 249 l 989 1263 l 757 1263 l 757 213 l 756 204 l 360 204 l 358 213 l 358 1264 z m 268 1394 l 736 1296 l 736 1422 l 268 1521 z "},"Ủ":{"ha":1115,"x_min":0,"x_max":0,"o":"m 126 1264 l 126 249 l 368 0 l 747 0 l 989 249 l 989 1263 l 757 1263 l 757 213 l 756 204 l 360 204 l 358 213 l 358 1264 z m 489 1332 l 626 1332 l 626 1576 l 489 1576 z "},"Ư":{"ha":1115,"x_min":0,"x_max":0,"o":"m 126 1264 l 126 249 l 368 0 l 747 0 l 989 249 l 989 1143 l 990 1143 l 1171 1526 l 1032 1526 l 907 1263 l 757 1263 l 757 213 l 756 204 l 360 204 l 358 213 l 358 1264 z "},"Ứ":{"ha":1115,"x_min":0,"x_max":0,"o":"m 126 1264 l 126 249 l 368 0 l 747 0 l 989 249 l 989 1143 l 990 1143 l 1171 1526 l 1032 1526 l 907 1263 l 757 1263 l 757 213 l 756 204 l 360 204 l 358 213 l 358 1264 z m 378 1296 l 846 1394 l 846 1521 l 378 1422 z "},"Ự":{"ha":1115,"x_min":0,"x_max":0,"o":"m 126 1264 l 126 249 l 368 0 l 747 0 l 989 249 l 989 1143 l 990 1143 l 1171 1526 l 1032 1526 l 907 1263 l 757 1263 l 757 213 l 756 204 l 360 204 l 358 213 l 358 1264 z m 454 -287 l 660 -287 l 660 -86 l 454 -86 z "},"Ừ":{"ha":1115,"x_min":0,"x_max":0,"o":"m 126 1264 l 126 249 l 368 0 l 747 0 l 989 249 l 989 1143 l 990 1143 l 1171 1526 l 1032 1526 l 907 1263 l 757 1263 l 757 213 l 756 204 l 360 204 l 358 213 l 358 1264 z m 268 1394 l 736 1296 l 736 1422 l 268 1521 z "},"Ử":{"ha":1115,"x_min":0,"x_max":0,"o":"m 126 1264 l 126 249 l 368 0 l 747 0 l 989 249 l 989 1143 l 990 1143 l 1171 1526 l 1032 1526 l 907 1263 l 757 1263 l 757 213 l 756 204 l 360 204 l 358 213 l 358 1264 z m 489 1332 l 626 1332 l 626 1576 l 489 1576 z "},"Ữ":{"ha":1115,"x_min":0,"x_max":0,"o":"m 126 1264 l 126 249 l 368 0 l 747 0 l 989 249 l 989 1143 l 990 1143 l 1171 1526 l 1032 1526 l 907 1263 l 757 1263 l 757 213 l 756 204 l 360 204 l 358 213 l 358 1264 z m 268 1353 l 843 1353 l 843 1517 l 268 1517 z "},"Ű":{"ha":1115,"x_min":0,"x_max":0,"o":"m 126 1264 l 126 249 l 368 0 l 747 0 l 989 249 l 989 1263 l 757 1263 l 757 213 l 756 204 l 360 204 l 358 213 l 358 1264 z m 289 1296 l 549 1394 l 549 1521 l 289 1422 z m 567 1296 l 825 1394 l 825 1521 l 567 1422 z "},"Ū":{"ha":1115,"x_min":0,"x_max":0,"o":"m 126 1264 l 126 249 l 368 0 l 747 0 l 989 249 l 989 1263 l 757 1263 l 757 213 l 756 204 l 360 204 l 358 213 l 358 1264 z m 268 1353 l 843 1353 l 843 1517 l 268 1517 z "},"Ų":{"ha":1115,"x_min":0,"x_max":0,"o":"m 126 1264 l 126 249 l 368 0 l 471 0 l 471 -258 l 643 -258 l 643 0 l 747 0 l 989 249 l 989 1263 l 757 1263 l 757 213 l 756 204 l 360 204 l 358 213 l 358 1264 z "},"Ů":{"ha":1115,"x_min":0,"x_max":0,"o":"m 126 1264 l 126 249 l 368 0 l 747 0 l 989 249 l 989 1263 l 757 1263 l 757 213 l 756 204 l 360 204 l 358 213 l 358 1264 z m 454 1350 l 660 1350 l 660 1551 l 454 1551 z "},"Ũ":{"ha":1115,"x_min":0,"x_max":0,"o":"m 126 1264 l 126 249 l 368 0 l 747 0 l 989 249 l 989 1263 l 757 1263 l 757 213 l 756 204 l 360 204 l 358 213 l 358 1264 z m 268 1353 l 843 1353 l 843 1517 l 268 1517 z "},"V":{"ha":1115,"x_min":0,"x_max":0,"o":"m 126 1264 l 126 249 l 368 0 l 747 0 l 989 249 l 989 1263 l 757 1263 l 757 213 l 756 204 l 360 204 l 358 213 l 358 1264 z "},"Ʌ":{"ha":1115,"x_min":0,"x_max":0,"o":"m 989 14 l 989 1029 l 747 1278 l 368 1278 l 126 1029 l 126 15 l 358 15 l 358 1065 l 360 1074 l 756 1074 l 757 1065 l 757 14 z "},"W":{"ha":1536,"x_min":0,"x_max":0,"o":"m 132 1264 l 132 249 l 338 0 l 661 0 l 772 135 l 883 0 l 1207 0 l 1413 249 l 1413 1263 l 1215 1263 l 1215 213 l 1214 204 l 876 204 l 875 213 l 875 1264 l 678 1264 l 678 1263 l 669 1263 l 669 213 l 668 204 l 331 204 l 329 213 l 329 1264 z "},"Ẃ":{"ha":1536,"x_min":0,"x_max":0,"o":"m 132 1264 l 132 249 l 338 0 l 661 0 l 772 135 l 883 0 l 1207 0 l 1413 249 l 1413 1263 l 1215 1263 l 1215 213 l 1214 204 l 876 204 l 875 213 l 875 1264 l 678 1264 l 678 1263 l 669 1263 l 669 213 l 668 204 l 331 204 l 329 213 l 329 1264 z m 597 1296 l 1065 1394 l 1065 1521 l 597 1422 z "},"Ŵ":{"ha":1536,"x_min":0,"x_max":0,"o":"m 132 1264 l 132 249 l 338 0 l 661 0 l 772 135 l 883 0 l 1207 0 l 1413 249 l 1413 1263 l 1215 1263 l 1215 213 l 1214 204 l 876 204 l 875 213 l 875 1264 l 678 1264 l 678 1263 l 669 1263 l 669 213 l 668 204 l 331 204 l 329 213 l 329 1264 z m 550 1310 l 778 1407 l 1004 1310 l 1004 1436 l 781 1532 l 781 1535 l 778 1533 l 774 1535 l 774 1532 l 550 1436 z "},"Ẅ":{"ha":1536,"x_min":0,"x_max":0,"o":"m 132 1264 l 132 249 l 338 0 l 661 0 l 772 135 l 883 0 l 1207 0 l 1413 249 l 1413 1263 l 1215 1263 l 1215 213 l 1214 204 l 876 204 l 875 213 l 875 1264 l 678 1264 l 678 1263 l 669 1263 l 669 213 l 668 204 l 331 204 l 329 213 l 329 1264 z m 514 1350 l 719 1350 l 719 1551 l 514 1551 z m 831 1350 l 1036 1350 l 1036 1551 l 831 1551 z "},"Ẁ":{"ha":1536,"x_min":0,"x_max":0,"o":"m 132 1264 l 132 249 l 338 0 l 661 0 l 772 135 l 883 0 l 1207 0 l 1413 249 l 1413 1263 l 1215 1263 l 1215 213 l 1214 204 l 876 204 l 875 213 l 875 1264 l 678 1264 l 678 1263 l 669 1263 l 669 213 l 668 204 l 331 204 l 329 213 l 329 1264 z m 488 1394 l 956 1296 l 956 1422 l 488 1521 z "},"X":{"ha":1106,"x_min":0,"x_max":0,"o":"m 358 0 l 358 547 l 360 553 l 746 553 l 747 547 l 747 0 l 979 0 l 979 519 l 832 635 l 979 749 l 979 1264 l 747 1264 l 747 722 l 746 715 l 360 715 l 358 722 l 358 1264 l 126 1264 l 126 749 l 274 635 l 126 519 l 126 0 z "},"Y":{"ha":1115,"x_min":0,"x_max":0,"o":"m 989 717 l 989 1265 l 757 1265 l 757 681 l 756 672 l 360 672 l 358 681 l 358 1265 l 126 1265 l 126 717 l 368 468 l 443 468 l 443 0 l 675 0 l 675 468 l 747 468 z "},"Ý":{"ha":1115,"x_min":0,"x_max":0,"o":"m 989 717 l 989 1265 l 757 1265 l 757 681 l 756 672 l 360 672 l 358 681 l 358 1265 l 126 1265 l 126 717 l 368 468 l 443 468 l 443 0 l 675 0 l 675 468 l 747 468 z m 378 1296 l 846 1394 l 846 1521 l 378 1422 z "},"Ŷ":{"ha":1115,"x_min":0,"x_max":0,"o":"m 989 717 l 989 1265 l 757 1265 l 757 681 l 756 672 l 360 672 l 358 681 l 358 1265 l 126 1265 l 126 717 l 368 468 l 443 468 l 443 0 l 675 0 l 675 468 l 747 468 z m 331 1310 l 558 1407 l 785 1310 l 785 1436 l 561 1532 l 561 1535 l 558 1533 l 554 1535 l 554 1532 l 331 1436 z "},"Ÿ":{"ha":1115,"x_min":0,"x_max":0,"o":"m 989 717 l 989 1265 l 757 1265 l 757 681 l 756 672 l 360 672 l 358 681 l 358 1265 l 126 1265 l 126 717 l 368 468 l 443 468 l 443 0 l 675 0 l 675 468 l 747 468 z m 294 1350 l 500 1350 l 500 1551 l 294 1551 z m 611 1350 l 817 1350 l 817 1551 l 611 1551 z "},"Ẏ":{"ha":1115,"x_min":0,"x_max":0,"o":"m 989 717 l 989 1265 l 757 1265 l 757 681 l 756 672 l 360 672 l 358 681 l 358 1265 l 126 1265 l 126 717 l 368 468 l 443 468 l 443 0 l 675 0 l 675 468 l 747 468 z m 454 1350 l 660 1350 l 660 1551 l 454 1551 z "},"Ỵ":{"ha":1115,"x_min":0,"x_max":0,"o":"m 989 717 l 989 1265 l 757 1265 l 757 681 l 756 672 l 360 672 l 358 681 l 358 1265 l 126 1265 l 126 717 l 368 468 l 443 468 l 443 0 l 675 0 l 675 468 l 747 468 z m 454 -287 l 660 -287 l 660 -86 l 454 -86 z "},"Ỳ":{"ha":1115,"x_min":0,"x_max":0,"o":"m 989 717 l 989 1265 l 757 1265 l 757 681 l 756 672 l 360 672 l 358 681 l 358 1265 l 126 1265 l 126 717 l 368 468 l 443 468 l 443 0 l 675 0 l 675 468 l 747 468 z m 268 1394 l 736 1296 l 736 1422 l 268 1521 z "},"Ỷ":{"ha":1115,"x_min":0,"x_max":0,"o":"m 989 717 l 989 1265 l 757 1265 l 757 681 l 756 672 l 360 672 l 358 681 l 358 1265 l 126 1265 l 126 717 l 368 468 l 443 468 l 443 0 l 675 0 l 675 468 l 747 468 z m 489 1332 l 626 1332 l 626 1576 l 489 1576 z "},"Ȳ":{"ha":1115,"x_min":0,"x_max":0,"o":"m 989 717 l 989 1265 l 757 1265 l 757 681 l 756 672 l 360 672 l 358 681 l 358 1265 l 126 1265 l 126 717 l 368 468 l 443 468 l 443 0 l 675 0 l 675 468 l 747 468 z m 268 1353 l 843 1353 l 843 1517 l 268 1517 z "},"Ỹ":{"ha":1115,"x_min":0,"x_max":0,"o":"m 989 717 l 989 1265 l 757 1265 l 757 681 l 756 672 l 360 672 l 358 681 l 358 1265 l 126 1265 l 126 717 l 368 468 l 443 468 l 443 0 l 675 0 l 675 468 l 747 468 z m 268 1353 l 843 1353 l 843 1517 l 268 1517 z "},"Z":{"ha":1047,"x_min":0,"x_max":0,"o":"m 964 1264 l 88 1264 l 88 1061 l 733 1061 l 733 739 l 732 731 l 339 731 l 97 482 l 97 99 l 99 99 l 99 0 l 975 0 l 975 203 l 329 203 l 329 518 l 331 526 l 724 526 l 965 775 l 965 1158 l 964 1158 z "},"Ź":{"ha":1047,"x_min":0,"x_max":0,"o":"m 964 1264 l 88 1264 l 88 1061 l 733 1061 l 733 739 l 732 731 l 339 731 l 97 482 l 97 99 l 99 99 l 99 0 l 975 0 l 975 203 l 329 203 l 329 518 l 331 526 l 724 526 l 965 775 l 965 1158 l 964 1158 z m 344 1296 l 813 1394 l 813 1521 l 344 1422 z "},"Ž":{"ha":1047,"x_min":0,"x_max":0,"o":"m 964 1264 l 88 1264 l 88 1061 l 733 1061 l 733 739 l 732 731 l 339 731 l 97 482 l 97 99 l 99 99 l 99 0 l 975 0 l 975 203 l 329 203 l 329 518 l 331 526 l 724 526 l 965 775 l 965 1158 l 964 1158 z m 297 1406 l 521 1310 l 521 1307 l 525 1308 l 528 1307 l 528 1310 l 751 1406 l 751 1532 l 525 1435 l 297 1532 z "},"Ż":{"ha":1047,"x_min":0,"x_max":0,"o":"m 964 1264 l 88 1264 l 88 1061 l 733 1061 l 733 739 l 732 731 l 339 731 l 97 482 l 97 99 l 99 99 l 99 0 l 975 0 l 975 203 l 329 203 l 329 518 l 331 526 l 724 526 l 965 775 l 965 1158 l 964 1158 z m 421 1350 l 626 1350 l 626 1551 l 421 1551 z "},"Ẓ":{"ha":1047,"x_min":0,"x_max":0,"o":"m 964 1264 l 88 1264 l 88 1061 l 733 1061 l 733 739 l 732 731 l 339 731 l 97 482 l 97 99 l 99 99 l 99 0 l 975 0 l 975 203 l 329 203 l 329 518 l 331 526 l 724 526 l 965 775 l 965 1158 l 964 1158 z m 421 -287 l 626 -287 l 626 -86 l 421 -86 z "},"Ẕ":{"ha":1047,"x_min":0,"x_max":0,"o":"m 964 1264 l 88 1264 l 88 1061 l 733 1061 l 733 739 l 732 731 l 339 731 l 97 482 l 97 99 l 99 99 l 99 0 l 975 0 l 975 203 l 329 203 l 329 518 l 331 526 l 724 526 l 965 775 l 965 1158 l 964 1158 z m 238 -253 l 813 -253 l 813 -89 l 238 -89 z "},"a":{"ha":1115,"x_min":0,"x_max":0,"o":"m 126 1015 l 126 0 l 358 0 l 358 407 l 757 407 l 757 1 l 989 1 l 989 1015 l 747 1264 l 368 1264 z m 358 615 l 358 1051 l 360 1060 l 756 1060 l 757 1051 l 757 615 z "},"á":{"ha":1115,"x_min":0,"x_max":0,"o":"m 126 1015 l 126 0 l 358 0 l 358 407 l 757 407 l 757 1 l 989 1 l 989 1015 l 747 1264 l 368 1264 z m 358 615 l 358 1051 l 360 1060 l 756 1060 l 757 1051 l 757 615 z m 378 1296 l 846 1394 l 846 1521 l 378 1422 z "},"ă":{"ha":1115,"x_min":0,"x_max":0,"o":"m 126 1015 l 126 0 l 358 0 l 358 407 l 757 407 l 757 1 l 989 1 l 989 1015 l 747 1264 l 368 1264 z m 358 615 l 358 1051 l 360 1060 l 756 1060 l 757 1051 l 757 615 z m 369 1297 l 743 1297 l 743 1494 l 635 1494 l 635 1406 l 478 1406 l 478 1494 l 369 1494 z "},"ắ":{"ha":1115,"x_min":0,"x_max":0,"o":"m 126 1015 l 126 0 l 358 0 l 358 407 l 757 407 l 757 1 l 989 1 l 989 1015 l 747 1264 l 368 1264 z m 358 615 l 358 1051 l 360 1060 l 756 1060 l 757 1051 l 757 615 z m 369 1297 l 743 1297 l 743 1494 l 635 1494 l 635 1406 l 478 1406 l 478 1494 l 369 1494 z m 378 1526 l 846 1625 l 846 1751 l 378 1653 z "},"ặ":{"ha":1115,"x_min":0,"x_max":0,"o":"m 126 1015 l 126 0 l 358 0 l 358 407 l 757 407 l 757 1 l 989 1 l 989 1015 l 747 1264 l 368 1264 z m 358 615 l 358 1051 l 360 1060 l 756 1060 l 757 1051 l 757 615 z m 369 1297 l 743 1297 l 743 1494 l 635 1494 l 635 1406 l 478 1406 l 478 1494 l 369 1494 z m 454 -287 l 660 -287 l 660 -86 l 454 -86 z "},"ằ":{"ha":1115,"x_min":0,"x_max":0,"o":"m 126 1015 l 126 0 l 358 0 l 358 407 l 757 407 l 757 1 l 989 1 l 989 1015 l 747 1264 l 368 1264 z m 268 1625 l 736 1526 l 736 1653 l 268 1751 z m 358 615 l 358 1051 l 360 1060 l 756 1060 l 757 1051 l 757 615 z m 369 1297 l 743 1297 l 743 1494 l 635 1494 l 635 1406 l 478 1406 l 478 1494 l 369 1494 z "},"ẳ":{"ha":1115,"x_min":0,"x_max":0,"o":"m 126 1015 l 126 0 l 358 0 l 358 407 l 757 407 l 757 1 l 989 1 l 989 1015 l 747 1264 l 368 1264 z m 358 615 l 358 1051 l 360 1060 l 756 1060 l 757 1051 l 757 615 z m 369 1297 l 743 1297 l 743 1494 l 635 1494 l 635 1406 l 478 1406 l 478 1494 l 369 1494 z m 489 1561 l 626 1561 l 626 1807 l 489 1807 z "},"ẵ":{"ha":1115,"x_min":0,"x_max":0,"o":"m 126 1015 l 126 0 l 358 0 l 358 407 l 757 407 l 757 1 l 989 1 l 989 1015 l 747 1264 l 368 1264 z m 268 1583 l 843 1583 l 843 1747 l 268 1747 z m 358 615 l 358 1051 l 360 1060 l 756 1060 l 757 1051 l 757 615 z m 369 1297 l 743 1297 l 743 1494 l 635 1494 l 635 1406 l 478 1406 l 478 1494 l 369 1494 z "},"ǎ":{"ha":1115,"x_min":0,"x_max":0,"o":"m 126 1015 l 126 0 l 358 0 l 358 407 l 757 407 l 757 1 l 989 1 l 989 1015 l 747 1264 l 368 1264 z m 331 1406 l 554 1310 l 554 1307 l 558 1308 l 561 1307 l 561 1310 l 785 1406 l 785 1532 l 558 1435 l 331 1532 z m 358 615 l 358 1051 l 360 1060 l 756 1060 l 757 1051 l 757 615 z "},"â":{"ha":1115,"x_min":0,"x_max":0,"o":"m 126 1015 l 126 0 l 358 0 l 358 407 l 757 407 l 757 1 l 989 1 l 989 1015 l 747 1264 l 368 1264 z m 331 1310 l 558 1407 l 785 1310 l 785 1436 l 561 1532 l 561 1535 l 558 1533 l 554 1535 l 554 1532 l 331 1436 z m 358 615 l 358 1051 l 360 1060 l 756 1060 l 757 1051 l 757 615 z "},"ấ":{"ha":1115,"x_min":0,"x_max":0,"o":"m 126 1015 l 126 0 l 358 0 l 358 407 l 757 407 l 757 1 l 989 1 l 989 1015 l 747 1264 l 368 1264 z m 331 1310 l 558 1407 l 785 1310 l 785 1436 l 561 1532 l 561 1535 l 558 1533 l 554 1535 l 554 1532 l 331 1436 z m 358 615 l 358 1051 l 360 1060 l 756 1060 l 757 1051 l 757 615 z m 378 1567 l 846 1665 l 846 1792 l 378 1693 z "},"ậ":{"ha":1115,"x_min":0,"x_max":0,"o":"m 126 1015 l 126 0 l 358 0 l 358 407 l 757 407 l 757 1 l 989 1 l 989 1015 l 747 1264 l 368 1264 z m 331 1310 l 558 1407 l 785 1310 l 785 1436 l 561 1532 l 561 1535 l 558 1533 l 554 1535 l 554 1532 l 331 1436 z m 358 615 l 358 1051 l 360 1060 l 756 1060 l 757 1051 l 757 615 z m 454 -287 l 660 -287 l 660 -86 l 454 -86 z "},"ầ":{"ha":1115,"x_min":0,"x_max":0,"o":"m 126 1015 l 126 0 l 358 0 l 358 407 l 757 407 l 757 1 l 989 1 l 989 1015 l 747 1264 l 368 1264 z m 269 1665 l 738 1567 l 738 1693 l 269 1792 z m 331 1310 l 558 1407 l 785 1310 l 785 1436 l 561 1532 l 561 1535 l 558 1533 l 554 1535 l 554 1532 l 331 1436 z m 358 615 l 358 1051 l 360 1060 l 756 1060 l 757 1051 l 757 615 z "},"ẩ":{"ha":1115,"x_min":0,"x_max":0,"o":"m 126 1015 l 126 0 l 358 0 l 358 407 l 757 407 l 757 1 l 989 1 l 989 1015 l 747 1264 l 368 1264 z m 331 1310 l 558 1407 l 785 1310 l 785 1436 l 561 1532 l 561 1535 l 558 1533 l 554 1535 l 554 1532 l 331 1436 z m 358 615 l 358 1051 l 360 1060 l 756 1060 l 757 1051 l 757 615 z m 490 1603 l 628 1603 l 628 1847 l 490 1847 z "},"ẫ":{"ha":1115,"x_min":0,"x_max":0,"o":"m 126 1015 l 126 0 l 358 0 l 358 407 l 757 407 l 757 1 l 989 1 l 989 1015 l 747 1264 l 368 1264 z m 268 1624 l 844 1624 l 844 1788 l 268 1788 z m 331 1310 l 558 1407 l 785 1310 l 785 1436 l 561 1532 l 561 1535 l 558 1533 l 554 1535 l 554 1532 l 331 1436 z m 358 615 l 358 1051 l 360 1060 l 756 1060 l 757 1051 l 757 615 z "},"ä":{"ha":1115,"x_min":0,"x_max":0,"o":"m 126 1015 l 126 0 l 358 0 l 358 407 l 757 407 l 757 1 l 989 1 l 989 1015 l 747 1264 l 368 1264 z m 294 1350 l 500 1350 l 500 1551 l 294 1551 z m 358 615 l 358 1051 l 360 1060 l 756 1060 l 757 1051 l 757 615 z m 611 1350 l 817 1350 l 817 1551 l 611 1551 z "},"ǟ":{"ha":1115,"x_min":0,"x_max":0,"o":"m 126 1015 l 126 0 l 358 0 l 358 407 l 757 407 l 757 1 l 989 1 l 989 1015 l 747 1264 l 368 1264 z m 268 1640 l 843 1640 l 843 1804 l 268 1804 z m 294 1350 l 500 1350 l 500 1551 l 294 1551 z m 358 615 l 358 1051 l 360 1060 l 756 1060 l 757 1051 l 757 615 z m 611 1350 l 817 1350 l 817 1551 l 611 1551 z "},"ạ":{"ha":1115,"x_min":0,"x_max":0,"o":"m 126 1015 l 126 0 l 358 0 l 358 407 l 757 407 l 757 1 l 989 1 l 989 1015 l 747 1264 l 368 1264 z m 358 615 l 358 1051 l 360 1060 l 756 1060 l 757 1051 l 757 615 z m 454 -287 l 660 -287 l 660 -86 l 454 -86 z "},"à":{"ha":1115,"x_min":0,"x_max":0,"o":"m 126 1015 l 126 0 l 358 0 l 358 407 l 757 407 l 757 1 l 989 1 l 989 1015 l 747 1264 l 368 1264 z m 268 1394 l 736 1296 l 736 1422 l 268 1521 z m 358 615 l 358 1051 l 360 1060 l 756 1060 l 757 1051 l 757 615 z "},"ả":{"ha":1115,"x_min":0,"x_max":0,"o":"m 126 1015 l 126 0 l 358 0 l 358 407 l 757 407 l 757 1 l 989 1 l 989 1015 l 747 1264 l 368 1264 z m 358 615 l 358 1051 l 360 1060 l 756 1060 l 757 1051 l 757 615 z m 489 1332 l 626 1332 l 626 1576 l 489 1576 z "},"ɑ":{"ha":1043,"x_min":0,"x_max":0,"o":"m 917 1264 l 368 1264 l 126 1015 l 126 249 l 368 0 l 917 0 z m 358 213 l 358 1051 l 360 1060 l 685 1060 l 685 204 l 360 204 z "},"ā":{"ha":1115,"x_min":0,"x_max":0,"o":"m 126 1015 l 126 0 l 358 0 l 358 407 l 757 407 l 757 1 l 989 1 l 989 1015 l 747 1264 l 368 1264 z m 268 1353 l 843 1353 l 843 1517 l 268 1517 z m 358 615 l 358 1051 l 360 1060 l 756 1060 l 757 1051 l 757 615 z "},"ą":{"ha":1115,"x_min":0,"x_max":0,"o":"m 126 1015 l 126 0 l 358 0 l 358 407 l 757 407 l 757 1 l 989 1 l 989 1015 l 747 1264 l 368 1264 z m 358 615 l 358 1051 l 360 1060 l 756 1060 l 757 1051 l 757 615 z m 471 -258 l 643 -258 l 643 49 l 471 49 z "},"å":{"ha":1115,"x_min":0,"x_max":0,"o":"m 126 1015 l 126 0 l 358 0 l 358 407 l 757 407 l 757 1 l 989 1 l 989 1015 l 747 1264 l 368 1264 z m 358 615 l 358 1051 l 360 1060 l 756 1060 l 757 1051 l 757 615 z m 454 1350 l 660 1350 l 660 1551 l 454 1551 z "},"ã":{"ha":1115,"x_min":0,"x_max":0,"o":"m 126 1015 l 126 0 l 358 0 l 358 407 l 757 407 l 757 1 l 989 1 l 989 1015 l 747 1264 l 368 1264 z m 268 1353 l 843 1353 l 843 1517 l 268 1517 z m 358 615 l 358 1051 l 360 1060 l 756 1060 l 757 1051 l 757 615 z "},"æ":{"ha":1493,"x_min":0,"x_max":0,"o":"m 126 1015 l 126 0 l 358 0 l 358 397 l 664 397 l 664 0 l 1367 0 l 1367 203 l 874 203 l 874 563 l 1274 563 l 1274 733 l 874 733 l 874 1061 l 1367 1061 l 1367 1264 l 368 1264 z m 358 617 l 358 1051 l 360 1060 l 664 1060 l 664 617 z "},"ǣ":{"ha":1493,"x_min":0,"x_max":0,"o":"m 126 1015 l 126 0 l 358 0 l 358 397 l 664 397 l 664 0 l 1367 0 l 1367 203 l 874 203 l 874 563 l 1274 563 l 1274 733 l 874 733 l 874 1061 l 1367 1061 l 1367 1264 l 368 1264 z m 358 617 l 358 1051 l 360 1060 l 664 1060 l 664 617 z m 542 1353 l 1117 1353 l 1117 1517 l 542 1517 z "},"b":{"ha":1051,"x_min":0,"x_max":0,"o":"m 126 1264 l 126 0 l 728 0 l 915 194 l 915 521 l 765 642 l 915 758 l 915 1076 l 728 1264 z m 358 200 l 358 556 l 682 556 l 683 549 l 683 213 l 681 200 z m 358 725 l 358 1071 l 681 1071 l 683 1057 l 683 732 l 682 725 z "},"ḅ":{"ha":1051,"x_min":0,"x_max":0,"o":"m 126 1264 l 126 0 l 728 0 l 915 194 l 915 521 l 765 642 l 915 758 l 915 1076 l 728 1264 z m 358 200 l 358 556 l 682 556 l 683 549 l 683 213 l 681 200 z m 358 725 l 358 1071 l 681 1071 l 683 1057 l 683 732 l 682 725 z m 422 -287 l 628 -287 l 628 -86 l 422 -86 z "},"c":{"ha":1047,"x_min":0,"x_max":0,"o":"m 358 213 l 358 1051 l 360 1060 l 694 1060 l 721 1024 l 721 726 l 921 726 l 921 1053 l 721 1264 l 368 1264 l 126 1015 l 126 249 l 368 0 l 721 0 l 921 211 l 921 538 l 721 538 l 721 236 l 694 204 l 360 204 z "},"ć":{"ha":1047,"x_min":0,"x_max":0,"o":"m 358 213 l 358 1051 l 360 1060 l 694 1060 l 721 1024 l 721 726 l 921 726 l 921 1053 l 721 1264 l 368 1264 l 126 1015 l 126 249 l 368 0 l 721 0 l 921 211 l 921 538 l 721 538 l 721 236 l 694 204 l 360 204 z m 365 1296 l 833 1394 l 833 1521 l 365 1422 z "},"č":{"ha":1047,"x_min":0,"x_max":0,"o":"m 358 213 l 358 1051 l 360 1060 l 694 1060 l 721 1024 l 721 726 l 921 726 l 921 1053 l 721 1264 l 368 1264 l 126 1015 l 126 249 l 368 0 l 721 0 l 921 211 l 921 538 l 721 538 l 721 236 l 694 204 l 360 204 z m 318 1406 l 542 1310 l 542 1307 l 546 1308 l 549 1307 l 549 1310 l 772 1406 l 772 1532 l 546 1435 l 318 1532 z "},"ç":{"ha":1047,"x_min":0,"x_max":0,"o":"m 358 213 l 358 1051 l 360 1060 l 694 1060 l 721 1024 l 721 726 l 921 726 l 921 1053 l 721 1264 l 368 1264 l 126 1015 l 126 249 l 368 0 l 458 0 l 458 -258 l 631 -258 l 631 0 l 721 0 l 921 211 l 921 538 l 721 538 l 721 236 l 694 204 l 360 204 z "},"ĉ":{"ha":1047,"x_min":0,"x_max":0,"o":"m 358 213 l 358 1051 l 360 1060 l 694 1060 l 721 1024 l 721 726 l 921 726 l 921 1053 l 721 1264 l 368 1264 l 126 1015 l 126 249 l 368 0 l 721 0 l 921 211 l 921 538 l 721 538 l 721 236 l 694 204 l 360 204 z m 318 1310 l 546 1407 l 772 1310 l 772 1436 l 549 1532 l 549 1535 l 546 1533 l 542 1535 l 542 1532 l 318 1436 z "},"ċ":{"ha":1047,"x_min":0,"x_max":0,"o":"m 358 213 l 358 1051 l 360 1060 l 694 1060 l 721 1024 l 721 726 l 921 726 l 921 1053 l 721 1264 l 368 1264 l 126 1015 l 126 249 l 368 0 l 721 0 l 921 211 l 921 538 l 721 538 l 721 236 l 694 204 l 360 204 z m 442 1350 l 647 1350 l 647 1551 l 442 1551 z "},"d":{"ha":1043,"x_min":0,"x_max":0,"o":"m 126 1264 l 126 0 l 675 0 l 917 249 l 917 1015 l 675 1264 z m 358 204 l 358 1060 l 683 1060 l 685 1051 l 685 213 l 683 204 z "},"ð":{"ha":1043,"x_min":0,"x_max":0,"o":"m 126 1264 l 126 710 l 10 710 l 10 531 l 126 531 l 126 0 l 675 0 l 917 249 l 917 1015 l 675 1264 z m 358 204 l 358 531 l 551 531 l 551 710 l 358 710 l 358 1060 l 683 1060 l 685 1051 l 685 213 l 683 204 z "},"ď":{"ha":1043,"x_min":0,"x_max":0,"o":"m 126 1264 l 126 0 l 675 0 l 917 249 l 917 1015 l 675 1264 z m 296 1406 l 519 1310 l 519 1307 l 524 1308 l 526 1307 l 526 1310 l 750 1406 l 750 1532 l 524 1435 l 296 1532 z m 358 204 l 358 1060 l 683 1060 l 685 1051 l 685 213 l 683 204 z "},"ḓ":{"ha":1043,"x_min":0,"x_max":0,"o":"m 126 1264 l 126 0 l 675 0 l 917 249 l 917 1015 l 675 1264 z m 294 -268 l 522 -171 l 749 -268 l 749 -142 l 525 -46 l 525 -43 l 522 -44 l 518 -43 l 518 -46 l 294 -142 z m 358 204 l 358 1060 l 683 1060 l 685 1051 l 685 213 l 683 204 z "},"đ":{"ha":1043,"x_min":0,"x_max":0,"o":"m 126 1264 l 126 710 l 10 710 l 10 531 l 126 531 l 126 0 l 675 0 l 917 249 l 917 1015 l 675 1264 z m 358 204 l 358 531 l 551 531 l 551 710 l 358 710 l 358 1060 l 683 1060 l 685 1051 l 685 213 l 683 204 z "},"ḍ":{"ha":1043,"x_min":0,"x_max":0,"o":"m 126 1264 l 126 0 l 675 0 l 917 249 l 917 1015 l 675 1264 z m 358 204 l 358 1060 l 683 1060 l 685 1051 l 685 213 l 683 204 z m 419 -287 l 625 -287 l 625 -86 l 419 -86 z "},"ḏ":{"ha":1043,"x_min":0,"x_max":0,"o":"m 126 1264 l 126 0 l 675 0 l 917 249 l 917 1015 l 675 1264 z m 236 -253 l 811 -253 l 811 -89 l 236 -89 z m 358 204 l 358 1060 l 683 1060 l 685 1051 l 685 213 l 683 204 z "},"e":{"ha":1029,"x_min":0,"x_max":0,"o":"m 801 733 l 358 733 l 358 1061 l 903 1061 l 903 1264 l 126 1264 l 126 0 l 903 0 l 903 203 l 358 203 l 358 563 l 801 563 z "},"é":{"ha":1029,"x_min":0,"x_max":0,"o":"m 801 733 l 358 733 l 358 1061 l 903 1061 l 903 1264 l 126 1264 l 126 0 l 903 0 l 903 203 l 358 203 l 358 563 l 801 563 z m 336 1296 l 804 1394 l 804 1521 l 336 1422 z "},"ě":{"ha":1029,"x_min":0,"x_max":0,"o":"m 801 733 l 358 733 l 358 1061 l 903 1061 l 903 1264 l 126 1264 l 126 0 l 903 0 l 903 203 l 358 203 l 358 563 l 801 563 z m 289 1406 l 513 1310 l 513 1307 l 517 1308 l 519 1307 l 519 1310 l 743 1406 l 743 1532 l 517 1435 l 289 1532 z "},"ȩ":{"ha":1029,"x_min":0,"x_max":0,"o":"m 801 733 l 358 733 l 358 1061 l 903 1061 l 903 1264 l 126 1264 l 126 0 l 429 0 l 429 -258 l 601 -258 l 601 0 l 903 0 l 903 203 l 358 203 l 358 563 l 801 563 z "},"ê":{"ha":1029,"x_min":0,"x_max":0,"o":"m 801 733 l 358 733 l 358 1061 l 903 1061 l 903 1264 l 126 1264 l 126 0 l 903 0 l 903 203 l 358 203 l 358 563 l 801 563 z m 289 1310 l 517 1407 l 743 1310 l 743 1436 l 519 1532 l 519 1535 l 517 1533 l 513 1535 l 513 1532 l 289 1436 z "},"ế":{"ha":1029,"x_min":0,"x_max":0,"o":"m 801 733 l 358 733 l 358 1061 l 903 1061 l 903 1264 l 126 1264 l 126 0 l 903 0 l 903 203 l 358 203 l 358 563 l 801 563 z m 289 1310 l 517 1407 l 743 1310 l 743 1436 l 519 1532 l 519 1535 l 517 1533 l 513 1535 l 513 1532 l 289 1436 z m 336 1567 l 804 1665 l 804 1792 l 336 1693 z "},"ệ":{"ha":1029,"x_min":0,"x_max":0,"o":"m 801 733 l 358 733 l 358 1061 l 903 1061 l 903 1264 l 126 1264 l 126 0 l 903 0 l 903 203 l 358 203 l 358 563 l 801 563 z m 289 1310 l 517 1407 l 743 1310 l 743 1436 l 519 1532 l 519 1535 l 517 1533 l 513 1535 l 513 1532 l 289 1436 z m 413 -287 l 618 -287 l 618 -86 l 413 -86 z "},"ề":{"ha":1029,"x_min":0,"x_max":0,"o":"m 801 733 l 358 733 l 358 1061 l 903 1061 l 903 1264 l 126 1264 l 126 0 l 903 0 l 903 203 l 358 203 l 358 563 l 801 563 z m 228 1665 l 696 1567 l 696 1693 l 228 1792 z m 289 1310 l 517 1407 l 743 1310 l 743 1436 l 519 1532 l 519 1535 l 517 1533 l 513 1535 l 513 1532 l 289 1436 z "},"ể":{"ha":1029,"x_min":0,"x_max":0,"o":"m 801 733 l 358 733 l 358 1061 l 903 1061 l 903 1264 l 126 1264 l 126 0 l 903 0 l 903 203 l 358 203 l 358 563 l 801 563 z m 289 1310 l 517 1407 l 743 1310 l 743 1436 l 519 1532 l 519 1535 l 517 1533 l 513 1535 l 513 1532 l 289 1436 z m 449 1603 l 586 1603 l 586 1847 l 449 1847 z "},"ễ":{"ha":1029,"x_min":0,"x_max":0,"o":"m 801 733 l 358 733 l 358 1061 l 903 1061 l 903 1264 l 126 1264 l 126 0 l 903 0 l 903 203 l 358 203 l 358 563 l 801 563 z m 226 1624 l 803 1624 l 803 1788 l 226 1788 z m 289 1310 l 517 1407 l 743 1310 l 743 1436 l 519 1532 l 519 1535 l 517 1533 l 513 1535 l 513 1532 l 289 1436 z "},"ë":{"ha":1029,"x_min":0,"x_max":0,"o":"m 801 733 l 358 733 l 358 1061 l 903 1061 l 903 1264 l 126 1264 l 126 0 l 903 0 l 903 203 l 358 203 l 358 563 l 801 563 z m 253 1350 l 458 1350 l 458 1551 l 253 1551 z m 569 1350 l 775 1350 l 775 1551 l 569 1551 z "},"ė":{"ha":1029,"x_min":0,"x_max":0,"o":"m 801 733 l 358 733 l 358 1061 l 903 1061 l 903 1264 l 126 1264 l 126 0 l 903 0 l 903 203 l 358 203 l 358 563 l 801 563 z m 413 1350 l 618 1350 l 618 1551 l 413 1551 z "},"ẹ":{"ha":1029,"x_min":0,"x_max":0,"o":"m 801 733 l 358 733 l 358 1061 l 903 1061 l 903 1264 l 126 1264 l 126 0 l 903 0 l 903 203 l 358 203 l 358 563 l 801 563 z m 413 -287 l 618 -287 l 618 -86 l 413 -86 z "},"è":{"ha":1029,"x_min":0,"x_max":0,"o":"m 801 733 l 358 733 l 358 1061 l 903 1061 l 903 1264 l 126 1264 l 126 0 l 903 0 l 903 203 l 358 203 l 358 563 l 801 563 z m 226 1394 l 694 1296 l 694 1422 l 226 1521 z "},"ẻ":{"ha":1029,"x_min":0,"x_max":0,"o":"m 801 733 l 358 733 l 358 1061 l 903 1061 l 903 1264 l 126 1264 l 126 0 l 903 0 l 903 203 l 358 203 l 358 563 l 801 563 z m 447 1332 l 585 1332 l 585 1576 l 447 1576 z "},"ē":{"ha":1029,"x_min":0,"x_max":0,"o":"m 801 733 l 358 733 l 358 1061 l 903 1061 l 903 1264 l 126 1264 l 126 0 l 903 0 l 903 203 l 358 203 l 358 563 l 801 563 z m 226 1353 l 801 1353 l 801 1517 l 226 1517 z "},"ę":{"ha":1029,"x_min":0,"x_max":0,"o":"m 801 733 l 358 733 l 358 1061 l 903 1061 l 903 1264 l 126 1264 l 126 0 l 429 0 l 429 -258 l 601 -258 l 601 0 l 903 0 l 903 203 l 358 203 l 358 563 l 801 563 z "},"ɛ":{"ha":908,"x_min":0,"x_max":0,"o":"m 279 0 l 828 0 l 828 204 l 328 204 l 324 214 l 324 549 l 325 551 l 757 551 l 757 732 l 324 732 l 324 1057 l 328 1061 l 829 1061 l 829 1264 l 279 1264 l 92 1075 l 92 761 l 243 642 l 92 519 l 92 194 z "},"ʃ":{"ha":1047,"x_min":0,"x_max":0,"o":"m 99 1264 l 99 1158 l 97 1158 l 97 775 l 240 629 l 97 482 l 97 99 l 99 99 l 99 0 l 975 0 l 975 203 l 329 203 l 329 518 l 331 526 l 667 526 l 667 731 l 331 731 l 329 739 l 329 1061 l 975 1061 l 975 1264 z "},"ẽ":{"ha":1029,"x_min":0,"x_max":0,"o":"m 801 733 l 358 733 l 358 1061 l 903 1061 l 903 1264 l 126 1264 l 126 0 l 903 0 l 903 203 l 358 203 l 358 563 l 801 563 z m 226 1353 l 801 1353 l 801 1517 l 226 1517 z "},"ǝ":{"ha":1029,"x_min":0,"x_max":0,"o":"m 228 733 l 228 563 l 671 563 l 671 203 l 126 203 l 126 0 l 903 0 l 903 1264 l 126 1264 l 126 1061 l 671 1061 l 671 733 z "},"ə":{"ha":1047,"x_min":0,"x_max":0,"o":"m 689 1051 l 689 213 l 688 204 l 353 204 l 326 236 l 326 469 l 515 469 l 515 625 l 126 625 l 126 211 l 326 0 l 679 0 l 921 249 l 921 1015 l 679 1264 l 326 1264 l 126 1053 l 126 726 l 326 726 l 326 1024 l 353 1060 l 688 1060 z "},"ʒ":{"ha":1047,"x_min":0,"x_max":0,"o":"m 949 1264 l 72 1264 l 72 1061 l 718 1061 l 718 739 l 717 731 l 381 731 l 381 526 l 717 526 l 718 518 l 718 203 l 72 203 l 72 0 l 949 0 l 949 99 l 950 99 l 950 482 l 807 629 l 950 775 l 950 1158 l 949 1158 z "},"ǯ":{"ha":1047,"x_min":0,"x_max":0,"o":"m 949 1264 l 72 1264 l 72 1061 l 718 1061 l 718 739 l 717 731 l 381 731 l 381 526 l 717 526 l 718 518 l 718 203 l 72 203 l 72 0 l 949 0 l 949 99 l 950 99 l 950 482 l 807 629 l 950 775 l 950 1158 l 949 1158 z m 293 1406 l 517 1310 l 517 1307 l 521 1308 l 524 1307 l 524 1310 l 747 1406 l 747 1532 l 521 1435 l 293 1532 z "},"f":{"ha":975,"x_min":0,"x_max":0,"o":"m 126 1264 l 126 0 l 358 0 l 358 496 l 804 496 l 804 699 l 358 699 l 358 1061 l 903 1061 l 903 1264 z "},"g":{"ha":1047,"x_min":0,"x_max":0,"o":"m 358 213 l 358 1051 l 360 1060 l 694 1060 l 721 1024 l 721 726 l 921 726 l 921 1053 l 721 1264 l 368 1264 l 126 1015 l 126 249 l 368 0 l 721 0 l 921 211 l 921 625 l 532 625 l 532 469 l 721 469 l 721 236 l 694 204 l 360 204 z "},"ğ":{"ha":1047,"x_min":0,"x_max":0,"o":"m 358 213 l 358 1051 l 360 1060 l 694 1060 l 721 1024 l 721 726 l 921 726 l 921 1053 l 721 1264 l 368 1264 l 126 1015 l 126 249 l 368 0 l 721 0 l 921 211 l 921 625 l 532 625 l 532 469 l 721 469 l 721 236 l 694 204 l 360 204 z m 360 1297 l 733 1297 l 733 1494 l 625 1494 l 625 1406 l 468 1406 l 468 1494 l 360 1494 z "},"ǧ":{"ha":1047,"x_min":0,"x_max":0,"o":"m 358 213 l 358 1051 l 360 1060 l 694 1060 l 721 1024 l 721 726 l 921 726 l 921 1053 l 721 1264 l 368 1264 l 126 1015 l 126 249 l 368 0 l 721 0 l 921 211 l 921 625 l 532 625 l 532 469 l 721 469 l 721 236 l 694 204 l 360 204 z m 321 1406 l 544 1310 l 544 1307 l 549 1308 l 551 1307 l 551 1310 l 775 1406 l 775 1532 l 549 1435 l 321 1532 z "},"ĝ":{"ha":1047,"x_min":0,"x_max":0,"o":"m 358 213 l 358 1051 l 360 1060 l 694 1060 l 721 1024 l 721 726 l 921 726 l 921 1053 l 721 1264 l 368 1264 l 126 1015 l 126 249 l 368 0 l 721 0 l 921 211 l 921 625 l 532 625 l 532 469 l 721 469 l 721 236 l 694 204 l 360 204 z m 321 1310 l 549 1407 l 775 1310 l 775 1436 l 551 1532 l 551 1535 l 549 1533 l 544 1535 l 544 1532 l 321 1436 z "},"ģ":{"ha":1047,"x_min":0,"x_max":0,"o":"m 358 213 l 358 1051 l 360 1060 l 694 1060 l 721 1024 l 721 726 l 921 726 l 921 1053 l 721 1264 l 633 1264 l 633 1522 l 461 1522 l 461 1264 l 368 1264 l 126 1015 l 126 249 l 368 0 l 721 0 l 921 211 l 921 625 l 532 625 l 532 469 l 721 469 l 721 236 l 694 204 l 360 204 z "},"ġ":{"ha":1047,"x_min":0,"x_max":0,"o":"m 358 213 l 358 1051 l 360 1060 l 694 1060 l 721 1024 l 721 726 l 921 726 l 921 1053 l 721 1264 l 368 1264 l 126 1015 l 126 249 l 368 0 l 721 0 l 921 211 l 921 625 l 532 625 l 532 469 l 721 469 l 721 236 l 694 204 l 360 204 z m 444 1350 l 650 1350 l 650 1551 l 444 1551 z "},"ḡ":{"ha":1047,"x_min":0,"x_max":0,"o":"m 358 213 l 358 1051 l 360 1060 l 694 1060 l 721 1024 l 721 726 l 921 726 l 921 1053 l 721 1264 l 368 1264 l 126 1015 l 126 249 l 368 0 l 721 0 l 921 211 l 921 625 l 532 625 l 532 469 l 721 469 l 721 236 l 694 204 l 360 204 z m 258 1353 l 833 1353 l 833 1517 l 258 1517 z "},"ǥ":{"ha":1047,"x_min":0,"x_max":0,"o":"m 358 213 l 358 1051 l 360 1060 l 694 1060 l 721 1024 l 721 726 l 921 726 l 921 1053 l 721 1264 l 368 1264 l 126 1015 l 126 249 l 368 0 l 721 0 l 921 211 l 921 286 l 1039 286 l 1039 419 l 921 419 l 921 625 l 532 625 l 532 469 l 721 469 l 721 419 l 526 419 l 526 286 l 721 286 l 721 236 l 694 204 l 360 204 z "},"h":{"ha":1078,"x_min":0,"x_max":0,"o":"m 719 1264 l 719 735 l 358 735 l 358 1264 l 126 1264 l 126 0 l 358 0 l 358 532 l 719 532 l 719 0 l 951 0 l 951 1264 z "},"ħ":{"ha":1078,"x_min":0,"x_max":0,"o":"m 719 1264 l 719 1076 l 358 1076 l 358 1264 l 126 1264 l 126 0 l 358 0 l 358 532 l 719 532 l 719 0 l 951 0 l 951 1264 z m 358 735 l 358 897 l 719 897 l 719 735 z "},"ḫ":{"ha":1078,"x_min":0,"x_max":0,"o":"m 719 1264 l 719 735 l 358 735 l 358 1264 l 126 1264 l 126 0 l 358 0 l 358 532 l 719 532 l 719 0 l 951 0 l 951 1264 z m 353 -225 l 726 -225 l 726 -28 l 618 -28 l 618 -117 l 461 -117 l 461 -28 l 353 -28 z "},"ĥ":{"ha":1078,"x_min":0,"x_max":0,"o":"m 719 1264 l 719 735 l 358 735 l 358 1264 l 126 1264 l 126 0 l 358 0 l 358 532 l 719 532 l 719 0 l 951 0 l 951 1264 z m 314 1310 l 542 1407 l 768 1310 l 768 1436 l 544 1532 l 544 1535 l 542 1533 l 538 1535 l 538 1532 l 314 1436 z "},"ḥ":{"ha":1078,"x_min":0,"x_max":0,"o":"m 719 1264 l 719 735 l 358 735 l 358 1264 l 126 1264 l 126 0 l 358 0 l 358 532 l 719 532 l 719 0 l 951 0 l 951 1264 z m 438 -287 l 643 -287 l 643 -86 l 438 -86 z "},"ẖ":{"ha":1078,"x_min":0,"x_max":0,"o":"m 719 1264 l 719 735 l 358 735 l 358 1264 l 126 1264 l 126 0 l 358 0 l 358 532 l 719 532 l 719 0 l 951 0 l 951 1264 z m 254 -253 l 829 -253 l 829 -89 l 254 -89 z "},"i":{"ha":485,"x_min":0,"x_max":0,"o":"m 126 1264 l 126 0 l 358 0 l 358 1264 z "},"ı":{"ha":485,"x_min":0,"x_max":0,"o":"m 126 1264 l 126 0 l 358 0 l 358 1264 z "},"í":{"ha":485,"x_min":0,"x_max":0,"o":"m 126 1264 l 126 0 l 358 0 l 358 1264 z m 64 1296 l 532 1394 l 532 1521 l 64 1422 z "},"ǐ":{"ha":485,"x_min":0,"x_max":0,"o":"m 126 1264 l 126 0 l 358 0 l 358 1264 z m 17 1406 l 240 1310 l 240 1307 l 244 1308 l 247 1307 l 247 1310 l 471 1406 l 471 1532 l 244 1435 l 17 1532 z "},"î":{"ha":485,"x_min":0,"x_max":0,"o":"m 126 1264 l 126 0 l 358 0 l 358 1264 z m 17 1310 l 244 1407 l 471 1310 l 471 1436 l 247 1532 l 247 1535 l 244 1533 l 240 1535 l 240 1532 l 17 1436 z "},"ï":{"ha":485,"x_min":0,"x_max":0,"o":"m 126 1264 l 126 0 l 358 0 l 358 1264 z m -19 1350 l 186 1350 l 186 1551 l -19 1551 z m 297 1350 l 503 1350 l 503 1551 l 297 1551 z "},"ḯ":{"ha":485,"x_min":0,"x_max":0,"o":"m 126 1264 l 126 0 l 358 0 l 358 1264 z m -19 1350 l 186 1350 l 186 1551 l -19 1551 z m 64 1583 l 532 1682 l 532 1808 l 64 1710 z m 297 1350 l 503 1350 l 503 1551 l 297 1551 z "},"ị":{"ha":485,"x_min":0,"x_max":0,"o":"m 126 1264 l 126 0 l 358 0 l 358 1264 z m 140 -287 l 346 -287 l 346 -86 l 140 -86 z "},"ì":{"ha":485,"x_min":0,"x_max":0,"o":"m 126 1264 l 126 0 l 358 0 l 358 1264 z m -46 1394 l 422 1296 l 422 1422 l -46 1521 z "},"ỉ":{"ha":485,"x_min":0,"x_max":0,"o":"m 126 1264 l 126 0 l 358 0 l 358 1264 z m 175 1332 l 313 1332 l 313 1576 l 175 1576 z "},"ĳ":{"ha":1600,"x_min":0,"x_max":0,"o":"m 126 1264 l 126 0 l 358 0 l 358 1264 z m 611 249 l 853 0 l 1232 0 l 1474 249 l 1474 1264 l 1242 1264 l 1242 213 l 1240 204 l 844 204 l 843 213 l 843 632 l 611 632 z "},"ī":{"ha":485,"x_min":0,"x_max":0,"o":"m 126 1264 l 126 0 l 358 0 l 358 1264 z m -46 1353 l 529 1353 l 529 1517 l -46 1517 z "},"į":{"ha":485,"x_min":0,"x_max":0,"o":"m 126 1264 l 126 0 l 157 0 l 157 -258 l 329 -258 l 329 0 l 358 0 l 358 1264 z "},"ɨ":{"ha":485,"x_min":0,"x_max":0,"o":"m 126 1264 l 126 688 l 14 688 l 14 508 l 126 508 l 126 0 l 358 0 l 358 508 l 618 508 l 618 688 l 358 688 l 358 1264 z m 140 1350 l 346 1350 l 346 1551 l 140 1551 z "},"ĩ":{"ha":485,"x_min":0,"x_max":0,"o":"m 126 1264 l 126 0 l 358 0 l 358 1264 z m -46 1353 l 529 1353 l 529 1517 l -46 1517 z "},"j":{"ha":1115,"x_min":0,"x_max":0,"o":"m 358 632 l 126 632 l 126 249 l 368 0 l 747 0 l 989 249 l 989 1264 l 757 1264 l 757 213 l 756 204 l 360 204 l 358 213 z "},"ȷ":{"ha":1115,"x_min":0,"x_max":0,"o":"m 358 632 l 126 632 l 126 249 l 368 0 l 747 0 l 989 249 l 989 1264 l 757 1264 l 757 213 l 756 204 l 360 204 l 358 213 z "},"ĵ":{"ha":1115,"x_min":0,"x_max":0,"o":"m 358 632 l 126 632 l 126 249 l 368 0 l 747 0 l 989 249 l 989 1264 l 757 1264 l 757 213 l 756 204 l 360 204 l 358 213 z m 644 1310 l 872 1407 l 1099 1310 l 1099 1436 l 875 1532 l 875 1535 l 872 1533 l 868 1535 l 868 1532 l 644 1436 z "},"k":{"ha":1043,"x_min":0,"x_max":0,"o":"m 126 1264 l 126 0 l 358 0 l 358 553 l 682 553 l 683 547 l 683 0 l 915 0 l 915 519 l 768 635 l 915 749 l 915 1264 l 683 1264 l 683 722 l 682 715 l 358 715 l 358 1264 z "},"ǩ":{"ha":1043,"x_min":0,"x_max":0,"o":"m 126 1264 l 126 0 l 358 0 l 358 553 l 682 553 l 683 547 l 683 0 l 915 0 l 915 519 l 768 635 l 915 749 l 915 1264 l 683 1264 l 683 722 l 682 715 l 358 715 l 358 1264 z m 296 1406 l 519 1310 l 519 1307 l 524 1308 l 526 1307 l 526 1310 l 750 1406 l 750 1532 l 524 1435 l 296 1532 z "},"ķ":{"ha":1043,"x_min":0,"x_max":0,"o":"m 126 1264 l 126 0 l 358 0 l 358 553 l 682 553 l 683 547 l 683 0 l 915 0 l 915 519 l 768 635 l 915 749 l 915 1264 l 683 1264 l 683 722 l 682 715 l 358 715 l 358 1264 z m 436 -258 l 608 -258 l 608 49 l 436 49 z "},"ḵ":{"ha":1043,"x_min":0,"x_max":0,"o":"m 126 1264 l 126 0 l 358 0 l 358 553 l 682 553 l 683 547 l 683 0 l 915 0 l 915 519 l 768 635 l 915 749 l 915 1264 l 683 1264 l 683 722 l 682 715 l 358 715 l 358 1264 z m 236 -253 l 811 -253 l 811 -89 l 236 -89 z "},"l":{"ha":975,"x_min":0,"x_max":0,"o":"m 126 1264 l 126 0 l 903 0 l 903 203 l 358 203 l 358 1264 z "},"ĺ":{"ha":975,"x_min":0,"x_max":0,"o":"m 126 1264 l 126 0 l 903 0 l 903 203 l 358 203 l 358 1264 z m 275 1296 l 743 1394 l 743 1521 l 275 1422 z "},"ľ":{"ha":975,"x_min":0,"x_max":0,"o":"m 126 1264 l 126 0 l 903 0 l 903 203 l 358 203 l 358 1264 z m 658 974 l 831 974 l 831 1281 l 658 1281 z "},"ḽ":{"ha":975,"x_min":0,"x_max":0,"o":"m 126 1264 l 126 0 l 903 0 l 903 203 l 358 203 l 358 1264 z m 260 -268 l 488 -171 l 714 -268 l 714 -142 l 490 -46 l 490 -43 l 488 -44 l 483 -43 l 483 -46 l 260 -142 z "},"ļ":{"ha":975,"x_min":0,"x_max":0,"o":"m 126 1264 l 126 0 l 401 0 l 401 -258 l 574 -258 l 574 0 l 903 0 l 903 203 l 358 203 l 358 1264 z "},"ḷ":{"ha":975,"x_min":0,"x_max":0,"o":"m 126 1264 l 126 0 l 903 0 l 903 203 l 358 203 l 358 1264 z m 385 -287 l 590 -287 l 590 -86 l 385 -86 z "},"ḹ":{"ha":975,"x_min":0,"x_max":0,"o":"m 126 1264 l 126 0 l 903 0 l 903 203 l 358 203 l 358 1264 z m 165 1353 l 740 1353 l 740 1517 l 165 1517 z m 385 -287 l 590 -287 l 590 -86 l 385 -86 z "},"ḻ":{"ha":975,"x_min":0,"x_max":0,"o":"m 126 1264 l 126 0 l 903 0 l 903 203 l 358 203 l 358 1264 z m 201 -253 l 776 -253 l 776 -89 l 201 -89 z "},"ł":{"ha":975,"x_min":0,"x_max":0,"o":"m 126 1264 l 126 740 l 32 718 l 32 540 l 126 563 l 126 0 l 903 0 l 903 203 l 358 203 l 358 615 l 639 679 l 639 857 l 358 793 l 358 1264 z "},"m":{"ha":1536,"x_min":0,"x_max":0,"o":"m 132 1029 l 132 14 l 329 14 l 329 1065 l 331 1074 l 668 1074 l 669 1065 l 669 15 l 678 15 l 678 14 l 875 14 l 875 1065 l 876 1074 l 1214 1074 l 1215 1065 l 1215 15 l 1413 15 l 1413 1029 l 1207 1278 l 883 1278 l 772 1143 l 661 1278 l 338 1278 z "},"ḿ":{"ha":1536,"x_min":0,"x_max":0,"o":"m 132 1029 l 132 14 l 329 14 l 329 1065 l 331 1074 l 668 1074 l 669 1065 l 669 15 l 678 15 l 678 14 l 875 14 l 875 1065 l 876 1074 l 1214 1074 l 1215 1065 l 1215 15 l 1413 15 l 1413 1029 l 1207 1278 l 883 1278 l 772 1143 l 661 1278 l 338 1278 z m 622 1296 l 1090 1394 l 1090 1521 l 622 1422 z "},"ṁ":{"ha":1536,"x_min":0,"x_max":0,"o":"m 132 1029 l 132 14 l 329 14 l 329 1065 l 331 1074 l 668 1074 l 669 1065 l 669 15 l 678 15 l 678 14 l 875 14 l 875 1065 l 876 1074 l 1214 1074 l 1215 1065 l 1215 15 l 1413 15 l 1413 1029 l 1207 1278 l 883 1278 l 772 1143 l 661 1278 l 338 1278 z m 699 1350 l 904 1350 l 904 1551 l 699 1551 z "},"ṃ":{"ha":1536,"x_min":0,"x_max":0,"o":"m 132 1029 l 132 14 l 329 14 l 329 1065 l 331 1074 l 668 1074 l 669 1065 l 669 15 l 678 15 l 678 14 l 875 14 l 875 1065 l 876 1074 l 1214 1074 l 1215 1065 l 1215 15 l 1413 15 l 1413 1029 l 1207 1278 l 883 1278 l 772 1143 l 661 1278 l 338 1278 z m 699 -287 l 904 -287 l 904 -86 l 699 -86 z "},"n":{"ha":1078,"x_min":0,"x_max":0,"o":"m 126 1264 l 126 0 l 358 0 l 358 725 l 718 294 l 718 0 l 950 0 l 950 1264 l 718 1264 l 718 575 l 358 1003 l 358 1264 z "},"ń":{"ha":1078,"x_min":0,"x_max":0,"o":"m 126 1264 l 126 0 l 358 0 l 358 725 l 718 294 l 718 0 l 950 0 l 950 1264 l 718 1264 l 718 575 l 358 1003 l 358 1264 z m 360 1296 l 828 1394 l 828 1521 l 360 1422 z "},"ň":{"ha":1078,"x_min":0,"x_max":0,"o":"m 126 1264 l 126 0 l 358 0 l 358 725 l 718 294 l 718 0 l 950 0 l 950 1264 l 718 1264 l 718 575 l 358 1003 l 358 1264 z m 313 1406 l 536 1310 l 536 1307 l 540 1308 l 543 1307 l 543 1310 l 767 1406 l 767 1532 l 540 1435 l 313 1532 z "},"ṋ":{"ha":1078,"x_min":0,"x_max":0,"o":"m 126 1264 l 126 0 l 358 0 l 358 725 l 718 294 l 718 0 l 950 0 l 950 1264 l 718 1264 l 718 575 l 358 1003 l 358 1264 z m 311 -268 l 539 -171 l 765 -268 l 765 -142 l 542 -46 l 542 -43 l 539 -44 l 535 -43 l 535 -46 l 311 -142 z "},"ņ":{"ha":1078,"x_min":0,"x_max":0,"o":"m 126 1264 l 126 0 l 358 0 l 358 725 l 718 294 l 718 0 l 950 0 l 950 1264 l 718 1264 l 718 575 l 358 1003 l 358 1264 z m 453 -258 l 625 -258 l 625 49 l 453 49 z "},"ṅ":{"ha":1078,"x_min":0,"x_max":0,"o":"m 126 1264 l 126 0 l 358 0 l 358 725 l 718 294 l 718 0 l 950 0 l 950 1264 l 718 1264 l 718 575 l 358 1003 l 358 1264 z m 436 1350 l 642 1350 l 642 1551 l 436 1551 z "},"ṇ":{"ha":1078,"x_min":0,"x_max":0,"o":"m 126 1264 l 126 0 l 358 0 l 358 725 l 718 294 l 718 0 l 950 0 l 950 1264 l 718 1264 l 718 575 l 358 1003 l 358 1264 z m 436 -287 l 642 -287 l 642 -86 l 436 -86 z "},"ṉ":{"ha":1078,"x_min":0,"x_max":0,"o":"m 126 1264 l 126 0 l 358 0 l 358 725 l 718 294 l 718 0 l 950 0 l 950 1264 l 718 1264 l 718 575 l 358 1003 l 358 1264 z m 253 -253 l 828 -253 l 828 -89 l 253 -89 z "},"ñ":{"ha":1078,"x_min":0,"x_max":0,"o":"m 126 1264 l 126 0 l 358 0 l 358 725 l 718 294 l 718 0 l 950 0 l 950 1264 l 718 1264 l 718 575 l 358 1003 l 358 1264 z m 250 1353 l 825 1353 l 825 1517 l 250 1517 z "},"ŋ":{"ha":1078,"x_min":0,"x_max":0,"o":"m 126 1264 l 126 0 l 358 0 l 358 725 l 718 294 l 718 0 l 950 0 l 950 1264 l 718 1264 l 718 575 l 358 1003 l 358 1264 z "},"o":{"ha":1115,"x_min":0,"x_max":0,"o":"m 358 213 l 358 1051 l 360 1060 l 756 1060 l 757 1051 l 757 213 l 756 204 l 360 204 z m 126 249 l 368 0 l 747 0 l 989 249 l 989 1015 l 747 1264 l 368 1264 l 126 1015 z "},"ó":{"ha":1115,"x_min":0,"x_max":0,"o":"m 358 213 l 358 1051 l 360 1060 l 756 1060 l 757 1051 l 757 213 l 756 204 l 360 204 z m 126 249 l 368 0 l 747 0 l 989 249 l 989 1015 l 747 1264 l 368 1264 l 126 1015 z m 378 1296 l 846 1394 l 846 1521 l 378 1422 z "},"ǒ":{"ha":1115,"x_min":0,"x_max":0,"o":"m 358 213 l 358 1051 l 360 1060 l 756 1060 l 757 1051 l 757 213 l 756 204 l 360 204 z m 126 249 l 368 0 l 747 0 l 989 249 l 989 1015 l 747 1264 l 368 1264 l 126 1015 z m 331 1406 l 554 1310 l 554 1307 l 558 1308 l 561 1307 l 561 1310 l 785 1406 l 785 1532 l 558 1435 l 331 1532 z "},"ô":{"ha":1115,"x_min":0,"x_max":0,"o":"m 358 213 l 358 1051 l 360 1060 l 756 1060 l 757 1051 l 757 213 l 756 204 l 360 204 z m 126 249 l 368 0 l 747 0 l 989 249 l 989 1015 l 747 1264 l 368 1264 l 126 1015 z m 331 1310 l 558 1407 l 785 1310 l 785 1436 l 561 1532 l 561 1535 l 558 1533 l 554 1535 l 554 1532 l 331 1436 z "},"ố":{"ha":1115,"x_min":0,"x_max":0,"o":"m 358 213 l 358 1051 l 360 1060 l 756 1060 l 757 1051 l 757 213 l 756 204 l 360 204 z m 126 249 l 368 0 l 747 0 l 989 249 l 989 1015 l 747 1264 l 368 1264 l 126 1015 z m 331 1310 l 558 1407 l 785 1310 l 785 1436 l 561 1532 l 561 1535 l 558 1533 l 554 1535 l 554 1532 l 331 1436 z m 378 1567 l 846 1665 l 846 1792 l 378 1693 z "},"ộ":{"ha":1115,"x_min":0,"x_max":0,"o":"m 358 213 l 358 1051 l 360 1060 l 756 1060 l 757 1051 l 757 213 l 756 204 l 360 204 z m 126 249 l 368 0 l 747 0 l 989 249 l 989 1015 l 747 1264 l 368 1264 l 126 1015 z m 331 1310 l 558 1407 l 785 1310 l 785 1436 l 561 1532 l 561 1535 l 558 1533 l 554 1535 l 554 1532 l 331 1436 z m 454 -287 l 660 -287 l 660 -86 l 454 -86 z "},"ồ":{"ha":1115,"x_min":0,"x_max":0,"o":"m 358 213 l 358 1051 l 360 1060 l 756 1060 l 757 1051 l 757 213 l 756 204 l 360 204 z m 126 249 l 368 0 l 747 0 l 989 249 l 989 1015 l 747 1264 l 368 1264 l 126 1015 z m 269 1665 l 738 1567 l 738 1693 l 269 1792 z m 331 1310 l 558 1407 l 785 1310 l 785 1436 l 561 1532 l 561 1535 l 558 1533 l 554 1535 l 554 1532 l 331 1436 z "},"ổ":{"ha":1115,"x_min":0,"x_max":0,"o":"m 358 213 l 358 1051 l 360 1060 l 756 1060 l 757 1051 l 757 213 l 756 204 l 360 204 z m 126 249 l 368 0 l 747 0 l 989 249 l 989 1015 l 747 1264 l 368 1264 l 126 1015 z m 331 1310 l 558 1407 l 785 1310 l 785 1436 l 561 1532 l 561 1535 l 558 1533 l 554 1535 l 554 1532 l 331 1436 z m 490 1603 l 628 1603 l 628 1847 l 490 1847 z "},"ỗ":{"ha":1115,"x_min":0,"x_max":0,"o":"m 358 213 l 358 1051 l 360 1060 l 756 1060 l 757 1051 l 757 213 l 756 204 l 360 204 z m 126 249 l 368 0 l 747 0 l 989 249 l 989 1015 l 747 1264 l 368 1264 l 126 1015 z m 268 1624 l 844 1624 l 844 1788 l 268 1788 z m 331 1310 l 558 1407 l 785 1310 l 785 1436 l 561 1532 l 561 1535 l 558 1533 l 554 1535 l 554 1532 l 331 1436 z "},"ö":{"ha":1115,"x_min":0,"x_max":0,"o":"m 358 213 l 358 1051 l 360 1060 l 756 1060 l 757 1051 l 757 213 l 756 204 l 360 204 z m 126 249 l 368 0 l 747 0 l 989 249 l 989 1015 l 747 1264 l 368 1264 l 126 1015 z m 294 1350 l 500 1350 l 500 1551 l 294 1551 z m 611 1350 l 817 1350 l 817 1551 l 611 1551 z "},"ȫ":{"ha":1115,"x_min":0,"x_max":0,"o":"m 358 213 l 358 1051 l 360 1060 l 756 1060 l 757 1051 l 757 213 l 756 204 l 360 204 z m 126 249 l 368 0 l 747 0 l 989 249 l 989 1015 l 747 1264 l 368 1264 l 126 1015 z m 268 1640 l 843 1640 l 843 1804 l 268 1804 z m 294 1350 l 500 1350 l 500 1551 l 294 1551 z m 611 1350 l 817 1350 l 817 1551 l 611 1551 z "},"ọ":{"ha":1115,"x_min":0,"x_max":0,"o":"m 358 213 l 358 1051 l 360 1060 l 756 1060 l 757 1051 l 757 213 l 756 204 l 360 204 z m 126 249 l 368 0 l 747 0 l 989 249 l 989 1015 l 747 1264 l 368 1264 l 126 1015 z m 454 -287 l 660 -287 l 660 -86 l 454 -86 z "},"ò":{"ha":1115,"x_min":0,"x_max":0,"o":"m 358 213 l 358 1051 l 360 1060 l 756 1060 l 757 1051 l 757 213 l 756 204 l 360 204 z m 126 249 l 368 0 l 747 0 l 989 249 l 989 1015 l 747 1264 l 368 1264 l 126 1015 z m 268 1394 l 736 1296 l 736 1422 l 268 1521 z "},"ỏ":{"ha":1115,"x_min":0,"x_max":0,"o":"m 358 213 l 358 1051 l 360 1060 l 756 1060 l 757 1051 l 757 213 l 756 204 l 360 204 z m 126 249 l 368 0 l 747 0 l 989 249 l 989 1015 l 747 1264 l 368 1264 l 126 1015 z m 489 1332 l 626 1332 l 626 1576 l 489 1576 z "},"ơ":{"ha":1115,"x_min":0,"x_max":0,"o":"m 358 213 l 358 1051 l 360 1060 l 756 1060 l 757 1051 l 757 213 l 756 204 l 360 204 z m 126 249 l 368 0 l 747 0 l 989 249 l 989 1015 l 1169 1399 l 1031 1399 l 894 1113 l 747 1264 l 368 1264 l 126 1015 z "},"ớ":{"ha":1115,"x_min":0,"x_max":0,"o":"m 358 213 l 358 1051 l 360 1060 l 756 1060 l 757 1051 l 757 213 l 756 204 l 360 204 z m 126 249 l 368 0 l 747 0 l 989 249 l 989 1015 l 1169 1399 l 1031 1399 l 894 1113 l 747 1264 l 368 1264 l 126 1015 z m 378 1296 l 846 1394 l 846 1521 l 378 1422 z "},"ợ":{"ha":1115,"x_min":0,"x_max":0,"o":"m 358 213 l 358 1051 l 360 1060 l 756 1060 l 757 1051 l 757 213 l 756 204 l 360 204 z m 126 249 l 368 0 l 747 0 l 989 249 l 989 1015 l 1169 1399 l 1031 1399 l 894 1113 l 747 1264 l 368 1264 l 126 1015 z m 454 -287 l 660 -287 l 660 -86 l 454 -86 z "},"ờ":{"ha":1115,"x_min":0,"x_max":0,"o":"m 358 213 l 358 1051 l 360 1060 l 756 1060 l 757 1051 l 757 213 l 756 204 l 360 204 z m 126 249 l 368 0 l 747 0 l 989 249 l 989 1015 l 1169 1399 l 1031 1399 l 894 1113 l 747 1264 l 368 1264 l 126 1015 z m 268 1394 l 736 1296 l 736 1422 l 268 1521 z "},"ở":{"ha":1115,"x_min":0,"x_max":0,"o":"m 358 213 l 358 1051 l 360 1060 l 756 1060 l 757 1051 l 757 213 l 756 204 l 360 204 z m 126 249 l 368 0 l 747 0 l 989 249 l 989 1015 l 1169 1399 l 1031 1399 l 894 1113 l 747 1264 l 368 1264 l 126 1015 z m 489 1332 l 626 1332 l 626 1576 l 489 1576 z "},"ỡ":{"ha":1115,"x_min":0,"x_max":0,"o":"m 358 213 l 358 1051 l 360 1060 l 756 1060 l 757 1051 l 757 213 l 756 204 l 360 204 z m 126 249 l 368 0 l 747 0 l 989 249 l 989 1015 l 1169 1399 l 1031 1399 l 894 1113 l 747 1264 l 368 1264 l 126 1015 z m 268 1353 l 843 1353 l 843 1517 l 268 1517 z "},"ő":{"ha":1115,"x_min":0,"x_max":0,"o":"m 358 213 l 358 1051 l 360 1060 l 756 1060 l 757 1051 l 757 213 l 756 204 l 360 204 z m 126 249 l 368 0 l 747 0 l 989 249 l 989 1015 l 747 1264 l 368 1264 l 126 1015 z m 289 1296 l 549 1394 l 549 1521 l 289 1422 z m 567 1296 l 825 1394 l 825 1521 l 567 1422 z "},"ō":{"ha":1115,"x_min":0,"x_max":0,"o":"m 358 213 l 358 1051 l 360 1060 l 756 1060 l 757 1051 l 757 213 l 756 204 l 360 204 z m 126 249 l 368 0 l 747 0 l 989 249 l 989 1015 l 747 1264 l 368 1264 l 126 1015 z m 268 1353 l 843 1353 l 843 1517 l 268 1517 z "},"ṓ":{"ha":1115,"x_min":0,"x_max":0,"o":"m 358 213 l 358 1051 l 360 1060 l 756 1060 l 757 1051 l 757 213 l 756 204 l 360 204 z m 126 249 l 368 0 l 747 0 l 989 249 l 989 1015 l 747 1264 l 368 1264 l 126 1015 z m 268 1353 l 843 1353 l 843 1517 l 268 1517 z m 378 1531 l 846 1629 l 846 1756 l 378 1657 z "},"ṑ":{"ha":1115,"x_min":0,"x_max":0,"o":"m 358 213 l 358 1051 l 360 1060 l 756 1060 l 757 1051 l 757 213 l 756 204 l 360 204 z m 126 249 l 368 0 l 747 0 l 989 249 l 989 1015 l 747 1264 l 368 1264 l 126 1015 z m 268 1353 l 843 1353 l 843 1517 l 268 1517 z m 268 1629 l 736 1531 l 736 1657 l 268 1756 z "},"ɔ":{"ha":1047,"x_min":0,"x_max":0,"o":"m 689 1051 l 689 213 l 688 204 l 353 204 l 326 236 l 326 538 l 126 538 l 126 211 l 326 0 l 679 0 l 921 249 l 921 1015 l 679 1264 l 326 1264 l 126 1053 l 126 726 l 326 726 l 326 1024 l 353 1060 l 688 1060 z "},"ø":{"ha":1115,"x_min":0,"x_max":0,"o":"m 358 443 l 358 1051 l 360 1060 l 628 1060 z m 126 249 l 228 144 l 165 0 l 747 0 l 989 249 l 989 1015 l 886 1121 l 949 1264 l 368 1264 l 126 1015 z m 486 204 l 757 825 l 757 213 l 756 204 z "},"ǿ":{"ha":1115,"x_min":0,"x_max":0,"o":"m 358 443 l 358 1051 l 360 1060 l 628 1060 z m 126 249 l 228 144 l 165 0 l 747 0 l 989 249 l 989 1015 l 886 1121 l 949 1264 l 368 1264 l 126 1015 z m 381 1296 l 849 1394 l 849 1521 l 381 1422 z m 486 204 l 757 825 l 757 213 l 756 204 z "},"õ":{"ha":1115,"x_min":0,"x_max":0,"o":"m 358 213 l 358 1051 l 360 1060 l 756 1060 l 757 1051 l 757 213 l 756 204 l 360 204 z m 126 249 l 368 0 l 747 0 l 989 249 l 989 1015 l 747 1264 l 368 1264 l 126 1015 z m 268 1353 l 843 1353 l 843 1517 l 268 1517 z "},"ṍ":{"ha":1115,"x_min":0,"x_max":0,"o":"m 358 213 l 358 1051 l 360 1060 l 756 1060 l 757 1051 l 757 213 l 756 204 l 360 204 z m 126 249 l 368 0 l 747 0 l 989 249 l 989 1015 l 747 1264 l 368 1264 l 126 1015 z m 268 1353 l 843 1353 l 843 1517 l 268 1517 z m 378 1531 l 846 1629 l 846 1756 l 378 1657 z "},"œ":{"ha":1660,"x_min":0,"x_max":0,"o":"m 358 213 l 358 1051 l 360 1060 l 756 1060 l 756 204 l 360 204 z m 126 249 l 368 0 l 747 0 l 756 8 l 756 0 l 1532 0 l 1532 203 l 988 203 l 988 247 l 989 249 l 989 563 l 1431 563 l 1431 733 l 989 733 l 989 1015 l 988 1017 l 988 1061 l 1532 1061 l 1532 1264 l 756 1264 l 756 1256 l 747 1264 l 368 1264 l 126 1015 z "},"p":{"ha":1036,"x_min":0,"x_max":0,"o":"m 126 1264 l 126 0 l 358 0 l 358 342 l 668 342 l 910 590 l 910 1015 l 668 1264 z m 358 546 l 358 1060 l 676 1060 l 678 1051 l 678 554 l 676 546 z "},"þ":{"ha":1050,"x_min":0,"x_max":0,"o":"m 126 1264 l 126 0 l 358 0 l 358 181 l 671 181 l 913 429 l 913 819 l 671 1068 l 358 1068 l 358 1264 z m 358 385 l 358 864 l 679 864 l 681 856 l 681 393 l 679 385 z "},"q":{"ha":1115,"x_min":0,"x_max":0,"o":"m 358 213 l 358 1051 l 360 1060 l 756 1060 l 757 1051 l 757 213 l 756 204 l 360 204 z m 126 249 l 368 0 l 460 0 l 460 -126 l 656 -126 l 656 0 l 747 0 l 989 249 l 989 1015 l 747 1264 l 368 1264 l 126 1015 z "},"r":{"ha":1043,"x_min":0,"x_max":0,"o":"m 126 1264 l 126 0 l 358 0 l 358 553 l 682 553 l 683 547 l 683 0 l 915 0 l 915 519 l 767 636 l 915 753 l 915 1074 l 728 1264 z m 358 718 l 358 1068 l 681 1068 l 683 1054 l 683 725 l 682 718 z "},"ŕ":{"ha":1043,"x_min":0,"x_max":0,"o":"m 126 1264 l 126 0 l 358 0 l 358 553 l 682 553 l 683 547 l 683 0 l 915 0 l 915 519 l 767 636 l 915 753 l 915 1074 l 728 1264 z m 343 1296 l 811 1394 l 811 1521 l 343 1422 z m 358 718 l 358 1068 l 681 1068 l 683 1054 l 683 725 l 682 718 z "},"ř":{"ha":1043,"x_min":0,"x_max":0,"o":"m 126 1264 l 126 0 l 358 0 l 358 553 l 682 553 l 683 547 l 683 0 l 915 0 l 915 519 l 767 636 l 915 753 l 915 1074 l 728 1264 z m 296 1406 l 519 1310 l 519 1307 l 524 1308 l 526 1307 l 526 1310 l 750 1406 l 750 1532 l 524 1435 l 296 1532 z m 358 718 l 358 1068 l 681 1068 l 683 1054 l 683 725 l 682 718 z "},"ŗ":{"ha":1043,"x_min":0,"x_max":0,"o":"m 126 1264 l 126 0 l 358 0 l 358 553 l 682 553 l 683 547 l 683 0 l 915 0 l 915 519 l 767 636 l 915 753 l 915 1074 l 728 1264 z m 358 718 l 358 1068 l 681 1068 l 683 1054 l 683 725 l 682 718 z m 436 -258 l 608 -258 l 608 49 l 436 49 z "},"ṝ":{"ha":1043,"x_min":0,"x_max":0,"o":"m 126 1264 l 126 0 l 358 0 l 358 553 l 682 553 l 683 547 l 683 0 l 915 0 l 915 519 l 767 636 l 915 753 l 915 1074 l 728 1264 z m 233 1353 l 808 1353 l 808 1517 l 233 1517 z m 358 718 l 358 1068 l 681 1068 l 683 1054 l 683 725 l 682 718 z m 419 -287 l 625 -287 l 625 -86 l 419 -86 z "},"ṟ":{"ha":1043,"x_min":0,"x_max":0,"o":"m 126 1264 l 126 0 l 358 0 l 358 553 l 682 553 l 683 547 l 683 0 l 915 0 l 915 519 l 767 636 l 915 753 l 915 1074 l 728 1264 z m 236 -253 l 811 -253 l 811 -89 l 236 -89 z m 358 718 l 358 1068 l 681 1068 l 683 1054 l 683 725 l 682 718 z "},"s":{"ha":1093,"x_min":0,"x_max":0,"o":"m 364 707 l 364 1113 l 365 1118 l 749 1118 l 750 1113 l 750 813 l 956 813 l 956 1086 l 742 1264 l 374 1264 l 139 1088 l 139 732 l 374 557 l 692 557 l 692 575 l 715 575 l 717 569 l 717 163 l 715 157 l 385 157 l 385 156 l 332 156 l 332 482 l 128 482 l 128 190 l 340 0 l 708 0 l 946 190 l 946 483 l 944 483 l 944 544 l 707 718 l 386 718 l 386 700 l 365 700 z "},"ś":{"ha":1093,"x_min":0,"x_max":0,"o":"m 364 707 l 364 1113 l 365 1118 l 749 1118 l 750 1113 l 750 813 l 956 813 l 956 1086 l 742 1264 l 374 1264 l 139 1088 l 139 732 l 374 557 l 692 557 l 692 575 l 715 575 l 717 569 l 717 163 l 715 157 l 385 157 l 385 156 l 332 156 l 332 482 l 128 482 l 128 190 l 340 0 l 708 0 l 946 190 l 946 483 l 944 483 l 944 544 l 707 718 l 386 718 l 386 700 l 365 700 z m 364 1296 l 832 1394 l 832 1521 l 364 1422 z "},"ꞌ":{"ha":485,"x_min":0,"x_max":0,"o":"m 126 296 l 358 296 l 358 1278 l 126 1278 z "},"š":{"ha":1093,"x_min":0,"x_max":0,"o":"m 364 707 l 364 1113 l 365 1118 l 749 1118 l 750 1113 l 750 813 l 956 813 l 956 1086 l 742 1264 l 374 1264 l 139 1088 l 139 732 l 374 557 l 692 557 l 692 575 l 715 575 l 717 569 l 717 163 l 715 157 l 385 157 l 385 156 l 332 156 l 332 482 l 128 482 l 128 190 l 340 0 l 708 0 l 946 190 l 946 483 l 944 483 l 944 544 l 707 718 l 386 718 l 386 700 l 365 700 z m 317 1406 l 540 1310 l 540 1307 l 544 1308 l 547 1307 l 547 1310 l 771 1406 l 771 1532 l 544 1435 l 317 1532 z "},"ş":{"ha":1093,"x_min":0,"x_max":0,"o":"m 364 707 l 364 1113 l 365 1118 l 749 1118 l 750 1113 l 750 813 l 956 813 l 956 1086 l 742 1264 l 374 1264 l 139 1088 l 139 732 l 374 557 l 692 557 l 692 575 l 715 575 l 717 569 l 717 163 l 715 157 l 385 157 l 385 156 l 332 156 l 332 482 l 128 482 l 128 190 l 340 0 l 457 0 l 457 -258 l 629 -258 l 629 0 l 708 0 l 946 190 l 946 483 l 944 483 l 944 544 l 707 718 l 386 718 l 386 700 l 365 700 z "},"ŝ":{"ha":1093,"x_min":0,"x_max":0,"o":"m 364 707 l 364 1113 l 365 1118 l 749 1118 l 750 1113 l 750 813 l 956 813 l 956 1086 l 742 1264 l 374 1264 l 139 1088 l 139 732 l 374 557 l 692 557 l 692 575 l 715 575 l 717 569 l 717 163 l 715 157 l 385 157 l 385 156 l 332 156 l 332 482 l 128 482 l 128 190 l 340 0 l 708 0 l 946 190 l 946 483 l 944 483 l 944 544 l 707 718 l 386 718 l 386 700 l 365 700 z m 317 1310 l 544 1407 l 771 1310 l 771 1436 l 547 1532 l 547 1535 l 544 1533 l 540 1535 l 540 1532 l 317 1436 z "},"ș":{"ha":1093,"x_min":0,"x_max":0,"o":"m 364 707 l 364 1113 l 365 1118 l 749 1118 l 750 1113 l 750 813 l 956 813 l 956 1086 l 742 1264 l 374 1264 l 139 1088 l 139 732 l 374 557 l 692 557 l 692 575 l 715 575 l 717 569 l 717 163 l 715 157 l 385 157 l 385 156 l 332 156 l 332 482 l 128 482 l 128 190 l 340 0 l 457 0 l 457 -258 l 629 -258 l 629 0 l 708 0 l 946 190 l 946 483 l 944 483 l 944 544 l 707 718 l 386 718 l 386 700 l 365 700 z "},"ṣ":{"ha":1093,"x_min":0,"x_max":0,"o":"m 364 707 l 364 1113 l 365 1118 l 749 1118 l 750 1113 l 750 813 l 956 813 l 956 1086 l 742 1264 l 374 1264 l 139 1088 l 139 732 l 374 557 l 692 557 l 692 575 l 715 575 l 717 569 l 717 163 l 715 157 l 385 157 l 385 156 l 332 156 l 332 482 l 128 482 l 128 190 l 340 0 l 708 0 l 946 190 l 946 483 l 944 483 l 944 544 l 707 718 l 386 718 l 386 700 l 365 700 z m 440 -287 l 646 -287 l 646 -86 l 440 -86 z "},"ß":{"ha":1051,"x_min":0,"x_max":0,"o":"m 126 1264 l 126 0 l 358 0 l 358 1061 l 681 1061 l 683 1057 l 683 731 l 682 732 l 503 732 l 503 553 l 682 553 l 683 550 l 683 214 l 681 204 l 496 204 l 496 0 l 729 0 l 917 194 l 917 521 l 767 642 l 917 760 l 917 1075 l 729 1264 z "},"t":{"ha":989,"x_min":0,"x_max":0,"o":"m 915 1264 l 72 1264 l 72 1061 l 378 1061 l 378 0 l 610 0 l 610 1061 l 915 1061 z "},"ŧ":{"ha":989,"x_min":0,"x_max":0,"o":"m 915 1264 l 72 1264 l 72 1061 l 378 1061 l 378 688 l 185 688 l 185 508 l 378 508 l 378 0 l 610 0 l 610 508 l 789 508 l 789 688 l 610 688 l 610 1061 l 915 1061 z "},"ť":{"ha":989,"x_min":0,"x_max":0,"o":"m 410 1264 l 72 1264 l 72 1061 l 378 1061 l 378 0 l 610 0 l 610 1061 l 915 1061 l 915 1264 l 582 1264 l 582 1536 l 410 1536 z "},"ţ":{"ha":989,"x_min":0,"x_max":0,"o":"m 915 1264 l 72 1264 l 72 1061 l 378 1061 l 378 0 l 410 0 l 410 -258 l 582 -258 l 582 0 l 610 0 l 610 1061 l 915 1061 z "},"ṱ":{"ha":989,"x_min":0,"x_max":0,"o":"m 915 1264 l 72 1264 l 72 1061 l 378 1061 l 378 0 l 610 0 l 610 1061 l 915 1061 z m 268 -268 l 496 -171 l 722 -268 l 722 -142 l 499 -46 l 499 -43 l 496 -44 l 492 -43 l 492 -46 l 268 -142 z "},"ț":{"ha":989,"x_min":0,"x_max":0,"o":"m 915 1264 l 72 1264 l 72 1061 l 378 1061 l 378 0 l 410 0 l 410 -258 l 582 -258 l 582 0 l 610 0 l 610 1061 l 915 1061 z "},"ẗ":{"ha":989,"x_min":0,"x_max":0,"o":"m 915 1264 l 72 1264 l 72 1061 l 378 1061 l 378 0 l 610 0 l 610 1061 l 915 1061 z m 233 1350 l 439 1350 l 439 1551 l 233 1551 z m 550 1350 l 756 1350 l 756 1551 l 550 1551 z "},"ṭ":{"ha":989,"x_min":0,"x_max":0,"o":"m 915 1264 l 72 1264 l 72 1061 l 378 1061 l 378 0 l 610 0 l 610 1061 l 915 1061 z m 393 -287 l 599 -287 l 599 -86 l 393 -86 z "},"ṯ":{"ha":989,"x_min":0,"x_max":0,"o":"m 915 1264 l 72 1264 l 72 1061 l 378 1061 l 378 0 l 610 0 l 610 1061 l 915 1061 z m 210 -253 l 785 -253 l 785 -89 l 210 -89 z "},"u":{"ha":1115,"x_min":0,"x_max":0,"o":"m 126 1264 l 126 249 l 368 0 l 747 0 l 989 249 l 989 1263 l 757 1263 l 757 213 l 756 204 l 360 204 l 358 213 l 358 1264 z "},"ú":{"ha":1115,"x_min":0,"x_max":0,"o":"m 126 1264 l 126 249 l 368 0 l 747 0 l 989 249 l 989 1263 l 757 1263 l 757 213 l 756 204 l 360 204 l 358 213 l 358 1264 z m 378 1296 l 846 1394 l 846 1521 l 378 1422 z "},"ʉ":{"ha":1115,"x_min":0,"x_max":0,"o":"m 989 263 l 989 1278 l 757 1278 l 757 871 l 358 871 l 358 1276 l 126 1276 l 126 263 l 368 14 l 747 14 z m 358 226 l 358 663 l 757 663 l 757 226 l 756 218 l 360 218 z "},"ŭ":{"ha":1115,"x_min":0,"x_max":0,"o":"m 126 1264 l 126 249 l 368 0 l 747 0 l 989 249 l 989 1263 l 757 1263 l 757 213 l 756 204 l 360 204 l 358 213 l 358 1264 z m 369 1297 l 743 1297 l 743 1494 l 635 1494 l 635 1406 l 478 1406 l 478 1494 l 369 1494 z "},"ǔ":{"ha":1115,"x_min":0,"x_max":0,"o":"m 126 1264 l 126 249 l 368 0 l 747 0 l 989 249 l 989 1263 l 757 1263 l 757 213 l 756 204 l 360 204 l 358 213 l 358 1264 z m 331 1406 l 554 1310 l 554 1307 l 558 1308 l 561 1307 l 561 1310 l 785 1406 l 785 1532 l 558 1435 l 331 1532 z "},"û":{"ha":1115,"x_min":0,"x_max":0,"o":"m 126 1264 l 126 249 l 368 0 l 747 0 l 989 249 l 989 1263 l 757 1263 l 757 213 l 756 204 l 360 204 l 358 213 l 358 1264 z m 331 1310 l 558 1407 l 785 1310 l 785 1436 l 561 1532 l 561 1535 l 558 1533 l 554 1535 l 554 1532 l 331 1436 z "},"ü":{"ha":1115,"x_min":0,"x_max":0,"o":"m 126 1264 l 126 249 l 368 0 l 747 0 l 989 249 l 989 1263 l 757 1263 l 757 213 l 756 204 l 360 204 l 358 213 l 358 1264 z m 294 1350 l 500 1350 l 500 1551 l 294 1551 z m 611 1350 l 817 1350 l 817 1551 l 611 1551 z "},"ǘ":{"ha":1115,"x_min":0,"x_max":0,"o":"m 126 1264 l 126 249 l 368 0 l 747 0 l 989 249 l 989 1263 l 757 1263 l 757 213 l 756 204 l 360 204 l 358 213 l 358 1264 z m 294 1350 l 500 1350 l 500 1551 l 294 1551 z m 378 1583 l 846 1682 l 846 1808 l 378 1710 z m 611 1350 l 817 1350 l 817 1551 l 611 1551 z "},"ǚ":{"ha":1115,"x_min":0,"x_max":0,"o":"m 126 1264 l 126 249 l 368 0 l 747 0 l 989 249 l 989 1263 l 757 1263 l 757 213 l 756 204 l 360 204 l 358 213 l 358 1264 z m 294 1350 l 500 1350 l 500 1551 l 294 1551 z m 331 1693 l 554 1597 l 554 1594 l 558 1596 l 561 1594 l 561 1597 l 785 1693 l 785 1819 l 558 1722 l 331 1819 z m 611 1350 l 817 1350 l 817 1551 l 611 1551 z "},"ǜ":{"ha":1115,"x_min":0,"x_max":0,"o":"m 126 1264 l 126 249 l 368 0 l 747 0 l 989 249 l 989 1263 l 757 1263 l 757 213 l 756 204 l 360 204 l 358 213 l 358 1264 z m 268 1682 l 736 1583 l 736 1710 l 268 1808 z m 294 1350 l 500 1350 l 500 1551 l 294 1551 z m 611 1350 l 817 1350 l 817 1551 l 611 1551 z "},"ǖ":{"ha":1115,"x_min":0,"x_max":0,"o":"m 126 1264 l 126 249 l 368 0 l 747 0 l 989 249 l 989 1263 l 757 1263 l 757 213 l 756 204 l 360 204 l 358 213 l 358 1264 z m 268 1640 l 843 1640 l 843 1804 l 268 1804 z m 294 1350 l 500 1350 l 500 1551 l 294 1551 z m 611 1350 l 817 1350 l 817 1551 l 611 1551 z "},"ụ":{"ha":1115,"x_min":0,"x_max":0,"o":"m 126 1264 l 126 249 l 368 0 l 747 0 l 989 249 l 989 1263 l 757 1263 l 757 213 l 756 204 l 360 204 l 358 213 l 358 1264 z m 454 -287 l 660 -287 l 660 -86 l 454 -86 z "},"ù":{"ha":1115,"x_min":0,"x_max":0,"o":"m 126 1264 l 126 249 l 368 0 l 747 0 l 989 249 l 989 1263 l 757 1263 l 757 213 l 756 204 l 360 204 l 358 213 l 358 1264 z m 268 1394 l 736 1296 l 736 1422 l 268 1521 z "},"ủ":{"ha":1115,"x_min":0,"x_max":0,"o":"m 126 1264 l 126 249 l 368 0 l 747 0 l 989 249 l 989 1263 l 757 1263 l 757 213 l 756 204 l 360 204 l 358 213 l 358 1264 z m 489 1332 l 626 1332 l 626 1576 l 489 1576 z "},"ư":{"ha":1115,"x_min":0,"x_max":0,"o":"m 126 1264 l 126 249 l 368 0 l 747 0 l 989 249 l 989 1143 l 990 1143 l 1171 1526 l 1032 1526 l 907 1263 l 757 1263 l 757 213 l 756 204 l 360 204 l 358 213 l 358 1264 z "},"ứ":{"ha":1115,"x_min":0,"x_max":0,"o":"m 126 1264 l 126 249 l 368 0 l 747 0 l 989 249 l 989 1143 l 990 1143 l 1171 1526 l 1032 1526 l 907 1263 l 757 1263 l 757 213 l 756 204 l 360 204 l 358 213 l 358 1264 z m 378 1296 l 846 1394 l 846 1521 l 378 1422 z "},"ự":{"ha":1115,"x_min":0,"x_max":0,"o":"m 126 1264 l 126 249 l 368 0 l 747 0 l 989 249 l 989 1143 l 990 1143 l 1171 1526 l 1032 1526 l 907 1263 l 757 1263 l 757 213 l 756 204 l 360 204 l 358 213 l 358 1264 z m 454 -287 l 660 -287 l 660 -86 l 454 -86 z "},"ừ":{"ha":1115,"x_min":0,"x_max":0,"o":"m 126 1264 l 126 249 l 368 0 l 747 0 l 989 249 l 989 1143 l 990 1143 l 1171 1526 l 1032 1526 l 907 1263 l 757 1263 l 757 213 l 756 204 l 360 204 l 358 213 l 358 1264 z m 268 1394 l 736 1296 l 736 1422 l 268 1521 z "},"ử":{"ha":1115,"x_min":0,"x_max":0,"o":"m 126 1264 l 126 249 l 368 0 l 747 0 l 989 249 l 989 1143 l 990 1143 l 1171 1526 l 1032 1526 l 907 1263 l 757 1263 l 757 213 l 756 204 l 360 204 l 358 213 l 358 1264 z m 489 1332 l 626 1332 l 626 1576 l 489 1576 z "},"ữ":{"ha":1115,"x_min":0,"x_max":0,"o":"m 126 1264 l 126 249 l 368 0 l 747 0 l 989 249 l 989 1143 l 990 1143 l 1171 1526 l 1032 1526 l 907 1263 l 757 1263 l 757 213 l 756 204 l 360 204 l 358 213 l 358 1264 z m 268 1353 l 843 1353 l 843 1517 l 268 1517 z "},"ű":{"ha":1115,"x_min":0,"x_max":0,"o":"m 126 1264 l 126 249 l 368 0 l 747 0 l 989 249 l 989 1263 l 757 1263 l 757 213 l 756 204 l 360 204 l 358 213 l 358 1264 z m 289 1296 l 549 1394 l 549 1521 l 289 1422 z m 567 1296 l 825 1394 l 825 1521 l 567 1422 z "},"ū":{"ha":1115,"x_min":0,"x_max":0,"o":"m 126 1264 l 126 249 l 368 0 l 747 0 l 989 249 l 989 1263 l 757 1263 l 757 213 l 756 204 l 360 204 l 358 213 l 358 1264 z m 268 1353 l 843 1353 l 843 1517 l 268 1517 z "},"ų":{"ha":1115,"x_min":0,"x_max":0,"o":"m 126 1264 l 126 249 l 368 0 l 471 0 l 471 -258 l 643 -258 l 643 0 l 747 0 l 989 249 l 989 1263 l 757 1263 l 757 213 l 756 204 l 360 204 l 358 213 l 358 1264 z "},"ů":{"ha":1115,"x_min":0,"x_max":0,"o":"m 126 1264 l 126 249 l 368 0 l 747 0 l 989 249 l 989 1263 l 757 1263 l 757 213 l 756 204 l 360 204 l 358 213 l 358 1264 z m 454 1350 l 660 1350 l 660 1551 l 454 1551 z "},"ũ":{"ha":1115,"x_min":0,"x_max":0,"o":"m 126 1264 l 126 249 l 368 0 l 747 0 l 989 249 l 989 1263 l 757 1263 l 757 213 l 756 204 l 360 204 l 358 213 l 358 1264 z m 268 1353 l 843 1353 l 843 1517 l 268 1517 z "},"v":{"ha":1115,"x_min":0,"x_max":0,"o":"m 126 1264 l 126 249 l 368 0 l 747 0 l 989 249 l 989 1263 l 757 1263 l 757 213 l 756 204 l 360 204 l 358 213 l 358 1264 z "},"ʌ":{"ha":1115,"x_min":0,"x_max":0,"o":"m 989 14 l 989 1029 l 747 1278 l 368 1278 l 126 1029 l 126 15 l 358 15 l 358 1065 l 360 1074 l 756 1074 l 757 1065 l 757 14 z "},"w":{"ha":1536,"x_min":0,"x_max":0,"o":"m 132 1264 l 132 249 l 338 0 l 661 0 l 772 135 l 883 0 l 1207 0 l 1413 249 l 1413 1263 l 1215 1263 l 1215 213 l 1214 204 l 876 204 l 875 213 l 875 1264 l 678 1264 l 678 1263 l 669 1263 l 669 213 l 668 204 l 331 204 l 329 213 l 329 1264 z "},"ẃ":{"ha":1536,"x_min":0,"x_max":0,"o":"m 132 1264 l 132 249 l 338 0 l 661 0 l 772 135 l 883 0 l 1207 0 l 1413 249 l 1413 1263 l 1215 1263 l 1215 213 l 1214 204 l 876 204 l 875 213 l 875 1264 l 678 1264 l 678 1263 l 669 1263 l 669 213 l 668 204 l 331 204 l 329 213 l 329 1264 z m 597 1296 l 1065 1394 l 1065 1521 l 597 1422 z "},"ŵ":{"ha":1536,"x_min":0,"x_max":0,"o":"m 132 1264 l 132 249 l 338 0 l 661 0 l 772 135 l 883 0 l 1207 0 l 1413 249 l 1413 1263 l 1215 1263 l 1215 213 l 1214 204 l 876 204 l 875 213 l 875 1264 l 678 1264 l 678 1263 l 669 1263 l 669 213 l 668 204 l 331 204 l 329 213 l 329 1264 z m 550 1310 l 778 1407 l 1004 1310 l 1004 1436 l 781 1532 l 781 1535 l 778 1533 l 774 1535 l 774 1532 l 550 1436 z "},"ẅ":{"ha":1536,"x_min":0,"x_max":0,"o":"m 132 1264 l 132 249 l 338 0 l 661 0 l 772 135 l 883 0 l 1207 0 l 1413 249 l 1413 1263 l 1215 1263 l 1215 213 l 1214 204 l 876 204 l 875 213 l 875 1264 l 678 1264 l 678 1263 l 669 1263 l 669 213 l 668 204 l 331 204 l 329 213 l 329 1264 z m 514 1350 l 719 1350 l 719 1551 l 514 1551 z m 831 1350 l 1036 1350 l 1036 1551 l 831 1551 z "},"ẁ":{"ha":1536,"x_min":0,"x_max":0,"o":"m 132 1264 l 132 249 l 338 0 l 661 0 l 772 135 l 883 0 l 1207 0 l 1413 249 l 1413 1263 l 1215 1263 l 1215 213 l 1214 204 l 876 204 l 875 213 l 875 1264 l 678 1264 l 678 1263 l 669 1263 l 669 213 l 668 204 l 331 204 l 329 213 l 329 1264 z m 488 1394 l 956 1296 l 956 1422 l 488 1521 z "},"x":{"ha":1106,"x_min":0,"x_max":0,"o":"m 358 0 l 358 547 l 360 553 l 746 553 l 747 547 l 747 0 l 979 0 l 979 519 l 832 635 l 979 749 l 979 1264 l 747 1264 l 747 722 l 746 715 l 360 715 l 358 722 l 358 1264 l 126 1264 l 126 749 l 274 635 l 126 519 l 126 0 z "},"y":{"ha":1115,"x_min":0,"x_max":0,"o":"m 989 717 l 989 1265 l 757 1265 l 757 681 l 756 672 l 360 672 l 358 681 l 358 1265 l 126 1265 l 126 717 l 368 468 l 443 468 l 443 0 l 675 0 l 675 468 l 747 468 z "},"ý":{"ha":1115,"x_min":0,"x_max":0,"o":"m 989 717 l 989 1265 l 757 1265 l 757 681 l 756 672 l 360 672 l 358 681 l 358 1265 l 126 1265 l 126 717 l 368 468 l 443 468 l 443 0 l 675 0 l 675 468 l 747 468 z m 378 1296 l 846 1394 l 846 1521 l 378 1422 z "},"ŷ":{"ha":1115,"x_min":0,"x_max":0,"o":"m 989 717 l 989 1265 l 757 1265 l 757 681 l 756 672 l 360 672 l 358 681 l 358 1265 l 126 1265 l 126 717 l 368 468 l 443 468 l 443 0 l 675 0 l 675 468 l 747 468 z m 331 1310 l 558 1407 l 785 1310 l 785 1436 l 561 1532 l 561 1535 l 558 1533 l 554 1535 l 554 1532 l 331 1436 z "},"ÿ":{"ha":1115,"x_min":0,"x_max":0,"o":"m 989 717 l 989 1265 l 757 1265 l 757 681 l 756 672 l 360 672 l 358 681 l 358 1265 l 126 1265 l 126 717 l 368 468 l 443 468 l 443 0 l 675 0 l 675 468 l 747 468 z m 294 1350 l 500 1350 l 500 1551 l 294 1551 z m 611 1350 l 817 1350 l 817 1551 l 611 1551 z "},"ẏ":{"ha":1115,"x_min":0,"x_max":0,"o":"m 989 717 l 989 1265 l 757 1265 l 757 681 l 756 672 l 360 672 l 358 681 l 358 1265 l 126 1265 l 126 717 l 368 468 l 443 468 l 443 0 l 675 0 l 675 468 l 747 468 z m 454 1350 l 660 1350 l 660 1551 l 454 1551 z "},"ỵ":{"ha":1115,"x_min":0,"x_max":0,"o":"m 989 717 l 989 1265 l 757 1265 l 757 681 l 756 672 l 360 672 l 358 681 l 358 1265 l 126 1265 l 126 717 l 368 468 l 443 468 l 443 0 l 675 0 l 675 468 l 747 468 z m 454 -287 l 660 -287 l 660 -86 l 454 -86 z "},"ỳ":{"ha":1115,"x_min":0,"x_max":0,"o":"m 989 717 l 989 1265 l 757 1265 l 757 681 l 756 672 l 360 672 l 358 681 l 358 1265 l 126 1265 l 126 717 l 368 468 l 443 468 l 443 0 l 675 0 l 675 468 l 747 468 z m 268 1394 l 736 1296 l 736 1422 l 268 1521 z "},"ỷ":{"ha":1115,"x_min":0,"x_max":0,"o":"m 989 717 l 989 1265 l 757 1265 l 757 681 l 756 672 l 360 672 l 358 681 l 358 1265 l 126 1265 l 126 717 l 368 468 l 443 468 l 443 0 l 675 0 l 675 468 l 747 468 z m 489 1332 l 626 1332 l 626 1576 l 489 1576 z "},"ȳ":{"ha":1115,"x_min":0,"x_max":0,"o":"m 989 717 l 989 1265 l 757 1265 l 757 681 l 756 672 l 360 672 l 358 681 l 358 1265 l 126 1265 l 126 717 l 368 468 l 443 468 l 443 0 l 675 0 l 675 468 l 747 468 z m 268 1353 l 843 1353 l 843 1517 l 268 1517 z "},"ỹ":{"ha":1115,"x_min":0,"x_max":0,"o":"m 989 717 l 989 1265 l 757 1265 l 757 681 l 756 672 l 360 672 l 358 681 l 358 1265 l 126 1265 l 126 717 l 368 468 l 443 468 l 443 0 l 675 0 l 675 468 l 747 468 z m 268 1353 l 843 1353 l 843 1517 l 268 1517 z "},"z":{"ha":1047,"x_min":0,"x_max":0,"o":"m 964 1264 l 88 1264 l 88 1061 l 733 1061 l 733 739 l 732 731 l 339 731 l 97 482 l 97 99 l 99 99 l 99 0 l 975 0 l 975 203 l 329 203 l 329 518 l 331 526 l 724 526 l 965 775 l 965 1158 l 964 1158 z "},"ź":{"ha":1047,"x_min":0,"x_max":0,"o":"m 964 1264 l 88 1264 l 88 1061 l 733 1061 l 733 739 l 732 731 l 339 731 l 97 482 l 97 99 l 99 99 l 99 0 l 975 0 l 975 203 l 329 203 l 329 518 l 331 526 l 724 526 l 965 775 l 965 1158 l 964 1158 z m 344 1296 l 813 1394 l 813 1521 l 344 1422 z "},"ž":{"ha":1047,"x_min":0,"x_max":0,"o":"m 964 1264 l 88 1264 l 88 1061 l 733 1061 l 733 739 l 732 731 l 339 731 l 97 482 l 97 99 l 99 99 l 99 0 l 975 0 l 975 203 l 329 203 l 329 518 l 331 526 l 724 526 l 965 775 l 965 1158 l 964 1158 z m 297 1406 l 521 1310 l 521 1307 l 525 1308 l 528 1307 l 528 1310 l 751 1406 l 751 1532 l 525 1435 l 297 1532 z "},"ż":{"ha":1047,"x_min":0,"x_max":0,"o":"m 964 1264 l 88 1264 l 88 1061 l 733 1061 l 733 739 l 732 731 l 339 731 l 97 482 l 97 99 l 99 99 l 99 0 l 975 0 l 975 203 l 329 203 l 329 518 l 331 526 l 724 526 l 965 775 l 965 1158 l 964 1158 z m 421 1350 l 626 1350 l 626 1551 l 421 1551 z "},"ẓ":{"ha":1047,"x_min":0,"x_max":0,"o":"m 964 1264 l 88 1264 l 88 1061 l 733 1061 l 733 739 l 732 731 l 339 731 l 97 482 l 97 99 l 99 99 l 99 0 l 975 0 l 975 203 l 329 203 l 329 518 l 331 526 l 724 526 l 965 775 l 965 1158 l 964 1158 z m 421 -287 l 626 -287 l 626 -86 l 421 -86 z "},"ẕ":{"ha":1047,"x_min":0,"x_max":0,"o":"m 964 1264 l 88 1264 l 88 1061 l 733 1061 l 733 739 l 732 731 l 339 731 l 97 482 l 97 99 l 99 99 l 99 0 l 975 0 l 975 203 l 329 203 l 329 518 l 331 526 l 724 526 l 965 775 l 965 1158 l 964 1158 z m 238 -253 l 813 -253 l 813 -89 l 238 -89 z "},"ﬁ":{"ha":1460,"x_min":0,"x_max":0,"o":"m 126 1264 l 126 0 l 358 0 l 358 496 l 804 496 l 804 699 l 358 699 l 358 1061 l 903 1061 l 903 1264 z m 1101 0 l 1333 0 l 1333 1264 l 1101 1264 z "},"ﬂ":{"ha":1950,"x_min":0,"x_max":0,"o":"m 126 1264 l 126 0 l 358 0 l 358 496 l 804 496 l 804 699 l 358 699 l 358 1061 l 903 1061 l 903 1264 z m 1101 0 l 1878 0 l 1878 203 l 1333 203 l 1333 1264 l 1101 1264 z "},"ª":{"ha":881,"x_min":0,"x_max":0,"o":"m 158 1101 l 158 439 l 310 439 l 310 704 l 571 704 l 571 440 l 722 440 l 722 1101 l 564 1264 l 317 1264 z m 310 840 l 310 1125 l 311 1131 l 569 1131 l 571 1125 l 571 840 z "},"º":{"ha":879,"x_min":0,"x_max":0,"o":"m 308 574 l 308 1124 l 310 1129 l 568 1129 l 569 1124 l 569 574 l 568 568 l 310 568 z m 157 597 l 315 435 l 563 435 l 721 597 l 721 1100 l 563 1263 l 315 1263 l 157 1100 z "},"Ω":{"ha":1115,"x_min":0,"x_max":0,"o":"m 989 14 l 989 1029 l 747 1278 l 368 1278 l 126 1029 l 126 15 l 358 15 l 358 1065 l 360 1074 l 756 1074 l 757 1065 l 757 14 z "},"π":{"ha":1015,"x_min":0,"x_max":0,"o":"m 126 1264 l 126 -126 l 358 -126 l 358 1136 l 611 1136 l 611 -126 l 843 -126 l 843 1264 z "},"₀":{"ha":669,"x_min":0,"x_max":0,"o":"m 215 58 l 215 572 l 453 572 l 454 567 l 454 64 l 453 58 z m 76 85 l 221 -64 l 449 -64 l 593 85 l 593 546 l 449 694 l 221 694 l 76 546 z "},"₁":{"ha":303,"x_min":0,"x_max":0,"o":"m 81 625 l 81 -64 l 219 -64 l 219 694 l 149 694 z "},"₂":{"ha":678,"x_min":0,"x_max":0,"o":"m 451 594 l 451 344 l 450 342 l 221 342 l 76 206 l 76 -64 l 601 -64 l 601 58 l 215 58 l 215 229 l 446 229 l 590 364 l 590 579 l 446 694 l 225 694 l 81 579 l 81 396 l 224 396 l 224 594 l 219 603 l 249 603 l 249 601 l 450 601 z "},"₃":{"ha":546,"x_min":0,"x_max":0,"o":"m 49 -64 l 378 -64 l 490 53 l 490 247 l 399 321 l 490 393 l 490 581 l 378 694 l 47 694 l 47 572 l 349 572 l 351 571 l 351 375 l 90 375 l 90 267 l 350 267 l 351 265 l 351 64 l 349 58 l 49 58 z "},"₄":{"ha":669,"x_min":0,"x_max":0,"o":"m 215 288 l 215 694 l 76 694 l 76 314 l 221 164 l 449 164 l 454 169 l 454 -64 l 593 -64 l 593 694 l 454 694 l 454 292 l 453 288 z "},"₅":{"ha":678,"x_min":0,"x_max":0,"o":"m 451 286 l 451 36 l 450 29 l 249 29 l 249 28 l 219 28 l 224 36 l 224 235 l 81 235 l 81 51 l 225 -64 l 446 -64 l 590 51 l 590 267 l 446 401 l 215 401 l 215 572 l 601 572 l 601 694 l 76 694 l 76 425 l 221 289 l 450 289 z "},"₆":{"ha":665,"x_min":0,"x_max":0,"o":"m 215 372 l 215 596 l 450 596 l 450 447 l 589 447 l 589 597 l 444 694 l 221 694 l 76 575 l 76 40 l 221 -64 l 444 -64 l 589 56 l 589 249 l 432 372 z m 215 35 l 215 271 l 436 271 l 444 267 l 444 35 l 444 35 z "},"₇":{"ha":621,"x_min":0,"x_max":0,"o":"m 569 694 l 43 694 l 43 572 l 432 572 l 432 354 l 439 343 l 222 343 l 222 -64 l 361 -64 l 361 217 l 433 217 l 569 376 z "},"₈":{"ha":679,"x_min":0,"x_max":0,"o":"m 219 64 l 219 265 l 221 269 l 458 269 l 458 64 l 457 56 l 222 56 z m 81 53 l 193 -64 l 485 -64 l 597 53 l 597 249 l 507 321 l 597 392 l 597 582 l 485 694 l 193 694 l 81 582 l 81 392 l 171 321 l 81 249 z m 219 375 l 219 571 l 222 578 l 457 578 l 458 571 l 458 371 l 221 371 z "},"₉":{"ha":665,"x_min":0,"x_max":0,"o":"m 450 258 l 450 38 l 449 35 l 215 35 l 215 183 l 76 183 l 76 33 l 221 -64 l 444 -64 l 589 56 l 589 590 l 444 694 l 221 694 l 76 575 l 76 382 l 233 258 z m 221 596 l 450 596 l 450 360 l 228 360 l 221 364 l 221 596 z "},"⁰":{"ha":669,"x_min":0,"x_max":0,"o":"m 215 668 l 215 1182 l 453 1182 l 454 1176 l 454 674 l 453 668 z m 76 694 l 221 546 l 449 546 l 593 694 l 593 1156 l 449 1304 l 221 1304 l 76 1156 z "},"¹":{"ha":303,"x_min":0,"x_max":0,"o":"m 81 1235 l 81 546 l 219 546 l 219 1304 l 149 1304 z "},"²":{"ha":678,"x_min":0,"x_max":0,"o":"m 451 1204 l 451 954 l 450 951 l 221 951 l 76 815 l 76 546 l 601 546 l 601 668 l 215 668 l 215 839 l 446 839 l 590 974 l 590 1189 l 446 1304 l 225 1304 l 81 1189 l 81 1006 l 224 1006 l 224 1204 l 219 1213 l 249 1213 l 249 1211 l 450 1211 z "},"³":{"ha":546,"x_min":0,"x_max":0,"o":"m 49 546 l 378 546 l 490 663 l 490 857 l 399 931 l 490 1003 l 490 1190 l 378 1304 l 47 1304 l 47 1182 l 349 1182 l 351 1181 l 351 985 l 90 985 l 90 876 l 350 876 l 351 875 l 351 674 l 349 668 l 49 668 z "},"⁴":{"ha":669,"x_min":0,"x_max":0,"o":"m 215 897 l 215 1304 l 76 1304 l 76 924 l 221 774 l 449 774 l 454 779 l 454 546 l 593 546 l 593 1304 l 454 1304 l 454 901 l 453 897 z "},"⁵":{"ha":678,"x_min":0,"x_max":0,"o":"m 451 896 l 451 646 l 450 639 l 249 639 l 249 638 l 219 638 l 224 646 l 224 844 l 81 844 l 81 661 l 225 546 l 446 546 l 590 661 l 590 876 l 446 1011 l 215 1011 l 215 1182 l 601 1182 l 601 1304 l 76 1304 l 76 1035 l 221 899 l 450 899 z "},"⁶":{"ha":665,"x_min":0,"x_max":0,"o":"m 215 982 l 215 1206 l 450 1206 l 450 1057 l 589 1057 l 589 1207 l 444 1304 l 221 1304 l 76 1185 l 76 650 l 221 546 l 444 546 l 589 665 l 589 858 l 432 982 z m 215 644 l 215 881 l 436 881 l 444 876 l 444 644 l 444 644 z "},"⁷":{"ha":621,"x_min":0,"x_max":0,"o":"m 569 1304 l 43 1304 l 43 1182 l 432 1182 l 432 964 l 439 953 l 222 953 l 222 546 l 361 546 l 361 826 l 433 826 l 569 986 z "},"⁸":{"ha":679,"x_min":0,"x_max":0,"o":"m 219 674 l 219 875 l 221 879 l 458 879 l 458 674 l 457 665 l 222 665 z m 81 663 l 193 546 l 485 546 l 597 663 l 597 858 l 507 931 l 597 1001 l 597 1192 l 485 1304 l 193 1304 l 81 1192 l 81 1001 l 171 931 l 81 858 z m 219 985 l 219 1181 l 222 1188 l 457 1188 l 458 1181 l 458 981 l 221 981 z "},"⁹":{"ha":665,"x_min":0,"x_max":0,"o":"m 450 868 l 450 647 l 449 644 l 215 644 l 215 793 l 76 793 l 76 643 l 221 546 l 444 546 l 589 665 l 589 1200 l 444 1304 l 221 1304 l 76 1185 l 76 992 l 233 868 z m 221 1206 l 450 1206 l 450 969 l 228 969 l 221 974 l 221 1206 z "},"⁄":{"ha":203,"x_min":0,"x_max":0,"o":"m 343 1264 l 200 1264 l -140 0 l 3 0 z "},"½":{"ha":1183,"x_min":0,"x_max":0,"o":"m 81 1235 l 81 546 l 219 546 l 219 1304 l 150 1304 z m 165 0 l 299 0 l 676 1264 l 543 1264 z m 581 -64 l 1107 -64 l 1107 58 l 721 58 l 721 229 l 951 229 l 1096 364 l 1096 578 l 951 694 l 731 694 l 585 578 l 585 396 l 729 396 l 729 594 l 726 603 l 754 603 l 754 601 l 956 601 l 957 594 l 957 344 l 956 342 l 726 342 l 582 207 l 582 58 l 581 58 z "},"¼":{"ha":1175,"x_min":0,"x_max":0,"o":"m 81 1235 l 81 546 l 219 546 l 219 1304 l 150 1304 z m 165 0 l 299 0 l 676 1264 l 543 1264 z m 582 313 l 726 164 l 954 164 l 960 169 l 960 -64 l 1099 -64 l 1099 694 l 960 694 l 960 290 l 958 288 l 721 288 l 721 694 l 582 694 z "},"¾":{"ha":1417,"x_min":0,"x_max":0,"o":"m 49 546 l 378 546 l 490 663 l 490 858 l 400 931 l 490 1003 l 490 1192 l 378 1304 l 49 1304 l 49 1182 l 349 1182 l 351 1179 l 351 985 l 92 985 l 92 876 l 350 876 l 351 875 l 351 674 l 349 668 l 49 668 z m 408 0 l 542 0 l 919 1264 l 786 1264 z m 824 313 l 968 164 l 1197 164 l 1203 169 l 1203 -64 l 1342 -64 l 1342 694 l 1203 694 l 1203 543 l 1201 543 l 1201 288 l 964 288 l 964 694 l 824 694 z "},"⅛":{"ha":1185,"x_min":0,"x_max":0,"o":"m 81 1235 l 81 546 l 219 546 l 219 1304 l 150 1304 z m 165 0 l 299 0 l 676 1264 l 543 1264 z m 586 53 l 699 -64 l 990 -64 l 1104 53 l 1104 188 l 1103 189 l 1103 247 l 1013 321 l 1103 393 l 1103 449 l 1104 450 l 1104 582 l 990 694 l 699 694 l 586 582 l 586 450 l 588 449 l 588 393 l 676 321 l 588 247 l 588 189 l 586 188 z m 725 64 l 725 68 l 726 68 l 726 267 l 964 267 l 964 64 l 963 58 l 728 58 z m 725 565 l 725 571 l 728 572 l 963 572 l 964 571 l 964 376 l 726 376 l 726 565 z "},"⅜":{"ha":1426,"x_min":0,"x_max":0,"o":"m 49 546 l 378 546 l 490 663 l 490 858 l 400 931 l 490 1003 l 490 1192 l 378 1304 l 49 1304 l 49 1182 l 349 1182 l 351 1179 l 351 985 l 92 985 l 92 876 l 350 876 l 351 875 l 351 674 l 349 668 l 49 668 z m 408 0 l 542 0 l 919 1264 l 786 1264 z m 829 53 l 942 -64 l 1233 -64 l 1346 53 l 1346 247 l 1256 321 l 1346 393 l 1346 582 l 1233 694 l 942 694 l 829 582 l 829 393 l 919 321 l 829 247 z m 968 64 l 968 265 l 969 267 l 1206 267 l 1207 265 l 1207 64 l 1204 58 l 971 58 z m 968 375 l 968 571 l 971 572 l 1204 572 l 1207 571 l 1207 375 l 1206 376 l 969 376 z "},"⅝":{"ha":1560,"x_min":0,"x_max":0,"o":"m 451 896 l 451 646 l 450 639 l 249 639 l 249 638 l 221 638 l 224 646 l 224 844 l 81 844 l 81 663 l 225 546 l 446 546 l 590 663 l 590 876 l 446 1011 l 215 1011 l 215 1182 l 601 1182 l 601 1304 l 76 1304 l 76 1033 l 221 899 l 450 899 z m 542 0 l 674 0 l 1053 1264 l 919 1264 z m 961 53 l 1075 -64 l 1367 -64 l 1479 53 l 1479 188 l 1478 189 l 1478 247 l 1389 321 l 1478 393 l 1478 449 l 1479 450 l 1479 582 l 1367 694 l 1075 694 l 961 582 l 961 450 l 963 449 l 963 393 l 1053 321 l 963 247 l 963 189 l 961 188 z m 1101 64 l 1101 267 l 1339 267 l 1339 68 l 1340 68 l 1340 64 l 1338 58 l 1103 58 z m 1101 376 l 1101 571 l 1103 572 l 1338 572 l 1340 571 l 1340 565 l 1339 565 l 1339 376 z "},"⅞":{"ha":1503,"x_min":0,"x_max":0,"o":"m 569 1304 l 43 1304 l 43 1182 l 432 1182 l 432 964 l 438 953 l 222 953 l 222 546 l 363 546 l 363 826 l 433 826 l 569 986 z m 485 0 l 617 0 l 996 1264 l 863 1264 z m 904 53 l 1018 -64 l 1310 -64 l 1422 53 l 1422 188 l 1421 189 l 1421 247 l 1332 321 l 1421 393 l 1421 449 l 1422 450 l 1422 582 l 1310 694 l 1018 694 l 904 582 l 904 450 l 906 449 l 906 393 l 996 321 l 906 247 l 906 189 l 904 188 z m 1044 64 l 1044 267 l 1282 267 l 1282 68 l 1283 68 l 1283 64 l 1281 58 l 1046 58 z m 1044 376 l 1044 571 l 1046 572 l 1281 572 l 1283 571 l 1283 565 l 1282 565 l 1282 376 z "},"　":{"ha":1806,"x_min":0,"x_max":0,"o":""}," ":{"ha":401,"x_min":0,"x_max":0,"o":""},"‎":{"ha":0,"x_min":0,"x_max":0,"o":""},"‏":{"ha":0,"x_min":0,"x_max":0,"o":""},"‍":{"ha":0,"x_min":0,"x_max":0,"o":""},"‌":{"ha":0,"x_min":0,"x_max":0,"o":""}," ":{"ha":1806,"x_min":0,"x_max":0,"o":""}," ":{"ha":1806,"x_min":0,"x_max":0,"o":""}," ":{"ha":903,"x_min":0,"x_max":0,"o":""}," ":{"ha":903,"x_min":0,"x_max":0,"o":""}," ":{"ha":1115,"x_min":0,"x_max":0,"o":""}," ":{"ha":451,"x_min":0,"x_max":0,"o":""}," ":{"ha":258,"x_min":0,"x_max":0,"o":""}," ":{"ha":289,"x_min":0,"x_max":0,"o":""}," ":{"ha":506,"x_min":0,"x_max":0,"o":""}," ":{"ha":301,"x_min":0,"x_max":0,"o":""}," ":{"ha":361,"x_min":0,"x_max":0,"o":""}," ":{"ha":361,"x_min":0,"x_max":0,"o":""}," ":{"ha":601,"x_min":0,"x_max":0,"o":""},"​":{"ha":0,"x_min":0,"x_max":0,"o":""},".":{"ha":506,"x_min":0,"x_max":0,"o":"m 119 300 l 119 28 l 393 28 l 393 300 z "},",":{"ha":506,"x_min":0,"x_max":0,"o":"m 140 361 l 140 -126 l 260 -126 l 372 54 l 372 361 z "},":":{"ha":506,"x_min":0,"x_max":0,"o":"m 119 300 l 119 28 l 393 28 l 393 300 z m 119 664 l 393 664 l 393 936 l 119 936 z "},";":{"ha":722,"x_min":0,"x_max":0,"o":"m 140 361 l 140 -126 l 260 -126 l 372 54 l 372 361 z m 119 664 l 393 664 l 393 936 l 119 936 z "},"…":{"ha":506,"x_min":0,"x_max":0,"o":"m 119 300 l 119 28 l 393 28 l 393 300 z "},"!":{"ha":485,"x_min":0,"x_max":0,"o":"m 126 542 l 358 542 l 358 1264 l 126 1264 z m 106 28 l 379 28 l 379 300 l 106 300 z "},"¡":{"ha":526,"x_min":0,"x_max":0,"o":"m 379 722 l 147 722 l 147 0 l 379 0 z m 126 964 l 400 964 l 400 1236 l 126 1236 z "},"?":{"ha":1029,"x_min":0,"x_max":0,"o":"m 675 1100 l 675 649 l 639 649 l 639 656 l 407 656 l 407 649 l 364 649 l 364 506 l 407 506 l 407 357 l 639 357 l 639 506 l 667 506 l 890 681 l 890 1065 l 667 1264 l 363 1264 l 139 1090 l 139 822 l 354 822 l 354 1115 l 356 1121 l 364 1121 l 364 1100 z m 390 24 l 664 24 l 664 254 l 390 254 z "},"¿":{"ha":1029,"x_min":0,"x_max":0,"o":"m 354 169 l 354 610 l 356 615 l 392 615 l 392 608 l 624 608 l 624 615 l 667 615 l 667 758 l 624 758 l 624 907 l 392 907 l 392 758 l 364 758 l 140 583 l 140 199 l 364 0 l 668 0 l 890 174 l 890 443 l 676 443 l 676 149 l 675 143 l 667 143 l 667 164 l 356 164 z m 367 1010 l 640 1010 l 640 1240 l 367 1240 z "},"·":{"ha":513,"x_min":0,"x_max":0,"o":"m 119 729 l 119 457 l 393 457 l 393 729 z "},"•":{"ha":513,"x_min":0,"x_max":0,"o":"m 119 729 l 119 457 l 393 457 l 393 729 z "},"*":{"ha":513,"x_min":0,"x_max":0,"o":"m 119 1203 l 119 931 l 393 931 l 393 1203 z "},"#":{"ha":1196,"x_min":0,"x_max":0,"o":"m 126 485 l 126 253 l 297 253 l 297 0 l 481 0 l 481 253 l 706 253 l 706 0 l 889 0 l 889 253 l 1068 253 l 1068 485 l 889 485 l 889 772 l 1068 772 l 1068 1004 l 889 1004 l 889 1264 l 706 1264 l 706 1004 l 481 1004 l 481 1264 l 297 1264 l 297 1004 l 126 1004 l 126 772 l 297 772 l 297 485 z m 481 485 l 481 772 l 706 772 l 706 485 z "},"/":{"ha":1038,"x_min":0,"x_max":0,"o":"m 911 1264 l 679 1264 l 126 0 l 358 0 z "},"\\":{"ha":1038,"x_min":0,"x_max":0,"o":"m 126 1264 l 679 0 l 911 0 l 358 1264 z "},"＆":{"ha":1090,"x_min":0,"x_max":0,"o":"m 358 214 l 358 550 l 360 553 l 660 553 l 660 204 l 361 204 z m 126 194 l 314 0 l 849 0 l 849 553 l 978 553 l 978 732 l 360 732 l 358 731 l 358 1057 l 361 1061 l 769 1061 l 769 1264 l 314 1264 l 126 1075 l 126 760 l 276 642 l 126 521 z "},"＊":{"ha":513,"x_min":0,"x_max":0,"o":"m 119 1203 l 119 931 l 393 931 l 393 1203 z "},"＠":{"ha":1538,"x_min":0,"x_max":0,"o":"m 365 0 l 365 947 l 367 943 l 1178 943 l 1178 728 l 818 728 l 554 521 l 554 203 l 556 203 l 556 199 l 797 0 l 1169 0 l 1411 174 l 1411 907 l 1169 1106 l 375 1106 l 133 919 l 133 0 z m 796 163 l 796 553 l 810 558 l 1178 558 l 1178 163 z "},"＼":{"ha":1038,"x_min":0,"x_max":0,"o":"m 126 1264 l 679 0 l 911 0 l 358 1264 z "},"：":{"ha":506,"x_min":0,"x_max":0,"o":"m 119 300 l 119 28 l 393 28 l 393 300 z m 119 664 l 393 664 l 393 936 l 119 936 z "},"，":{"ha":506,"x_min":0,"x_max":0,"o":"m 140 361 l 140 -126 l 260 -126 l 372 54 l 372 361 z "},"！":{"ha":485,"x_min":0,"x_max":0,"o":"m 126 542 l 358 542 l 358 1264 l 126 1264 z m 106 28 l 379 28 l 379 300 l 106 300 z "},"＃":{"ha":1196,"x_min":0,"x_max":0,"o":"m 126 485 l 126 253 l 297 253 l 297 0 l 481 0 l 481 253 l 706 253 l 706 0 l 889 0 l 889 253 l 1068 253 l 1068 485 l 889 485 l 889 772 l 1068 772 l 1068 1004 l 889 1004 l 889 1264 l 706 1264 l 706 1004 l 481 1004 l 481 1264 l 297 1264 l 297 1004 l 126 1004 l 126 772 l 297 772 l 297 485 z m 481 485 l 481 772 l 706 772 l 706 485 z "},"％":{"ha":1033,"x_min":0,"x_max":0,"o":"m 386 978 l 386 1250 l 113 1250 l 113 978 z m 126 0 l 358 0 l 911 1264 l 679 1264 z m 647 28 l 921 28 l 921 300 l 647 300 z "},"．":{"ha":506,"x_min":0,"x_max":0,"o":"m 119 300 l 119 28 l 393 28 l 393 300 z "},"？":{"ha":1029,"x_min":0,"x_max":0,"o":"m 675 1100 l 675 649 l 639 649 l 639 656 l 407 656 l 407 649 l 364 649 l 364 506 l 407 506 l 407 357 l 639 357 l 639 506 l 667 506 l 890 681 l 890 1065 l 667 1264 l 363 1264 l 139 1090 l 139 822 l 354 822 l 354 1115 l 356 1121 l 364 1121 l 364 1100 z m 390 24 l 664 24 l 664 254 l 390 254 z "},"＂":{"ha":1083,"x_min":0,"x_max":0,"o":"m 507 1264 l 507 776 l 626 776 l 739 957 l 739 1264 z m 140 776 l 260 776 l 372 957 l 372 1264 l 140 1264 z "},"＇":{"ha":513,"x_min":0,"x_max":0,"o":"m 140 1264 l 140 776 l 260 776 l 372 957 l 372 1264 z "},"；":{"ha":722,"x_min":0,"x_max":0,"o":"m 140 361 l 140 -126 l 260 -126 l 372 54 l 372 361 z m 119 664 l 393 664 l 393 936 l 119 936 z "},"／":{"ha":1038,"x_min":0,"x_max":0,"o":"m 911 1264 l 679 1264 l 126 0 l 358 0 z "},"＿":{"ha":865,"x_min":0,"x_max":0,"o":"m 72 18 l 72 -214 l 792 -214 l 792 18 z "},"-":{"ha":632,"x_min":0,"x_max":0,"o":"m 72 715 l 72 483 l 560 483 l 560 715 z "},"­":{"ha":632,"x_min":0,"x_max":0,"o":"m 72 715 l 72 483 l 560 483 l 560 715 z "},"–":{"ha":865,"x_min":0,"x_max":0,"o":"m 72 715 l 72 483 l 792 483 l 792 715 z "},"—":{"ha":1088,"x_min":0,"x_max":0,"o":"m 72 715 l 72 483 l 1014 483 l 1014 715 z "},"_":{"ha":865,"x_min":0,"x_max":0,"o":"m 72 18 l 72 -214 l 792 -214 l 792 18 z "},"－":{"ha":632,"x_min":0,"x_max":0,"o":"m 72 715 l 72 483 l 560 483 l 560 715 z "},"(":{"ha":822,"x_min":0,"x_max":0,"o":"m 358 129 l 358 1008 l 360 1019 l 696 1019 l 696 1264 l 368 1264 l 126 965 l 126 172 l 368 -126 l 696 -126 l 696 118 l 360 118 z "},")":{"ha":822,"x_min":0,"x_max":0,"o":"m 464 1008 l 464 129 l 463 118 l 126 118 l 126 -126 l 454 -126 l 696 172 l 696 965 l 454 1264 l 126 1264 l 126 1019 l 463 1019 z "},"{":{"ha":822,"x_min":0,"x_max":0,"o":"m 358 129 l 358 1008 l 360 1019 l 696 1019 l 696 1264 l 368 1264 l 126 965 l 126 686 l 1 686 l 1 454 l 126 454 l 126 172 l 368 -126 l 696 -126 l 696 118 l 360 118 z "},"}":{"ha":822,"x_min":0,"x_max":0,"o":"m 464 1008 l 464 129 l 463 118 l 126 118 l 126 -126 l 454 -126 l 696 172 l 696 454 l 821 454 l 821 686 l 696 686 l 696 965 l 454 1264 l 126 1264 l 126 1019 l 463 1019 z "},"[":{"ha":767,"x_min":0,"x_max":0,"o":"m 126 1264 l 126 -126 l 639 -126 l 639 76 l 358 76 l 358 1061 l 639 1061 l 639 1264 z "},"]":{"ha":767,"x_min":0,"x_max":0,"o":"m 640 1264 l 128 1264 l 128 1061 l 408 1061 l 408 76 l 128 76 l 128 -126 l 640 -126 z "},"｛":{"ha":822,"x_min":0,"x_max":0,"o":"m 358 129 l 358 1008 l 360 1019 l 696 1019 l 696 1264 l 368 1264 l 126 965 l 126 686 l 1 686 l 1 454 l 126 454 l 126 172 l 368 -126 l 696 -126 l 696 118 l 360 118 z "},"｝":{"ha":822,"x_min":0,"x_max":0,"o":"m 464 1008 l 464 129 l 463 118 l 126 118 l 126 -126 l 454 -126 l 696 172 l 696 454 l 821 454 l 821 686 l 696 686 l 696 965 l 454 1264 l 126 1264 l 126 1019 l 463 1019 z "},"［":{"ha":767,"x_min":0,"x_max":0,"o":"m 126 1264 l 126 -126 l 639 -126 l 639 76 l 358 76 l 358 1061 l 639 1061 l 639 1264 z "},"］":{"ha":767,"x_min":0,"x_max":0,"o":"m 640 1264 l 128 1264 l 128 1061 l 408 1061 l 408 76 l 128 76 l 128 -126 l 640 -126 z "},"（":{"ha":822,"x_min":0,"x_max":0,"o":"m 358 129 l 358 1008 l 360 1019 l 696 1019 l 696 1264 l 368 1264 l 126 965 l 126 172 l 368 -126 l 696 -126 l 696 118 l 360 118 z "},"）":{"ha":822,"x_min":0,"x_max":0,"o":"m 464 1008 l 464 129 l 463 118 l 126 118 l 126 -126 l 454 -126 l 696 172 l 696 965 l 454 1264 l 126 1264 l 126 1019 l 463 1019 z "},"‚":{"ha":506,"x_min":0,"x_max":0,"o":"m 140 361 l 140 -126 l 260 -126 l 372 54 l 372 361 z "},"„":{"ha":879,"x_min":0,"x_max":0,"o":"m 507 361 l 507 -126 l 626 -126 l 739 54 l 739 361 z m 140 -126 l 260 -126 l 372 54 l 372 361 l 140 361 z "},"“":{"ha":879,"x_min":0,"x_max":0,"o":"m 507 1264 l 507 776 l 626 776 l 739 957 l 739 1264 z m 140 776 l 260 776 l 372 957 l 372 1264 l 140 1264 z "},"”":{"ha":1083,"x_min":0,"x_max":0,"o":"m 507 1264 l 507 776 l 626 776 l 739 957 l 739 1264 z m 140 776 l 260 776 l 372 957 l 372 1264 l 140 1264 z "},"‘":{"ha":513,"x_min":0,"x_max":0,"o":"m 140 1264 l 140 776 l 260 776 l 372 957 l 372 1264 z "},"’":{"ha":513,"x_min":0,"x_max":0,"o":"m 140 1264 l 140 776 l 260 776 l 372 957 l 372 1264 z "},"«":{"ha":1231,"x_min":0,"x_max":0,"o":"m 168 778 l 214 550 l 614 629 l 675 617 l 689 550 l 1089 629 l 1214 604 l 1224 656 l 1232 657 l 1228 676 l 1258 832 l 1196 844 l 1188 885 l 1089 865 l 715 939 l 704 883 l 614 865 l 240 939 l 210 786 z "},"»":{"ha":1225,"x_min":0,"x_max":0,"o":"m 517 939 l 142 865 l 43 885 l 35 844 l -28 832 l 3 679 l -1 657 l 8 656 l 18 604 l 142 629 l 542 550 l 556 618 l 611 629 l 1011 550 l 1057 778 l 1017 786 l 986 939 l 611 865 l 528 882 z "},"‹":{"ha":756,"x_min":0,"x_max":0,"o":"m 168 778 l 214 550 l 614 629 l 739 604 l 749 656 l 757 657 l 753 676 l 783 832 l 721 844 l 713 885 l 614 865 l 240 939 l 210 786 z "},"›":{"ha":756,"x_min":0,"x_max":0,"o":"m 588 778 l 546 786 l 515 939 l 142 865 l 43 885 l 35 844 l -28 832 l 3 676 l -1 657 l 7 656 l 17 604 l 142 629 l 542 550 z "},"\"":{"ha":1083,"x_min":0,"x_max":0,"o":"m 507 1264 l 507 776 l 626 776 l 739 957 l 739 1264 z m 140 776 l 260 776 l 372 957 l 372 1264 l 140 1264 z "},"'":{"ha":513,"x_min":0,"x_max":0,"o":"m 140 1264 l 140 776 l 260 776 l 372 957 l 372 1264 z "},"ƒ":{"ha":975,"x_min":0,"x_max":0,"o":"m 126 1264 l 126 0 l 358 0 l 358 496 l 804 496 l 804 699 l 358 699 l 358 1061 l 903 1061 l 903 1264 z "},"฿":{"ha":1051,"x_min":0,"x_max":0,"o":"m 126 1264 l 126 0 l 415 0 l 415 -106 l 608 -106 l 608 0 l 728 0 l 915 194 l 915 521 l 765 642 l 915 758 l 915 1076 l 728 1264 l 608 1264 l 608 1378 l 415 1378 l 415 1264 z m 358 200 l 358 556 l 415 556 l 415 200 z m 358 725 l 358 1071 l 415 1071 l 415 725 z m 608 200 l 608 556 l 682 556 l 683 549 l 683 213 l 681 200 z m 608 725 l 608 1071 l 681 1071 l 683 1057 l 683 732 l 682 725 z "},"@":{"ha":1538,"x_min":0,"x_max":0,"o":"m 365 0 l 365 947 l 367 943 l 1178 943 l 1178 728 l 818 728 l 554 521 l 554 203 l 556 203 l 556 199 l 797 0 l 1169 0 l 1411 174 l 1411 907 l 1169 1106 l 375 1106 l 133 919 l 133 0 z m 796 163 l 796 553 l 810 558 l 1178 558 l 1178 163 z "},"&":{"ha":1090,"x_min":0,"x_max":0,"o":"m 358 214 l 358 550 l 360 553 l 660 553 l 660 204 l 361 204 z m 126 194 l 314 0 l 849 0 l 849 553 l 978 553 l 978 732 l 360 732 l 358 731 l 358 1057 l 361 1061 l 769 1061 l 769 1264 l 314 1264 l 126 1075 l 126 760 l 276 642 l 126 521 z "},"¶":{"ha":971,"x_min":0,"x_max":0,"o":"m 126 1264 l 126 -126 l 358 -126 l 358 1136 l 611 1136 l 611 -126 l 843 -126 l 843 1264 z "},"§":{"ha":782,"x_min":0,"x_max":0,"o":"m 258 856 l 258 1132 l 260 1138 l 492 1138 l 492 1151 l 521 1151 l 522 1147 l 522 935 l 682 935 l 682 1129 l 515 1256 l 265 1256 l 97 1111 l 97 889 l 99 889 l 99 863 l 189 794 l 100 718 l 100 469 l 267 343 l 515 343 l 524 350 l 524 151 l 525 151 l 525 71 l 524 67 l 292 67 l 292 57 l 263 57 l 261 61 l 261 283 l 101 283 l 101 81 l 268 -51 l 518 -51 l 685 92 l 685 344 l 596 413 l 682 488 l 682 738 l 515 863 l 267 863 z m 260 663 l 260 740 l 260 742 l 265 738 l 492 738 l 492 744 l 493 744 l 493 760 l 522 760 l 522 468 l 518 471 l 292 471 l 292 461 l 289 461 l 289 447 l 261 447 l 261 663 z "},"©":{"ha":1047,"x_min":0,"x_max":0,"o":"m 358 213 l 358 1051 l 360 1060 l 694 1060 l 721 1024 l 721 726 l 921 726 l 921 1053 l 721 1264 l 368 1264 l 126 1015 l 126 249 l 368 0 l 721 0 l 921 211 l 921 538 l 721 538 l 721 236 l 694 204 l 360 204 z "},"®":{"ha":1043,"x_min":0,"x_max":0,"o":"m 126 1264 l 126 0 l 358 0 l 358 553 l 682 553 l 683 547 l 683 0 l 915 0 l 915 519 l 767 636 l 915 753 l 915 1074 l 728 1264 z m 358 718 l 358 1068 l 681 1068 l 683 1054 l 683 725 l 682 718 z "},"™":{"ha":1838,"x_min":0,"x_max":0,"o":"m 650 1264 l 51 1264 l 51 1119 l 268 1119 l 268 365 l 433 365 l 433 1119 l 650 1119 z m 789 376 l 929 376 l 929 1128 l 1169 1128 l 1171 1122 l 1171 376 l 1317 376 l 1317 1128 l 1557 1128 l 1558 1122 l 1558 376 l 1699 376 l 1699 1097 l 1551 1274 l 1322 1274 l 1243 1178 l 1164 1274 l 935 1274 l 789 1097 z "},"°":{"ha":506,"x_min":0,"x_max":0,"o":"m 386 978 l 386 1250 l 113 1250 l 113 978 z "},"|":{"ha":485,"x_min":0,"x_max":0,"o":"m 126 1264 l 126 -126 l 358 -126 l 358 1264 z "},"¦":{"ha":485,"x_min":0,"x_max":0,"o":"m 124 1264 l 124 636 l 357 636 l 357 1264 z m 126 -126 l 357 -126 l 357 524 l 126 524 z "},"†":{"ha":793,"x_min":0,"x_max":0,"o":"m 272 1264 l 272 1042 l 36 1042 l 36 810 l 272 810 l 272 -126 l 504 -126 l 504 810 l 756 810 l 756 1042 l 504 1042 l 504 1264 z "},"‡":{"ha":793,"x_min":0,"x_max":0,"o":"m 272 1264 l 272 1042 l 36 1042 l 36 810 l 272 810 l 272 349 l 36 349 l 36 117 l 272 117 l 272 -126 l 504 -126 l 504 117 l 756 117 l 756 349 l 504 349 l 504 810 l 756 810 l 756 1042 l 504 1042 l 504 1264 z "},"¢":{"ha":1047,"x_min":0,"x_max":0,"o":"m 358 213 l 358 1051 l 360 1060 l 449 1060 l 449 204 l 360 204 z m 126 249 l 368 0 l 449 0 l 449 -106 l 640 -106 l 640 0 l 721 0 l 921 211 l 921 538 l 721 538 l 721 236 l 694 204 l 640 204 l 640 1060 l 694 1060 l 721 1024 l 721 726 l 921 726 l 921 1053 l 721 1264 l 640 1264 l 640 1378 l 449 1378 l 449 1264 l 368 1264 l 126 1015 z "},"¤":{"ha":513,"x_min":0,"x_max":0,"o":"m 119 729 l 119 457 l 393 457 l 393 729 z "},"$":{"ha":1093,"x_min":0,"x_max":0,"o":"m 364 707 l 364 1113 l 365 1118 l 456 1118 l 456 718 l 386 718 l 386 700 l 365 700 z m 128 190 l 340 0 l 456 0 l 456 -106 l 649 -106 l 649 0 l 708 0 l 946 190 l 946 483 l 944 483 l 944 544 l 707 718 l 649 718 l 649 1118 l 749 1118 l 750 1113 l 750 813 l 956 813 l 956 1086 l 742 1264 l 649 1264 l 649 1378 l 456 1378 l 456 1264 l 374 1264 l 139 1088 l 139 732 l 374 557 l 456 557 l 456 157 l 385 157 l 385 156 l 332 156 l 332 482 l 128 482 z m 649 157 l 649 557 l 692 557 l 692 575 l 715 575 l 717 569 l 717 163 l 715 157 z "},"€":{"ha":1047,"x_min":0,"x_max":0,"o":"m 358 576 l 358 672 l 604 672 l 604 833 l 358 833 l 358 1051 l 360 1060 l 694 1060 l 721 1024 l 721 726 l 921 726 l 921 1053 l 721 1264 l 368 1264 l 126 1015 l 126 833 l 26 833 l 26 672 l 126 672 l 126 576 l 26 576 l 26 417 l 126 417 l 126 249 l 368 0 l 721 0 l 921 211 l 921 538 l 721 538 l 721 236 l 694 204 l 360 204 l 358 213 l 358 417 l 604 417 l 604 576 z "},"£":{"ha":1015,"x_min":0,"x_max":0,"o":"m 903 204 l 372 204 l 372 494 l 561 494 l 561 681 l 371 681 l 371 1042 l 372 1050 l 685 1050 l 685 1090 l 692 1090 l 693 1083 l 693 726 l 876 726 l 876 1053 l 685 1264 l 381 1264 l 156 1004 l 156 681 l 19 681 l 19 494 l 156 494 l 156 204 l 0 204 l 0 0 l 903 0 z "},"¥":{"ha":1115,"x_min":0,"x_max":0,"o":"m 989 717 l 989 1265 l 757 1265 l 757 681 l 756 672 l 360 672 l 358 681 l 358 1265 l 126 1265 l 126 717 l 368 468 l 443 468 l 443 438 l 167 438 l 167 233 l 443 233 l 443 0 l 675 0 l 675 233 l 957 233 l 957 438 l 675 438 l 675 468 l 747 468 z "},"+":{"ha":704,"x_min":0,"x_max":0,"o":"m 50 706 l 50 492 l 246 492 l 246 296 l 458 296 l 458 492 l 654 492 l 654 706 l 458 706 l 458 901 l 246 901 l 246 706 z "},"−":{"ha":704,"x_min":0,"x_max":0,"o":"m 50 706 l 50 492 l 654 492 l 654 706 z "},"×":{"ha":704,"x_min":0,"x_max":0,"o":"m 213 888 l 61 738 l 200 599 l 61 460 l 213 310 l 351 449 l 489 310 l 640 460 l 501 599 l 640 738 l 489 888 l 351 750 z "},"÷":{"ha":704,"x_min":0,"x_max":0,"o":"m 50 706 l 50 492 l 654 492 l 654 706 z m 224 103 l 497 103 l 497 375 l 224 375 z m 224 824 l 497 824 l 497 1096 l 224 1096 z "},"=":{"ha":704,"x_min":0,"x_max":0,"o":"m 50 576 l 50 417 l 654 417 l 654 576 z m 50 672 l 654 672 l 654 833 l 50 833 z "},"≠":{"ha":704,"x_min":0,"x_max":0,"o":"m 50 576 l 50 417 l 129 417 l 35 263 l 218 263 l 313 417 l 654 417 l 654 576 l 411 576 l 469 672 l 654 672 l 654 833 l 568 833 l 654 974 l 471 974 l 385 833 l 50 833 l 50 672 l 286 672 l 228 576 z "},">":{"ha":686,"x_min":0,"x_max":0,"o":"m 210 1010 l 65 867 l 333 600 l 65 333 l 210 189 l 619 600 z "},"<":{"ha":686,"x_min":0,"x_max":0,"o":"m 476 1010 l 67 600 l 476 189 l 621 333 l 353 600 l 621 867 z "},"≥":{"ha":686,"x_min":0,"x_max":0,"o":"m 210 1010 l 65 867 l 333 600 l 65 333 l 210 189 l 619 600 z m 13 -144 l 663 -144 l 663 31 l 13 31 z "},"≤":{"ha":686,"x_min":0,"x_max":0,"o":"m 476 1010 l 67 600 l 476 189 l 621 333 l 353 600 l 621 867 z m 13 -144 l 663 -144 l 663 31 l 13 31 z "},"±":{"ha":704,"x_min":0,"x_max":0,"o":"m 50 706 l 50 492 l 246 492 l 246 296 l 458 296 l 458 492 l 654 492 l 654 706 l 458 706 l 458 901 l 246 901 l 246 706 z m -29 -18 l 724 -18 l 724 174 l -29 174 z "},"≈":{"ha":704,"x_min":0,"x_max":0,"o":"m 50 576 l 50 417 l 654 417 l 654 576 z m 50 672 l 654 672 l 654 833 l 50 833 z "},"~":{"ha":704,"x_min":0,"x_max":0,"o":"m 50 706 l 50 492 l 654 492 l 654 706 z "},"¬":{"ha":704,"x_min":0,"x_max":0,"o":"m 50 706 l 50 492 l 654 492 l 654 706 z "},"^":{"ha":653,"x_min":0,"x_max":0,"o":"m 331 1214 l 328 1213 l 324 1214 l 324 1211 l 100 1115 l 100 989 l 328 1086 l 554 989 l 554 1115 l 331 1211 z "},"∞":{"ha":1264,"x_min":0,"x_max":0,"o":"m 1051 435 l 715 435 l 708 436 l 708 831 l 715 832 l 1051 832 l 1064 829 l 1064 438 z m 0 390 l 188 203 l 506 203 l 622 353 l 743 203 l 1069 203 l 1264 390 l 1264 876 l 1069 1064 l 743 1064 l 622 914 l 506 1064 l 188 1064 l 0 876 z m 193 438 l 193 829 l 207 832 l 532 832 l 539 831 l 539 436 l 532 435 l 207 435 z "},"∫":{"ha":485,"x_min":0,"x_max":0,"o":"m 126 1264 l 126 -126 l 358 -126 l 358 1264 z "},"∆":{"ha":1115,"x_min":0,"x_max":0,"o":"m 989 14 l 989 1029 l 747 1278 l 368 1278 l 126 1029 l 126 15 l 200 15 l 200 1 l 944 1 l 944 14 z m 358 233 l 358 1065 l 360 1074 l 756 1074 l 757 1065 l 757 233 z "},"∏":{"ha":971,"x_min":0,"x_max":0,"o":"m 126 1264 l 126 -126 l 358 -126 l 358 1136 l 611 1136 l 611 -126 l 843 -126 l 843 1264 z "},"∑":{"ha":1047,"x_min":0,"x_max":0,"o":"m 99 1264 l 99 1158 l 97 1158 l 97 775 l 240 629 l 97 482 l 97 99 l 99 99 l 99 0 l 975 0 l 975 203 l 329 203 l 329 518 l 331 526 l 667 526 l 667 731 l 331 731 l 329 739 l 329 1061 l 975 1061 l 975 1264 z "},"√":{"ha":1115,"x_min":0,"x_max":0,"o":"m 126 1264 l 126 249 l 368 0 l 747 0 l 989 249 l 989 1263 l 757 1263 l 757 213 l 756 204 l 360 204 l 358 213 l 358 1264 z "},"∂":{"ha":1108,"x_min":0,"x_max":0,"o":"m 750 1094 l 750 728 l 389 728 l 126 521 l 126 199 l 368 0 l 740 0 l 982 174 l 982 1065 l 740 1264 l 368 1264 l 126 1101 l 126 853 l 358 853 l 358 1100 l 749 1100 z m 368 164 l 368 164 l 368 551 l 381 557 l 750 557 l 750 164 z "},"µ":{"ha":1115,"x_min":0,"x_max":0,"o":"m 126 1264 l 126 249 l 368 0 l 747 0 l 989 249 l 989 1263 l 757 1263 l 757 213 l 756 204 l 360 204 l 358 213 l 358 1264 z "},"%":{"ha":1033,"x_min":0,"x_max":0,"o":"m 386 978 l 386 1250 l 113 1250 l 113 978 z m 126 0 l 358 0 l 911 1264 l 679 1264 z m 647 28 l 921 28 l 921 300 l 647 300 z "},"‰":{"ha":1539,"x_min":0,"x_max":0,"o":"m 386 978 l 386 1250 l 113 1250 l 113 978 z m 126 0 l 358 0 l 911 1264 l 679 1264 z m 647 28 l 921 28 l 921 300 l 647 300 z m 1153 28 l 1426 28 l 1426 300 l 1153 300 z "},"◊":{"ha":1115,"x_min":0,"x_max":0,"o":"m 358 213 l 358 1051 l 360 1060 l 756 1060 l 757 1051 l 757 213 l 756 204 l 360 204 z m 126 249 l 368 0 l 747 0 l 989 249 l 989 1015 l 747 1264 l 368 1264 l 126 1015 z "},"̈":{"ha":0,"x_min":0,"x_max":0,"o":"m 25 1551 l 25 1350 l 231 1350 l 231 1551 z m 342 1350 l 547 1350 l 547 1551 l 342 1551 z "},"̇":{"ha":0,"x_min":0,"x_max":0,"o":"m 25 1551 l 25 1350 l 231 1350 l 231 1551 z "},"̀":{"ha":0,"x_min":0,"x_max":0,"o":"m 28 1521 l 28 1394 l 496 1296 l 496 1422 z "},"́":{"ha":0,"x_min":0,"x_max":0,"o":"m 604 1521 l 136 1422 l 136 1296 l 604 1394 z "},"̋":{"ha":0,"x_min":0,"x_max":0,"o":"m 383 1521 l 124 1422 l 124 1296 l 383 1394 z m 401 1296 l 660 1394 l 660 1521 l 401 1422 z "},"̂":{"ha":0,"x_min":0,"x_max":0,"o":"m 331 1535 l 328 1533 l 324 1535 l 324 1532 l 100 1436 l 100 1310 l 328 1407 l 554 1310 l 554 1436 l 331 1532 z "},"̌":{"ha":0,"x_min":0,"x_max":0,"o":"m 331 1307 l 331 1310 l 554 1406 l 554 1532 l 328 1435 l 100 1532 l 100 1406 l 324 1310 l 324 1307 l 328 1308 z "},"̆":{"ha":0,"x_min":0,"x_max":0,"o":"m 40 1494 l 40 1297 l 414 1297 l 414 1494 l 306 1494 l 306 1406 l 149 1406 l 149 1494 z "},"̊":{"ha":0,"x_min":0,"x_max":0,"o":"m 25 1551 l 25 1350 l 231 1350 l 231 1551 z "},"̃":{"ha":0,"x_min":0,"x_max":0,"o":"m 28 1517 l 28 1353 l 603 1353 l 603 1517 z "},"̄":{"ha":0,"x_min":0,"x_max":0,"o":"m 28 1517 l 28 1353 l 603 1353 l 603 1517 z "},"̉":{"ha":0,"x_min":0,"x_max":0,"o":"m 293 1332 l 293 1576 l 156 1576 l 156 1332 z "},"̐":{"ha":0,"x_min":0,"x_max":0,"o":"m 40 1494 l 40 1297 l 414 1297 l 414 1494 l 306 1494 l 306 1406 l 149 1406 l 149 1494 z m 156 1554 l 300 1554 l 300 1696 l 156 1696 z "},"̒":{"ha":0,"x_min":0,"x_max":0,"o":"m 310 1229 l 310 1536 l 138 1536 l 138 1229 z "},"̛":{"ha":0,"x_min":0,"x_max":0,"o":"m 140 1139 l 321 1522 l 182 1522 l 0 1139 z "},"̠":{"ha":0,"x_min":0,"x_max":0,"o":"m 604 -239 l 604 -75 l 29 -75 l 29 -239 z "},"̣":{"ha":0,"x_min":0,"x_max":0,"o":"m 232 -274 l 232 -72 l 26 -72 l 26 -274 z "},"̤":{"ha":0,"x_min":0,"x_max":0,"o":"m 547 -274 l 547 -72 l 342 -72 l 342 -274 z m 25 -274 l 231 -274 l 231 -72 l 25 -72 z "},"̥":{"ha":0,"x_min":0,"x_max":0,"o":"m 232 -274 l 232 -72 l 26 -72 l 26 -274 z "},"̦":{"ha":0,"x_min":0,"x_max":0,"o":"m 138 49 l 138 -258 l 310 -258 l 310 49 z "},"̧":{"ha":0,"x_min":0,"x_max":0,"o":"m 138 49 l 138 -258 l 310 -258 l 310 49 z "},"̨":{"ha":0,"x_min":0,"x_max":0,"o":"m 138 49 l 138 -258 l 310 -258 l 310 49 z "},"̩":{"ha":0,"x_min":0,"x_max":0,"o":"m 138 49 l 138 -258 l 310 -258 l 310 49 z "},"̬":{"ha":0,"x_min":0,"x_max":0,"o":"m 310 -257 l 314 -256 l 317 -257 l 317 -254 l 540 -158 l 540 -32 l 314 -129 l 86 -32 l 86 -158 l 310 -254 z "},"̭":{"ha":0,"x_min":0,"x_max":0,"o":"m 753 -29 l 753 -32 l 529 -128 l 529 -254 l 757 -157 l 983 -254 l 983 -128 l 760 -32 l 760 -29 l 757 -31 z "},"̮":{"ha":0,"x_min":0,"x_max":0,"o":"m 40 -28 l 40 -225 l 414 -225 l 414 -28 l 306 -28 l 306 -117 l 149 -117 l 149 -28 z "},"̰":{"ha":0,"x_min":0,"x_max":0,"o":"m 1056 -239 l 1056 -75 l 481 -75 l 481 -239 z "},"̱":{"ha":0,"x_min":0,"x_max":0,"o":"m 604 -239 l 604 -75 l 29 -75 l 29 -239 z "},"̲":{"ha":0,"x_min":0,"x_max":0,"o":"m 604 -239 l 604 -75 l 29 -75 l 29 -239 z "},"̴":{"ha":0,"x_min":0,"x_max":0,"o":"m 51 696 l 51 501 l 640 501 l 640 696 z "},"̵":{"ha":0,"x_min":0,"x_max":0,"o":"m 14 688 l 14 508 l 618 508 l 618 688 z "},"̹":{"ha":0,"x_min":0,"x_max":0,"o":"m 138 49 l 138 -258 l 310 -258 l 310 49 z "},"͟":{"ha":0,"x_min":0,"x_max":0,"o":"m 604 -239 l 604 -75 l 29 -75 l 29 -239 z "},"¨":{"ha":572,"x_min":0,"x_max":0,"o":"m 25 1551 l 25 1350 l 231 1350 l 231 1551 z m 342 1350 l 547 1350 l 547 1551 l 342 1551 z "},"˙":{"ha":257,"x_min":0,"x_max":0,"o":"m 25 1551 l 25 1350 l 231 1350 l 231 1551 z "},"`":{"ha":632,"x_min":0,"x_max":0,"o":"m 28 1521 l 28 1394 l 496 1296 l 496 1422 z "},"´":{"ha":632,"x_min":0,"x_max":0,"o":"m 604 1521 l 136 1422 l 136 1296 l 604 1394 z "},"˝":{"ha":1083,"x_min":0,"x_max":0,"o":"m 383 1521 l 124 1422 l 124 1296 l 383 1394 z m 401 1296 l 660 1394 l 660 1521 l 401 1422 z "},"ˆ":{"ha":640,"x_min":0,"x_max":0,"o":"m 331 1535 l 328 1533 l 324 1535 l 324 1532 l 100 1436 l 100 1310 l 328 1407 l 554 1310 l 554 1436 l 331 1532 z "},"ˇ":{"ha":1083,"x_min":0,"x_max":0,"o":"m 331 1307 l 331 1310 l 554 1406 l 554 1532 l 328 1435 l 100 1532 l 100 1406 l 324 1310 l 324 1307 l 328 1308 z "},"˘":{"ha":456,"x_min":0,"x_max":0,"o":"m 40 1494 l 40 1297 l 414 1297 l 414 1494 l 306 1494 l 306 1406 l 149 1406 l 149 1494 z "},"˚":{"ha":1083,"x_min":0,"x_max":0,"o":"m 25 1551 l 25 1350 l 231 1350 l 231 1551 z "},"˜":{"ha":1083,"x_min":0,"x_max":0,"o":"m 28 1517 l 28 1353 l 603 1353 l 603 1517 z "},"¯":{"ha":632,"x_min":0,"x_max":0,"o":"m 28 1517 l 28 1353 l 603 1353 l 603 1517 z "},"¸":{"ha":447,"x_min":0,"x_max":0,"o":"m 138 49 l 138 -258 l 310 -258 l 310 49 z "},"˛":{"ha":1083,"x_min":0,"x_max":0,"o":"m 138 49 l 138 -258 l 310 -258 l 310 49 z "},"ʼ":{"ha":1083,"x_min":0,"x_max":0,"o":"m 310 1229 l 310 1536 l 138 1536 l 138 1229 z "},"ʽ":{"ha":1083,"x_min":0,"x_max":0,"o":"m 310 1229 l 310 1536 l 138 1536 l 138 1229 z "},"ʹ":{"ha":1083,"x_min":0,"x_max":0,"o":"m 310 1229 l 310 1536 l 138 1536 l 138 1229 z "},"ʿ":{"ha":1083,"x_min":0,"x_max":0,"o":"m 310 1229 l 310 1536 l 138 1536 l 138 1229 z "},"ʾ":{"ha":1083,"x_min":0,"x_max":0,"o":"m 310 1229 l 310 1536 l 138 1536 l 138 1229 z "},"ˈ":{"ha":1083,"x_min":0,"x_max":0,"o":"m 310 1229 l 310 1536 l 138 1536 l 138 1229 z "}}}
